M48
; DRILL file {KiCad (5.1.6)-1} date 12/09/20 16:37:45
; FORMAT={-:-/ absolute / inch / decimal}
; #@! TF.CreationDate,2020-12-09T16:37:45-06:00
; #@! TF.GenerationSoftware,Kicad,Pcbnew,(5.1.6)-1
FMAT,2
INCH
T1C0.0512
T2C0.0700
T3C0.1693
T4C0.1693
T5C0.1000
%
G90
G05
T1
X5.75Y-3.4
X5.8287Y-3.1638
X5.8287Y-3.6362
X6.3091Y-3.1638
X6.3091Y-3.6362
X5.75Y-4.15
X5.8287Y-3.9138
X5.8287Y-4.3862
X6.3091Y-3.9138
X6.3091Y-4.3862
X5.0438Y-3.4687
X5.0438Y-3.9491
X5.28Y-3.39
X5.5162Y-3.4687
X5.5162Y-3.9491
T2
X4.5925Y-3.4005
X4.5925Y-3.7595
X4.7675Y-3.4005
X4.7675Y-3.7595
X6.7125Y-3.4005
X6.7125Y-3.7595
X6.8875Y-3.4005
X6.8875Y-3.7595
T3
X4.75Y-4.3
T4
X6.75Y-4.3
T5
X4.68Y-3.17
X4.68Y-3.99
X6.8Y-3.17
X6.8Y-3.99
T0
M30
