%TF.GenerationSoftware,KiCad,Pcbnew,(5.1.6)-1*%
%TF.CreationDate,2020-12-09T16:37:23-06:00*%
%TF.ProjectId,WiperModule,57697065-724d-46f6-9475-6c652e6b6963,rev?*%
%TF.SameCoordinates,Original*%
%TF.FileFunction,Copper,L2,Bot*%
%TF.FilePolarity,Positive*%
%FSLAX46Y46*%
G04 Gerber Fmt 4.6, Leading zero omitted, Abs format (unit mm)*
G04 Created by KiCad (PCBNEW (5.1.6)-1) date 2020-12-09 16:37:23*
%MOMM*%
%LPD*%
G01*
G04 APERTURE LIST*
%TA.AperFunction,ComponentPad*%
%ADD10C,2.300000*%
%TD*%
%TA.AperFunction,ComponentPad*%
%ADD11R,2.300000X2.300000*%
%TD*%
%TA.AperFunction,WasherPad*%
%ADD12C,3.302000*%
%TD*%
%TA.AperFunction,ComponentPad*%
%ADD13C,3.302000*%
%TD*%
%TA.AperFunction,ComponentPad*%
%ADD14C,7.500000*%
%TD*%
%TA.AperFunction,Conductor*%
%ADD15C,0.250000*%
%TD*%
%TA.AperFunction,Conductor*%
%ADD16C,0.254000*%
%TD*%
G04 APERTURE END LIST*
D10*
X160250000Y-99410000D03*
X160250000Y-111410000D03*
X148050000Y-99410000D03*
X148050000Y-111410000D03*
D11*
X146050000Y-105410000D03*
D10*
X160250000Y-80360000D03*
X160250000Y-92360000D03*
X148050000Y-80360000D03*
X148050000Y-92360000D03*
D11*
X146050000Y-86360000D03*
D10*
X140112000Y-100306000D03*
X128112000Y-100306000D03*
X140112000Y-88106000D03*
X128112000Y-88106000D03*
D11*
X134112000Y-86106000D03*
D12*
X118872000Y-101346000D03*
X118872000Y-80518000D03*
D13*
X121094500Y-86372700D03*
X116649500Y-86372700D03*
X116649500Y-95491300D03*
X121094500Y-95491300D03*
D12*
X172720000Y-80518000D03*
X172720000Y-101346000D03*
D13*
X170497500Y-95491300D03*
X174942500Y-95491300D03*
X174942500Y-86372700D03*
X170497500Y-86372700D03*
D14*
X120650000Y-109220000D03*
X171450000Y-109220000D03*
D15*
X140112000Y-88106000D02*
X140112000Y-87980000D01*
X140112000Y-87980000D02*
X140208000Y-87884000D01*
X140112000Y-88106000D02*
X147352000Y-88106000D01*
X155098000Y-80360000D02*
X160250000Y-80360000D01*
X147352000Y-88106000D02*
X155098000Y-80360000D01*
X148050000Y-92360000D02*
X146430000Y-93980000D01*
X122605800Y-93980000D02*
X121094500Y-95491300D01*
X146430000Y-93980000D02*
X122605800Y-93980000D01*
X114173000Y-93294200D02*
X121094500Y-86372700D01*
X114173000Y-109601000D02*
X114173000Y-93294200D01*
X119634000Y-115062000D02*
X114173000Y-109601000D01*
X148050000Y-111410000D02*
X144398000Y-115062000D01*
X144398000Y-115062000D02*
X119634000Y-115062000D01*
D16*
G36*
X176920765Y-76904388D02*
G01*
X177101260Y-76988555D01*
X177264390Y-77102780D01*
X177405220Y-77243610D01*
X177519445Y-77406740D01*
X177603612Y-77587235D01*
X177655157Y-77779605D01*
X177673000Y-77983548D01*
X177673000Y-113532452D01*
X177655157Y-113736395D01*
X177603612Y-113928765D01*
X177519445Y-114109260D01*
X177405220Y-114272390D01*
X177264390Y-114413220D01*
X177101260Y-114527445D01*
X176920765Y-114611612D01*
X176728395Y-114663157D01*
X176524452Y-114681000D01*
X145853801Y-114681000D01*
X147443819Y-113090982D01*
X147529335Y-113126404D01*
X147874193Y-113195000D01*
X148225807Y-113195000D01*
X148570665Y-113126404D01*
X148895515Y-112991847D01*
X149187871Y-112796500D01*
X149436500Y-112547871D01*
X149631847Y-112255515D01*
X149766404Y-111930665D01*
X149835000Y-111585807D01*
X149835000Y-111234193D01*
X158465000Y-111234193D01*
X158465000Y-111585807D01*
X158533596Y-111930665D01*
X158668153Y-112255515D01*
X158863500Y-112547871D01*
X159112129Y-112796500D01*
X159404485Y-112991847D01*
X159729335Y-113126404D01*
X160074193Y-113195000D01*
X160425807Y-113195000D01*
X160770665Y-113126404D01*
X161095515Y-112991847D01*
X161387871Y-112796500D01*
X161636500Y-112547871D01*
X161831847Y-112255515D01*
X161966404Y-111930665D01*
X162035000Y-111585807D01*
X162035000Y-111234193D01*
X161966404Y-110889335D01*
X161831847Y-110564485D01*
X161636500Y-110272129D01*
X161387871Y-110023500D01*
X161095515Y-109828153D01*
X160770665Y-109693596D01*
X160425807Y-109625000D01*
X160074193Y-109625000D01*
X159729335Y-109693596D01*
X159404485Y-109828153D01*
X159112129Y-110023500D01*
X158863500Y-110272129D01*
X158668153Y-110564485D01*
X158533596Y-110889335D01*
X158465000Y-111234193D01*
X149835000Y-111234193D01*
X149766404Y-110889335D01*
X149631847Y-110564485D01*
X149436500Y-110272129D01*
X149187871Y-110023500D01*
X148895515Y-109828153D01*
X148570665Y-109693596D01*
X148225807Y-109625000D01*
X147874193Y-109625000D01*
X147529335Y-109693596D01*
X147204485Y-109828153D01*
X146912129Y-110023500D01*
X146663500Y-110272129D01*
X146468153Y-110564485D01*
X146333596Y-110889335D01*
X146265000Y-111234193D01*
X146265000Y-111585807D01*
X146333596Y-111930665D01*
X146369018Y-112016181D01*
X144083199Y-114302000D01*
X119948802Y-114302000D01*
X118879886Y-113233084D01*
X119370943Y-113436487D01*
X120218115Y-113605000D01*
X121081885Y-113605000D01*
X121929057Y-113436487D01*
X122727076Y-113105936D01*
X123445274Y-112626052D01*
X124056052Y-112015274D01*
X124535936Y-111297076D01*
X124866487Y-110499057D01*
X125035000Y-109651885D01*
X125035000Y-108788115D01*
X167065000Y-108788115D01*
X167065000Y-109651885D01*
X167233513Y-110499057D01*
X167564064Y-111297076D01*
X168043948Y-112015274D01*
X168654726Y-112626052D01*
X169372924Y-113105936D01*
X170170943Y-113436487D01*
X171018115Y-113605000D01*
X171881885Y-113605000D01*
X172729057Y-113436487D01*
X173527076Y-113105936D01*
X174245274Y-112626052D01*
X174856052Y-112015274D01*
X175335936Y-111297076D01*
X175666487Y-110499057D01*
X175835000Y-109651885D01*
X175835000Y-108788115D01*
X175666487Y-107940943D01*
X175335936Y-107142924D01*
X174856052Y-106424726D01*
X174245274Y-105813948D01*
X173527076Y-105334064D01*
X172729057Y-105003513D01*
X171881885Y-104835000D01*
X171018115Y-104835000D01*
X170170943Y-105003513D01*
X169372924Y-105334064D01*
X168654726Y-105813948D01*
X168043948Y-106424726D01*
X167564064Y-107142924D01*
X167233513Y-107940943D01*
X167065000Y-108788115D01*
X125035000Y-108788115D01*
X124866487Y-107940943D01*
X124535936Y-107142924D01*
X124056052Y-106424726D01*
X123445274Y-105813948D01*
X122727076Y-105334064D01*
X121929057Y-105003513D01*
X121081885Y-104835000D01*
X120218115Y-104835000D01*
X119370943Y-105003513D01*
X118572924Y-105334064D01*
X117854726Y-105813948D01*
X117243948Y-106424726D01*
X116764064Y-107142924D01*
X116433513Y-107940943D01*
X116265000Y-108788115D01*
X116265000Y-109651885D01*
X116433513Y-110499057D01*
X116636916Y-110990115D01*
X114933000Y-109286199D01*
X114933000Y-101120849D01*
X116586000Y-101120849D01*
X116586000Y-101571151D01*
X116673850Y-102012802D01*
X116846173Y-102428827D01*
X117096348Y-102803240D01*
X117414760Y-103121652D01*
X117789173Y-103371827D01*
X118205198Y-103544150D01*
X118646849Y-103632000D01*
X119097151Y-103632000D01*
X119538802Y-103544150D01*
X119954827Y-103371827D01*
X120329240Y-103121652D01*
X120647652Y-102803240D01*
X120897827Y-102428827D01*
X121070150Y-102012802D01*
X121158000Y-101571151D01*
X121158000Y-101120849D01*
X121070150Y-100679198D01*
X120897827Y-100263173D01*
X120808973Y-100130193D01*
X126327000Y-100130193D01*
X126327000Y-100481807D01*
X126395596Y-100826665D01*
X126530153Y-101151515D01*
X126725500Y-101443871D01*
X126974129Y-101692500D01*
X127266485Y-101887847D01*
X127591335Y-102022404D01*
X127936193Y-102091000D01*
X128287807Y-102091000D01*
X128632665Y-102022404D01*
X128957515Y-101887847D01*
X129249871Y-101692500D01*
X129498500Y-101443871D01*
X129693847Y-101151515D01*
X129828404Y-100826665D01*
X129897000Y-100481807D01*
X129897000Y-100130193D01*
X138327000Y-100130193D01*
X138327000Y-100481807D01*
X138395596Y-100826665D01*
X138530153Y-101151515D01*
X138725500Y-101443871D01*
X138974129Y-101692500D01*
X139266485Y-101887847D01*
X139591335Y-102022404D01*
X139936193Y-102091000D01*
X140287807Y-102091000D01*
X140632665Y-102022404D01*
X140957515Y-101887847D01*
X141249871Y-101692500D01*
X141498500Y-101443871D01*
X141693847Y-101151515D01*
X141828404Y-100826665D01*
X141897000Y-100481807D01*
X141897000Y-100130193D01*
X141828404Y-99785335D01*
X141693847Y-99460485D01*
X141542643Y-99234193D01*
X158465000Y-99234193D01*
X158465000Y-99585807D01*
X158533596Y-99930665D01*
X158668153Y-100255515D01*
X158863500Y-100547871D01*
X159112129Y-100796500D01*
X159404485Y-100991847D01*
X159729335Y-101126404D01*
X160074193Y-101195000D01*
X160425807Y-101195000D01*
X160770665Y-101126404D01*
X160784075Y-101120849D01*
X170434000Y-101120849D01*
X170434000Y-101571151D01*
X170521850Y-102012802D01*
X170694173Y-102428827D01*
X170944348Y-102803240D01*
X171262760Y-103121652D01*
X171637173Y-103371827D01*
X172053198Y-103544150D01*
X172494849Y-103632000D01*
X172945151Y-103632000D01*
X173386802Y-103544150D01*
X173802827Y-103371827D01*
X174177240Y-103121652D01*
X174495652Y-102803240D01*
X174745827Y-102428827D01*
X174918150Y-102012802D01*
X175006000Y-101571151D01*
X175006000Y-101120849D01*
X174918150Y-100679198D01*
X174745827Y-100263173D01*
X174495652Y-99888760D01*
X174177240Y-99570348D01*
X173802827Y-99320173D01*
X173386802Y-99147850D01*
X172945151Y-99060000D01*
X172494849Y-99060000D01*
X172053198Y-99147850D01*
X171637173Y-99320173D01*
X171262760Y-99570348D01*
X170944348Y-99888760D01*
X170694173Y-100263173D01*
X170521850Y-100679198D01*
X170434000Y-101120849D01*
X160784075Y-101120849D01*
X161095515Y-100991847D01*
X161387871Y-100796500D01*
X161636500Y-100547871D01*
X161831847Y-100255515D01*
X161966404Y-99930665D01*
X162035000Y-99585807D01*
X162035000Y-99234193D01*
X161966404Y-98889335D01*
X161831847Y-98564485D01*
X161636500Y-98272129D01*
X161387871Y-98023500D01*
X161095515Y-97828153D01*
X160770665Y-97693596D01*
X160425807Y-97625000D01*
X160074193Y-97625000D01*
X159729335Y-97693596D01*
X159404485Y-97828153D01*
X159112129Y-98023500D01*
X158863500Y-98272129D01*
X158668153Y-98564485D01*
X158533596Y-98889335D01*
X158465000Y-99234193D01*
X141542643Y-99234193D01*
X141498500Y-99168129D01*
X141249871Y-98919500D01*
X140957515Y-98724153D01*
X140632665Y-98589596D01*
X140287807Y-98521000D01*
X139936193Y-98521000D01*
X139591335Y-98589596D01*
X139266485Y-98724153D01*
X138974129Y-98919500D01*
X138725500Y-99168129D01*
X138530153Y-99460485D01*
X138395596Y-99785335D01*
X138327000Y-100130193D01*
X129897000Y-100130193D01*
X129828404Y-99785335D01*
X129693847Y-99460485D01*
X129498500Y-99168129D01*
X129249871Y-98919500D01*
X128957515Y-98724153D01*
X128632665Y-98589596D01*
X128287807Y-98521000D01*
X127936193Y-98521000D01*
X127591335Y-98589596D01*
X127266485Y-98724153D01*
X126974129Y-98919500D01*
X126725500Y-99168129D01*
X126530153Y-99460485D01*
X126395596Y-99785335D01*
X126327000Y-100130193D01*
X120808973Y-100130193D01*
X120647652Y-99888760D01*
X120329240Y-99570348D01*
X119954827Y-99320173D01*
X119538802Y-99147850D01*
X119097151Y-99060000D01*
X118646849Y-99060000D01*
X118205198Y-99147850D01*
X117789173Y-99320173D01*
X117414760Y-99570348D01*
X117096348Y-99888760D01*
X116846173Y-100263173D01*
X116673850Y-100679198D01*
X116586000Y-101120849D01*
X114933000Y-101120849D01*
X114933000Y-95266149D01*
X118808500Y-95266149D01*
X118808500Y-95716451D01*
X118896350Y-96158102D01*
X119068673Y-96574127D01*
X119318848Y-96948540D01*
X119637260Y-97266952D01*
X120011673Y-97517127D01*
X120427698Y-97689450D01*
X120869349Y-97777300D01*
X121319651Y-97777300D01*
X121761302Y-97689450D01*
X122177327Y-97517127D01*
X122551740Y-97266952D01*
X122870152Y-96948540D01*
X123120327Y-96574127D01*
X123292650Y-96158102D01*
X123380500Y-95716451D01*
X123380500Y-95266149D01*
X168211500Y-95266149D01*
X168211500Y-95716451D01*
X168299350Y-96158102D01*
X168471673Y-96574127D01*
X168721848Y-96948540D01*
X169040260Y-97266952D01*
X169414673Y-97517127D01*
X169830698Y-97689450D01*
X170272349Y-97777300D01*
X170722651Y-97777300D01*
X171164302Y-97689450D01*
X171580327Y-97517127D01*
X171954740Y-97266952D01*
X172273152Y-96948540D01*
X172523327Y-96574127D01*
X172695650Y-96158102D01*
X172720000Y-96035686D01*
X172744350Y-96158102D01*
X172916673Y-96574127D01*
X173166848Y-96948540D01*
X173485260Y-97266952D01*
X173859673Y-97517127D01*
X174275698Y-97689450D01*
X174717349Y-97777300D01*
X175167651Y-97777300D01*
X175609302Y-97689450D01*
X176025327Y-97517127D01*
X176399740Y-97266952D01*
X176718152Y-96948540D01*
X176968327Y-96574127D01*
X177140650Y-96158102D01*
X177228500Y-95716451D01*
X177228500Y-95266149D01*
X177140650Y-94824498D01*
X176968327Y-94408473D01*
X176718152Y-94034060D01*
X176399740Y-93715648D01*
X176025327Y-93465473D01*
X175609302Y-93293150D01*
X175167651Y-93205300D01*
X174717349Y-93205300D01*
X174275698Y-93293150D01*
X173859673Y-93465473D01*
X173485260Y-93715648D01*
X173166848Y-94034060D01*
X172916673Y-94408473D01*
X172744350Y-94824498D01*
X172720000Y-94946914D01*
X172695650Y-94824498D01*
X172523327Y-94408473D01*
X172273152Y-94034060D01*
X171954740Y-93715648D01*
X171580327Y-93465473D01*
X171164302Y-93293150D01*
X170722651Y-93205300D01*
X170272349Y-93205300D01*
X169830698Y-93293150D01*
X169414673Y-93465473D01*
X169040260Y-93715648D01*
X168721848Y-94034060D01*
X168471673Y-94408473D01*
X168299350Y-94824498D01*
X168211500Y-95266149D01*
X123380500Y-95266149D01*
X123292650Y-94824498D01*
X123257650Y-94740000D01*
X146392678Y-94740000D01*
X146430000Y-94743676D01*
X146467322Y-94740000D01*
X146467333Y-94740000D01*
X146578986Y-94729003D01*
X146722247Y-94685546D01*
X146854276Y-94614974D01*
X146970001Y-94520001D01*
X146993804Y-94490997D01*
X147443819Y-94040982D01*
X147529335Y-94076404D01*
X147874193Y-94145000D01*
X148225807Y-94145000D01*
X148570665Y-94076404D01*
X148895515Y-93941847D01*
X149187871Y-93746500D01*
X149436500Y-93497871D01*
X149631847Y-93205515D01*
X149766404Y-92880665D01*
X149835000Y-92535807D01*
X149835000Y-92184193D01*
X158465000Y-92184193D01*
X158465000Y-92535807D01*
X158533596Y-92880665D01*
X158668153Y-93205515D01*
X158863500Y-93497871D01*
X159112129Y-93746500D01*
X159404485Y-93941847D01*
X159729335Y-94076404D01*
X160074193Y-94145000D01*
X160425807Y-94145000D01*
X160770665Y-94076404D01*
X161095515Y-93941847D01*
X161387871Y-93746500D01*
X161636500Y-93497871D01*
X161831847Y-93205515D01*
X161966404Y-92880665D01*
X162035000Y-92535807D01*
X162035000Y-92184193D01*
X161966404Y-91839335D01*
X161831847Y-91514485D01*
X161636500Y-91222129D01*
X161387871Y-90973500D01*
X161095515Y-90778153D01*
X160770665Y-90643596D01*
X160425807Y-90575000D01*
X160074193Y-90575000D01*
X159729335Y-90643596D01*
X159404485Y-90778153D01*
X159112129Y-90973500D01*
X158863500Y-91222129D01*
X158668153Y-91514485D01*
X158533596Y-91839335D01*
X158465000Y-92184193D01*
X149835000Y-92184193D01*
X149766404Y-91839335D01*
X149631847Y-91514485D01*
X149436500Y-91222129D01*
X149187871Y-90973500D01*
X148895515Y-90778153D01*
X148570665Y-90643596D01*
X148225807Y-90575000D01*
X147874193Y-90575000D01*
X147529335Y-90643596D01*
X147204485Y-90778153D01*
X146912129Y-90973500D01*
X146663500Y-91222129D01*
X146468153Y-91514485D01*
X146333596Y-91839335D01*
X146265000Y-92184193D01*
X146265000Y-92535807D01*
X146333596Y-92880665D01*
X146369018Y-92966181D01*
X146115199Y-93220000D01*
X122643123Y-93220000D01*
X122605800Y-93216324D01*
X122568477Y-93220000D01*
X122568467Y-93220000D01*
X122456814Y-93230997D01*
X122313553Y-93274454D01*
X122181523Y-93345026D01*
X122097883Y-93413668D01*
X122082580Y-93426227D01*
X121761302Y-93293150D01*
X121319651Y-93205300D01*
X120869349Y-93205300D01*
X120427698Y-93293150D01*
X120011673Y-93465473D01*
X119637260Y-93715648D01*
X119318848Y-94034060D01*
X119068673Y-94408473D01*
X118896350Y-94824498D01*
X118808500Y-95266149D01*
X114933000Y-95266149D01*
X114933000Y-93609001D01*
X120104871Y-88437131D01*
X120427698Y-88570850D01*
X120869349Y-88658700D01*
X121319651Y-88658700D01*
X121761302Y-88570850D01*
X122177327Y-88398527D01*
X122551740Y-88148352D01*
X122769899Y-87930193D01*
X138327000Y-87930193D01*
X138327000Y-88281807D01*
X138395596Y-88626665D01*
X138530153Y-88951515D01*
X138725500Y-89243871D01*
X138974129Y-89492500D01*
X139266485Y-89687847D01*
X139591335Y-89822404D01*
X139936193Y-89891000D01*
X140287807Y-89891000D01*
X140632665Y-89822404D01*
X140957515Y-89687847D01*
X141249871Y-89492500D01*
X141498500Y-89243871D01*
X141693847Y-88951515D01*
X141729268Y-88866000D01*
X147314678Y-88866000D01*
X147352000Y-88869676D01*
X147389322Y-88866000D01*
X147389333Y-88866000D01*
X147500986Y-88855003D01*
X147644247Y-88811546D01*
X147776276Y-88740974D01*
X147892001Y-88646001D01*
X147915804Y-88616997D01*
X150385252Y-86147549D01*
X168211500Y-86147549D01*
X168211500Y-86597851D01*
X168299350Y-87039502D01*
X168471673Y-87455527D01*
X168721848Y-87829940D01*
X169040260Y-88148352D01*
X169414673Y-88398527D01*
X169830698Y-88570850D01*
X170272349Y-88658700D01*
X170722651Y-88658700D01*
X171164302Y-88570850D01*
X171580327Y-88398527D01*
X171954740Y-88148352D01*
X172273152Y-87829940D01*
X172523327Y-87455527D01*
X172695650Y-87039502D01*
X172783500Y-86597851D01*
X172783500Y-86147549D01*
X172695650Y-85705898D01*
X172523327Y-85289873D01*
X172273152Y-84915460D01*
X171954740Y-84597048D01*
X171580327Y-84346873D01*
X171164302Y-84174550D01*
X170722651Y-84086700D01*
X170272349Y-84086700D01*
X169830698Y-84174550D01*
X169414673Y-84346873D01*
X169040260Y-84597048D01*
X168721848Y-84915460D01*
X168471673Y-85289873D01*
X168299350Y-85705898D01*
X168211500Y-86147549D01*
X150385252Y-86147549D01*
X155412802Y-81120000D01*
X158632732Y-81120000D01*
X158668153Y-81205515D01*
X158863500Y-81497871D01*
X159112129Y-81746500D01*
X159404485Y-81941847D01*
X159729335Y-82076404D01*
X160074193Y-82145000D01*
X160425807Y-82145000D01*
X160770665Y-82076404D01*
X161095515Y-81941847D01*
X161387871Y-81746500D01*
X161636500Y-81497871D01*
X161831847Y-81205515D01*
X161966404Y-80880665D01*
X162035000Y-80535807D01*
X162035000Y-80292849D01*
X170434000Y-80292849D01*
X170434000Y-80743151D01*
X170521850Y-81184802D01*
X170694173Y-81600827D01*
X170944348Y-81975240D01*
X171262760Y-82293652D01*
X171637173Y-82543827D01*
X172053198Y-82716150D01*
X172494849Y-82804000D01*
X172945151Y-82804000D01*
X173386802Y-82716150D01*
X173802827Y-82543827D01*
X174177240Y-82293652D01*
X174495652Y-81975240D01*
X174745827Y-81600827D01*
X174918150Y-81184802D01*
X175006000Y-80743151D01*
X175006000Y-80292849D01*
X174918150Y-79851198D01*
X174745827Y-79435173D01*
X174495652Y-79060760D01*
X174177240Y-78742348D01*
X173802827Y-78492173D01*
X173386802Y-78319850D01*
X172945151Y-78232000D01*
X172494849Y-78232000D01*
X172053198Y-78319850D01*
X171637173Y-78492173D01*
X171262760Y-78742348D01*
X170944348Y-79060760D01*
X170694173Y-79435173D01*
X170521850Y-79851198D01*
X170434000Y-80292849D01*
X162035000Y-80292849D01*
X162035000Y-80184193D01*
X161966404Y-79839335D01*
X161831847Y-79514485D01*
X161636500Y-79222129D01*
X161387871Y-78973500D01*
X161095515Y-78778153D01*
X160770665Y-78643596D01*
X160425807Y-78575000D01*
X160074193Y-78575000D01*
X159729335Y-78643596D01*
X159404485Y-78778153D01*
X159112129Y-78973500D01*
X158863500Y-79222129D01*
X158668153Y-79514485D01*
X158632732Y-79600000D01*
X155135322Y-79600000D01*
X155097999Y-79596324D01*
X155060676Y-79600000D01*
X155060667Y-79600000D01*
X154949014Y-79610997D01*
X154805753Y-79654454D01*
X154673724Y-79725026D01*
X154557999Y-79819999D01*
X154534201Y-79848997D01*
X147838072Y-86545127D01*
X147838072Y-85210000D01*
X147825812Y-85085518D01*
X147789502Y-84965820D01*
X147730537Y-84855506D01*
X147651185Y-84758815D01*
X147554494Y-84679463D01*
X147444180Y-84620498D01*
X147324482Y-84584188D01*
X147200000Y-84571928D01*
X144900000Y-84571928D01*
X144775518Y-84584188D01*
X144655820Y-84620498D01*
X144545506Y-84679463D01*
X144448815Y-84758815D01*
X144369463Y-84855506D01*
X144310498Y-84965820D01*
X144274188Y-85085518D01*
X144261928Y-85210000D01*
X144261928Y-87346000D01*
X141729268Y-87346000D01*
X141693847Y-87260485D01*
X141498500Y-86968129D01*
X141249871Y-86719500D01*
X140957515Y-86524153D01*
X140632665Y-86389596D01*
X140287807Y-86321000D01*
X139936193Y-86321000D01*
X139591335Y-86389596D01*
X139266485Y-86524153D01*
X138974129Y-86719500D01*
X138725500Y-86968129D01*
X138530153Y-87260485D01*
X138395596Y-87585335D01*
X138327000Y-87930193D01*
X122769899Y-87930193D01*
X122870152Y-87829940D01*
X123120327Y-87455527D01*
X123292650Y-87039502D01*
X123380500Y-86597851D01*
X123380500Y-86147549D01*
X123292650Y-85705898D01*
X123120327Y-85289873D01*
X122897240Y-84956000D01*
X132323928Y-84956000D01*
X132323928Y-87256000D01*
X132336188Y-87380482D01*
X132372498Y-87500180D01*
X132431463Y-87610494D01*
X132510815Y-87707185D01*
X132607506Y-87786537D01*
X132717820Y-87845502D01*
X132837518Y-87881812D01*
X132962000Y-87894072D01*
X135262000Y-87894072D01*
X135386482Y-87881812D01*
X135506180Y-87845502D01*
X135616494Y-87786537D01*
X135713185Y-87707185D01*
X135792537Y-87610494D01*
X135851502Y-87500180D01*
X135887812Y-87380482D01*
X135900072Y-87256000D01*
X135900072Y-84956000D01*
X135887812Y-84831518D01*
X135851502Y-84711820D01*
X135792537Y-84601506D01*
X135713185Y-84504815D01*
X135616494Y-84425463D01*
X135506180Y-84366498D01*
X135386482Y-84330188D01*
X135262000Y-84317928D01*
X132962000Y-84317928D01*
X132837518Y-84330188D01*
X132717820Y-84366498D01*
X132607506Y-84425463D01*
X132510815Y-84504815D01*
X132431463Y-84601506D01*
X132372498Y-84711820D01*
X132336188Y-84831518D01*
X132323928Y-84956000D01*
X122897240Y-84956000D01*
X122870152Y-84915460D01*
X122551740Y-84597048D01*
X122177327Y-84346873D01*
X121761302Y-84174550D01*
X121319651Y-84086700D01*
X120869349Y-84086700D01*
X120427698Y-84174550D01*
X120011673Y-84346873D01*
X119637260Y-84597048D01*
X119318848Y-84915460D01*
X119068673Y-85289873D01*
X118896350Y-85705898D01*
X118872000Y-85828314D01*
X118847650Y-85705898D01*
X118675327Y-85289873D01*
X118425152Y-84915460D01*
X118106740Y-84597048D01*
X117732327Y-84346873D01*
X117316302Y-84174550D01*
X116874651Y-84086700D01*
X116424349Y-84086700D01*
X115982698Y-84174550D01*
X115566673Y-84346873D01*
X115192260Y-84597048D01*
X114873848Y-84915460D01*
X114623673Y-85289873D01*
X114451350Y-85705898D01*
X114363500Y-86147549D01*
X114363500Y-86597851D01*
X114451350Y-87039502D01*
X114623673Y-87455527D01*
X114873848Y-87829940D01*
X115192260Y-88148352D01*
X115566673Y-88398527D01*
X115982698Y-88570850D01*
X116424349Y-88658700D01*
X116874651Y-88658700D01*
X117316302Y-88570850D01*
X117732327Y-88398527D01*
X118106740Y-88148352D01*
X118425152Y-87829940D01*
X118675327Y-87455527D01*
X118847650Y-87039502D01*
X118872000Y-86917086D01*
X118896350Y-87039502D01*
X119030069Y-87362329D01*
X114198000Y-92194399D01*
X114198000Y-80292849D01*
X116586000Y-80292849D01*
X116586000Y-80743151D01*
X116673850Y-81184802D01*
X116846173Y-81600827D01*
X117096348Y-81975240D01*
X117414760Y-82293652D01*
X117789173Y-82543827D01*
X118205198Y-82716150D01*
X118646849Y-82804000D01*
X119097151Y-82804000D01*
X119538802Y-82716150D01*
X119954827Y-82543827D01*
X120329240Y-82293652D01*
X120647652Y-81975240D01*
X120897827Y-81600827D01*
X121070150Y-81184802D01*
X121158000Y-80743151D01*
X121158000Y-80292849D01*
X121070150Y-79851198D01*
X120897827Y-79435173D01*
X120647652Y-79060760D01*
X120329240Y-78742348D01*
X119954827Y-78492173D01*
X119538802Y-78319850D01*
X119097151Y-78232000D01*
X118646849Y-78232000D01*
X118205198Y-78319850D01*
X117789173Y-78492173D01*
X117414760Y-78742348D01*
X117096348Y-79060760D01*
X116846173Y-79435173D01*
X116673850Y-79851198D01*
X116586000Y-80292849D01*
X114198000Y-80292849D01*
X114198000Y-77752895D01*
X114242388Y-77587235D01*
X114326555Y-77406740D01*
X114440780Y-77243610D01*
X114581610Y-77102780D01*
X114744740Y-76988555D01*
X114925235Y-76904388D01*
X115090895Y-76860000D01*
X176755105Y-76860000D01*
X176920765Y-76904388D01*
G37*
X176920765Y-76904388D02*
X177101260Y-76988555D01*
X177264390Y-77102780D01*
X177405220Y-77243610D01*
X177519445Y-77406740D01*
X177603612Y-77587235D01*
X177655157Y-77779605D01*
X177673000Y-77983548D01*
X177673000Y-113532452D01*
X177655157Y-113736395D01*
X177603612Y-113928765D01*
X177519445Y-114109260D01*
X177405220Y-114272390D01*
X177264390Y-114413220D01*
X177101260Y-114527445D01*
X176920765Y-114611612D01*
X176728395Y-114663157D01*
X176524452Y-114681000D01*
X145853801Y-114681000D01*
X147443819Y-113090982D01*
X147529335Y-113126404D01*
X147874193Y-113195000D01*
X148225807Y-113195000D01*
X148570665Y-113126404D01*
X148895515Y-112991847D01*
X149187871Y-112796500D01*
X149436500Y-112547871D01*
X149631847Y-112255515D01*
X149766404Y-111930665D01*
X149835000Y-111585807D01*
X149835000Y-111234193D01*
X158465000Y-111234193D01*
X158465000Y-111585807D01*
X158533596Y-111930665D01*
X158668153Y-112255515D01*
X158863500Y-112547871D01*
X159112129Y-112796500D01*
X159404485Y-112991847D01*
X159729335Y-113126404D01*
X160074193Y-113195000D01*
X160425807Y-113195000D01*
X160770665Y-113126404D01*
X161095515Y-112991847D01*
X161387871Y-112796500D01*
X161636500Y-112547871D01*
X161831847Y-112255515D01*
X161966404Y-111930665D01*
X162035000Y-111585807D01*
X162035000Y-111234193D01*
X161966404Y-110889335D01*
X161831847Y-110564485D01*
X161636500Y-110272129D01*
X161387871Y-110023500D01*
X161095515Y-109828153D01*
X160770665Y-109693596D01*
X160425807Y-109625000D01*
X160074193Y-109625000D01*
X159729335Y-109693596D01*
X159404485Y-109828153D01*
X159112129Y-110023500D01*
X158863500Y-110272129D01*
X158668153Y-110564485D01*
X158533596Y-110889335D01*
X158465000Y-111234193D01*
X149835000Y-111234193D01*
X149766404Y-110889335D01*
X149631847Y-110564485D01*
X149436500Y-110272129D01*
X149187871Y-110023500D01*
X148895515Y-109828153D01*
X148570665Y-109693596D01*
X148225807Y-109625000D01*
X147874193Y-109625000D01*
X147529335Y-109693596D01*
X147204485Y-109828153D01*
X146912129Y-110023500D01*
X146663500Y-110272129D01*
X146468153Y-110564485D01*
X146333596Y-110889335D01*
X146265000Y-111234193D01*
X146265000Y-111585807D01*
X146333596Y-111930665D01*
X146369018Y-112016181D01*
X144083199Y-114302000D01*
X119948802Y-114302000D01*
X118879886Y-113233084D01*
X119370943Y-113436487D01*
X120218115Y-113605000D01*
X121081885Y-113605000D01*
X121929057Y-113436487D01*
X122727076Y-113105936D01*
X123445274Y-112626052D01*
X124056052Y-112015274D01*
X124535936Y-111297076D01*
X124866487Y-110499057D01*
X125035000Y-109651885D01*
X125035000Y-108788115D01*
X167065000Y-108788115D01*
X167065000Y-109651885D01*
X167233513Y-110499057D01*
X167564064Y-111297076D01*
X168043948Y-112015274D01*
X168654726Y-112626052D01*
X169372924Y-113105936D01*
X170170943Y-113436487D01*
X171018115Y-113605000D01*
X171881885Y-113605000D01*
X172729057Y-113436487D01*
X173527076Y-113105936D01*
X174245274Y-112626052D01*
X174856052Y-112015274D01*
X175335936Y-111297076D01*
X175666487Y-110499057D01*
X175835000Y-109651885D01*
X175835000Y-108788115D01*
X175666487Y-107940943D01*
X175335936Y-107142924D01*
X174856052Y-106424726D01*
X174245274Y-105813948D01*
X173527076Y-105334064D01*
X172729057Y-105003513D01*
X171881885Y-104835000D01*
X171018115Y-104835000D01*
X170170943Y-105003513D01*
X169372924Y-105334064D01*
X168654726Y-105813948D01*
X168043948Y-106424726D01*
X167564064Y-107142924D01*
X167233513Y-107940943D01*
X167065000Y-108788115D01*
X125035000Y-108788115D01*
X124866487Y-107940943D01*
X124535936Y-107142924D01*
X124056052Y-106424726D01*
X123445274Y-105813948D01*
X122727076Y-105334064D01*
X121929057Y-105003513D01*
X121081885Y-104835000D01*
X120218115Y-104835000D01*
X119370943Y-105003513D01*
X118572924Y-105334064D01*
X117854726Y-105813948D01*
X117243948Y-106424726D01*
X116764064Y-107142924D01*
X116433513Y-107940943D01*
X116265000Y-108788115D01*
X116265000Y-109651885D01*
X116433513Y-110499057D01*
X116636916Y-110990115D01*
X114933000Y-109286199D01*
X114933000Y-101120849D01*
X116586000Y-101120849D01*
X116586000Y-101571151D01*
X116673850Y-102012802D01*
X116846173Y-102428827D01*
X117096348Y-102803240D01*
X117414760Y-103121652D01*
X117789173Y-103371827D01*
X118205198Y-103544150D01*
X118646849Y-103632000D01*
X119097151Y-103632000D01*
X119538802Y-103544150D01*
X119954827Y-103371827D01*
X120329240Y-103121652D01*
X120647652Y-102803240D01*
X120897827Y-102428827D01*
X121070150Y-102012802D01*
X121158000Y-101571151D01*
X121158000Y-101120849D01*
X121070150Y-100679198D01*
X120897827Y-100263173D01*
X120808973Y-100130193D01*
X126327000Y-100130193D01*
X126327000Y-100481807D01*
X126395596Y-100826665D01*
X126530153Y-101151515D01*
X126725500Y-101443871D01*
X126974129Y-101692500D01*
X127266485Y-101887847D01*
X127591335Y-102022404D01*
X127936193Y-102091000D01*
X128287807Y-102091000D01*
X128632665Y-102022404D01*
X128957515Y-101887847D01*
X129249871Y-101692500D01*
X129498500Y-101443871D01*
X129693847Y-101151515D01*
X129828404Y-100826665D01*
X129897000Y-100481807D01*
X129897000Y-100130193D01*
X138327000Y-100130193D01*
X138327000Y-100481807D01*
X138395596Y-100826665D01*
X138530153Y-101151515D01*
X138725500Y-101443871D01*
X138974129Y-101692500D01*
X139266485Y-101887847D01*
X139591335Y-102022404D01*
X139936193Y-102091000D01*
X140287807Y-102091000D01*
X140632665Y-102022404D01*
X140957515Y-101887847D01*
X141249871Y-101692500D01*
X141498500Y-101443871D01*
X141693847Y-101151515D01*
X141828404Y-100826665D01*
X141897000Y-100481807D01*
X141897000Y-100130193D01*
X141828404Y-99785335D01*
X141693847Y-99460485D01*
X141542643Y-99234193D01*
X158465000Y-99234193D01*
X158465000Y-99585807D01*
X158533596Y-99930665D01*
X158668153Y-100255515D01*
X158863500Y-100547871D01*
X159112129Y-100796500D01*
X159404485Y-100991847D01*
X159729335Y-101126404D01*
X160074193Y-101195000D01*
X160425807Y-101195000D01*
X160770665Y-101126404D01*
X160784075Y-101120849D01*
X170434000Y-101120849D01*
X170434000Y-101571151D01*
X170521850Y-102012802D01*
X170694173Y-102428827D01*
X170944348Y-102803240D01*
X171262760Y-103121652D01*
X171637173Y-103371827D01*
X172053198Y-103544150D01*
X172494849Y-103632000D01*
X172945151Y-103632000D01*
X173386802Y-103544150D01*
X173802827Y-103371827D01*
X174177240Y-103121652D01*
X174495652Y-102803240D01*
X174745827Y-102428827D01*
X174918150Y-102012802D01*
X175006000Y-101571151D01*
X175006000Y-101120849D01*
X174918150Y-100679198D01*
X174745827Y-100263173D01*
X174495652Y-99888760D01*
X174177240Y-99570348D01*
X173802827Y-99320173D01*
X173386802Y-99147850D01*
X172945151Y-99060000D01*
X172494849Y-99060000D01*
X172053198Y-99147850D01*
X171637173Y-99320173D01*
X171262760Y-99570348D01*
X170944348Y-99888760D01*
X170694173Y-100263173D01*
X170521850Y-100679198D01*
X170434000Y-101120849D01*
X160784075Y-101120849D01*
X161095515Y-100991847D01*
X161387871Y-100796500D01*
X161636500Y-100547871D01*
X161831847Y-100255515D01*
X161966404Y-99930665D01*
X162035000Y-99585807D01*
X162035000Y-99234193D01*
X161966404Y-98889335D01*
X161831847Y-98564485D01*
X161636500Y-98272129D01*
X161387871Y-98023500D01*
X161095515Y-97828153D01*
X160770665Y-97693596D01*
X160425807Y-97625000D01*
X160074193Y-97625000D01*
X159729335Y-97693596D01*
X159404485Y-97828153D01*
X159112129Y-98023500D01*
X158863500Y-98272129D01*
X158668153Y-98564485D01*
X158533596Y-98889335D01*
X158465000Y-99234193D01*
X141542643Y-99234193D01*
X141498500Y-99168129D01*
X141249871Y-98919500D01*
X140957515Y-98724153D01*
X140632665Y-98589596D01*
X140287807Y-98521000D01*
X139936193Y-98521000D01*
X139591335Y-98589596D01*
X139266485Y-98724153D01*
X138974129Y-98919500D01*
X138725500Y-99168129D01*
X138530153Y-99460485D01*
X138395596Y-99785335D01*
X138327000Y-100130193D01*
X129897000Y-100130193D01*
X129828404Y-99785335D01*
X129693847Y-99460485D01*
X129498500Y-99168129D01*
X129249871Y-98919500D01*
X128957515Y-98724153D01*
X128632665Y-98589596D01*
X128287807Y-98521000D01*
X127936193Y-98521000D01*
X127591335Y-98589596D01*
X127266485Y-98724153D01*
X126974129Y-98919500D01*
X126725500Y-99168129D01*
X126530153Y-99460485D01*
X126395596Y-99785335D01*
X126327000Y-100130193D01*
X120808973Y-100130193D01*
X120647652Y-99888760D01*
X120329240Y-99570348D01*
X119954827Y-99320173D01*
X119538802Y-99147850D01*
X119097151Y-99060000D01*
X118646849Y-99060000D01*
X118205198Y-99147850D01*
X117789173Y-99320173D01*
X117414760Y-99570348D01*
X117096348Y-99888760D01*
X116846173Y-100263173D01*
X116673850Y-100679198D01*
X116586000Y-101120849D01*
X114933000Y-101120849D01*
X114933000Y-95266149D01*
X118808500Y-95266149D01*
X118808500Y-95716451D01*
X118896350Y-96158102D01*
X119068673Y-96574127D01*
X119318848Y-96948540D01*
X119637260Y-97266952D01*
X120011673Y-97517127D01*
X120427698Y-97689450D01*
X120869349Y-97777300D01*
X121319651Y-97777300D01*
X121761302Y-97689450D01*
X122177327Y-97517127D01*
X122551740Y-97266952D01*
X122870152Y-96948540D01*
X123120327Y-96574127D01*
X123292650Y-96158102D01*
X123380500Y-95716451D01*
X123380500Y-95266149D01*
X168211500Y-95266149D01*
X168211500Y-95716451D01*
X168299350Y-96158102D01*
X168471673Y-96574127D01*
X168721848Y-96948540D01*
X169040260Y-97266952D01*
X169414673Y-97517127D01*
X169830698Y-97689450D01*
X170272349Y-97777300D01*
X170722651Y-97777300D01*
X171164302Y-97689450D01*
X171580327Y-97517127D01*
X171954740Y-97266952D01*
X172273152Y-96948540D01*
X172523327Y-96574127D01*
X172695650Y-96158102D01*
X172720000Y-96035686D01*
X172744350Y-96158102D01*
X172916673Y-96574127D01*
X173166848Y-96948540D01*
X173485260Y-97266952D01*
X173859673Y-97517127D01*
X174275698Y-97689450D01*
X174717349Y-97777300D01*
X175167651Y-97777300D01*
X175609302Y-97689450D01*
X176025327Y-97517127D01*
X176399740Y-97266952D01*
X176718152Y-96948540D01*
X176968327Y-96574127D01*
X177140650Y-96158102D01*
X177228500Y-95716451D01*
X177228500Y-95266149D01*
X177140650Y-94824498D01*
X176968327Y-94408473D01*
X176718152Y-94034060D01*
X176399740Y-93715648D01*
X176025327Y-93465473D01*
X175609302Y-93293150D01*
X175167651Y-93205300D01*
X174717349Y-93205300D01*
X174275698Y-93293150D01*
X173859673Y-93465473D01*
X173485260Y-93715648D01*
X173166848Y-94034060D01*
X172916673Y-94408473D01*
X172744350Y-94824498D01*
X172720000Y-94946914D01*
X172695650Y-94824498D01*
X172523327Y-94408473D01*
X172273152Y-94034060D01*
X171954740Y-93715648D01*
X171580327Y-93465473D01*
X171164302Y-93293150D01*
X170722651Y-93205300D01*
X170272349Y-93205300D01*
X169830698Y-93293150D01*
X169414673Y-93465473D01*
X169040260Y-93715648D01*
X168721848Y-94034060D01*
X168471673Y-94408473D01*
X168299350Y-94824498D01*
X168211500Y-95266149D01*
X123380500Y-95266149D01*
X123292650Y-94824498D01*
X123257650Y-94740000D01*
X146392678Y-94740000D01*
X146430000Y-94743676D01*
X146467322Y-94740000D01*
X146467333Y-94740000D01*
X146578986Y-94729003D01*
X146722247Y-94685546D01*
X146854276Y-94614974D01*
X146970001Y-94520001D01*
X146993804Y-94490997D01*
X147443819Y-94040982D01*
X147529335Y-94076404D01*
X147874193Y-94145000D01*
X148225807Y-94145000D01*
X148570665Y-94076404D01*
X148895515Y-93941847D01*
X149187871Y-93746500D01*
X149436500Y-93497871D01*
X149631847Y-93205515D01*
X149766404Y-92880665D01*
X149835000Y-92535807D01*
X149835000Y-92184193D01*
X158465000Y-92184193D01*
X158465000Y-92535807D01*
X158533596Y-92880665D01*
X158668153Y-93205515D01*
X158863500Y-93497871D01*
X159112129Y-93746500D01*
X159404485Y-93941847D01*
X159729335Y-94076404D01*
X160074193Y-94145000D01*
X160425807Y-94145000D01*
X160770665Y-94076404D01*
X161095515Y-93941847D01*
X161387871Y-93746500D01*
X161636500Y-93497871D01*
X161831847Y-93205515D01*
X161966404Y-92880665D01*
X162035000Y-92535807D01*
X162035000Y-92184193D01*
X161966404Y-91839335D01*
X161831847Y-91514485D01*
X161636500Y-91222129D01*
X161387871Y-90973500D01*
X161095515Y-90778153D01*
X160770665Y-90643596D01*
X160425807Y-90575000D01*
X160074193Y-90575000D01*
X159729335Y-90643596D01*
X159404485Y-90778153D01*
X159112129Y-90973500D01*
X158863500Y-91222129D01*
X158668153Y-91514485D01*
X158533596Y-91839335D01*
X158465000Y-92184193D01*
X149835000Y-92184193D01*
X149766404Y-91839335D01*
X149631847Y-91514485D01*
X149436500Y-91222129D01*
X149187871Y-90973500D01*
X148895515Y-90778153D01*
X148570665Y-90643596D01*
X148225807Y-90575000D01*
X147874193Y-90575000D01*
X147529335Y-90643596D01*
X147204485Y-90778153D01*
X146912129Y-90973500D01*
X146663500Y-91222129D01*
X146468153Y-91514485D01*
X146333596Y-91839335D01*
X146265000Y-92184193D01*
X146265000Y-92535807D01*
X146333596Y-92880665D01*
X146369018Y-92966181D01*
X146115199Y-93220000D01*
X122643123Y-93220000D01*
X122605800Y-93216324D01*
X122568477Y-93220000D01*
X122568467Y-93220000D01*
X122456814Y-93230997D01*
X122313553Y-93274454D01*
X122181523Y-93345026D01*
X122097883Y-93413668D01*
X122082580Y-93426227D01*
X121761302Y-93293150D01*
X121319651Y-93205300D01*
X120869349Y-93205300D01*
X120427698Y-93293150D01*
X120011673Y-93465473D01*
X119637260Y-93715648D01*
X119318848Y-94034060D01*
X119068673Y-94408473D01*
X118896350Y-94824498D01*
X118808500Y-95266149D01*
X114933000Y-95266149D01*
X114933000Y-93609001D01*
X120104871Y-88437131D01*
X120427698Y-88570850D01*
X120869349Y-88658700D01*
X121319651Y-88658700D01*
X121761302Y-88570850D01*
X122177327Y-88398527D01*
X122551740Y-88148352D01*
X122769899Y-87930193D01*
X138327000Y-87930193D01*
X138327000Y-88281807D01*
X138395596Y-88626665D01*
X138530153Y-88951515D01*
X138725500Y-89243871D01*
X138974129Y-89492500D01*
X139266485Y-89687847D01*
X139591335Y-89822404D01*
X139936193Y-89891000D01*
X140287807Y-89891000D01*
X140632665Y-89822404D01*
X140957515Y-89687847D01*
X141249871Y-89492500D01*
X141498500Y-89243871D01*
X141693847Y-88951515D01*
X141729268Y-88866000D01*
X147314678Y-88866000D01*
X147352000Y-88869676D01*
X147389322Y-88866000D01*
X147389333Y-88866000D01*
X147500986Y-88855003D01*
X147644247Y-88811546D01*
X147776276Y-88740974D01*
X147892001Y-88646001D01*
X147915804Y-88616997D01*
X150385252Y-86147549D01*
X168211500Y-86147549D01*
X168211500Y-86597851D01*
X168299350Y-87039502D01*
X168471673Y-87455527D01*
X168721848Y-87829940D01*
X169040260Y-88148352D01*
X169414673Y-88398527D01*
X169830698Y-88570850D01*
X170272349Y-88658700D01*
X170722651Y-88658700D01*
X171164302Y-88570850D01*
X171580327Y-88398527D01*
X171954740Y-88148352D01*
X172273152Y-87829940D01*
X172523327Y-87455527D01*
X172695650Y-87039502D01*
X172783500Y-86597851D01*
X172783500Y-86147549D01*
X172695650Y-85705898D01*
X172523327Y-85289873D01*
X172273152Y-84915460D01*
X171954740Y-84597048D01*
X171580327Y-84346873D01*
X171164302Y-84174550D01*
X170722651Y-84086700D01*
X170272349Y-84086700D01*
X169830698Y-84174550D01*
X169414673Y-84346873D01*
X169040260Y-84597048D01*
X168721848Y-84915460D01*
X168471673Y-85289873D01*
X168299350Y-85705898D01*
X168211500Y-86147549D01*
X150385252Y-86147549D01*
X155412802Y-81120000D01*
X158632732Y-81120000D01*
X158668153Y-81205515D01*
X158863500Y-81497871D01*
X159112129Y-81746500D01*
X159404485Y-81941847D01*
X159729335Y-82076404D01*
X160074193Y-82145000D01*
X160425807Y-82145000D01*
X160770665Y-82076404D01*
X161095515Y-81941847D01*
X161387871Y-81746500D01*
X161636500Y-81497871D01*
X161831847Y-81205515D01*
X161966404Y-80880665D01*
X162035000Y-80535807D01*
X162035000Y-80292849D01*
X170434000Y-80292849D01*
X170434000Y-80743151D01*
X170521850Y-81184802D01*
X170694173Y-81600827D01*
X170944348Y-81975240D01*
X171262760Y-82293652D01*
X171637173Y-82543827D01*
X172053198Y-82716150D01*
X172494849Y-82804000D01*
X172945151Y-82804000D01*
X173386802Y-82716150D01*
X173802827Y-82543827D01*
X174177240Y-82293652D01*
X174495652Y-81975240D01*
X174745827Y-81600827D01*
X174918150Y-81184802D01*
X175006000Y-80743151D01*
X175006000Y-80292849D01*
X174918150Y-79851198D01*
X174745827Y-79435173D01*
X174495652Y-79060760D01*
X174177240Y-78742348D01*
X173802827Y-78492173D01*
X173386802Y-78319850D01*
X172945151Y-78232000D01*
X172494849Y-78232000D01*
X172053198Y-78319850D01*
X171637173Y-78492173D01*
X171262760Y-78742348D01*
X170944348Y-79060760D01*
X170694173Y-79435173D01*
X170521850Y-79851198D01*
X170434000Y-80292849D01*
X162035000Y-80292849D01*
X162035000Y-80184193D01*
X161966404Y-79839335D01*
X161831847Y-79514485D01*
X161636500Y-79222129D01*
X161387871Y-78973500D01*
X161095515Y-78778153D01*
X160770665Y-78643596D01*
X160425807Y-78575000D01*
X160074193Y-78575000D01*
X159729335Y-78643596D01*
X159404485Y-78778153D01*
X159112129Y-78973500D01*
X158863500Y-79222129D01*
X158668153Y-79514485D01*
X158632732Y-79600000D01*
X155135322Y-79600000D01*
X155097999Y-79596324D01*
X155060676Y-79600000D01*
X155060667Y-79600000D01*
X154949014Y-79610997D01*
X154805753Y-79654454D01*
X154673724Y-79725026D01*
X154557999Y-79819999D01*
X154534201Y-79848997D01*
X147838072Y-86545127D01*
X147838072Y-85210000D01*
X147825812Y-85085518D01*
X147789502Y-84965820D01*
X147730537Y-84855506D01*
X147651185Y-84758815D01*
X147554494Y-84679463D01*
X147444180Y-84620498D01*
X147324482Y-84584188D01*
X147200000Y-84571928D01*
X144900000Y-84571928D01*
X144775518Y-84584188D01*
X144655820Y-84620498D01*
X144545506Y-84679463D01*
X144448815Y-84758815D01*
X144369463Y-84855506D01*
X144310498Y-84965820D01*
X144274188Y-85085518D01*
X144261928Y-85210000D01*
X144261928Y-87346000D01*
X141729268Y-87346000D01*
X141693847Y-87260485D01*
X141498500Y-86968129D01*
X141249871Y-86719500D01*
X140957515Y-86524153D01*
X140632665Y-86389596D01*
X140287807Y-86321000D01*
X139936193Y-86321000D01*
X139591335Y-86389596D01*
X139266485Y-86524153D01*
X138974129Y-86719500D01*
X138725500Y-86968129D01*
X138530153Y-87260485D01*
X138395596Y-87585335D01*
X138327000Y-87930193D01*
X122769899Y-87930193D01*
X122870152Y-87829940D01*
X123120327Y-87455527D01*
X123292650Y-87039502D01*
X123380500Y-86597851D01*
X123380500Y-86147549D01*
X123292650Y-85705898D01*
X123120327Y-85289873D01*
X122897240Y-84956000D01*
X132323928Y-84956000D01*
X132323928Y-87256000D01*
X132336188Y-87380482D01*
X132372498Y-87500180D01*
X132431463Y-87610494D01*
X132510815Y-87707185D01*
X132607506Y-87786537D01*
X132717820Y-87845502D01*
X132837518Y-87881812D01*
X132962000Y-87894072D01*
X135262000Y-87894072D01*
X135386482Y-87881812D01*
X135506180Y-87845502D01*
X135616494Y-87786537D01*
X135713185Y-87707185D01*
X135792537Y-87610494D01*
X135851502Y-87500180D01*
X135887812Y-87380482D01*
X135900072Y-87256000D01*
X135900072Y-84956000D01*
X135887812Y-84831518D01*
X135851502Y-84711820D01*
X135792537Y-84601506D01*
X135713185Y-84504815D01*
X135616494Y-84425463D01*
X135506180Y-84366498D01*
X135386482Y-84330188D01*
X135262000Y-84317928D01*
X132962000Y-84317928D01*
X132837518Y-84330188D01*
X132717820Y-84366498D01*
X132607506Y-84425463D01*
X132510815Y-84504815D01*
X132431463Y-84601506D01*
X132372498Y-84711820D01*
X132336188Y-84831518D01*
X132323928Y-84956000D01*
X122897240Y-84956000D01*
X122870152Y-84915460D01*
X122551740Y-84597048D01*
X122177327Y-84346873D01*
X121761302Y-84174550D01*
X121319651Y-84086700D01*
X120869349Y-84086700D01*
X120427698Y-84174550D01*
X120011673Y-84346873D01*
X119637260Y-84597048D01*
X119318848Y-84915460D01*
X119068673Y-85289873D01*
X118896350Y-85705898D01*
X118872000Y-85828314D01*
X118847650Y-85705898D01*
X118675327Y-85289873D01*
X118425152Y-84915460D01*
X118106740Y-84597048D01*
X117732327Y-84346873D01*
X117316302Y-84174550D01*
X116874651Y-84086700D01*
X116424349Y-84086700D01*
X115982698Y-84174550D01*
X115566673Y-84346873D01*
X115192260Y-84597048D01*
X114873848Y-84915460D01*
X114623673Y-85289873D01*
X114451350Y-85705898D01*
X114363500Y-86147549D01*
X114363500Y-86597851D01*
X114451350Y-87039502D01*
X114623673Y-87455527D01*
X114873848Y-87829940D01*
X115192260Y-88148352D01*
X115566673Y-88398527D01*
X115982698Y-88570850D01*
X116424349Y-88658700D01*
X116874651Y-88658700D01*
X117316302Y-88570850D01*
X117732327Y-88398527D01*
X118106740Y-88148352D01*
X118425152Y-87829940D01*
X118675327Y-87455527D01*
X118847650Y-87039502D01*
X118872000Y-86917086D01*
X118896350Y-87039502D01*
X119030069Y-87362329D01*
X114198000Y-92194399D01*
X114198000Y-80292849D01*
X116586000Y-80292849D01*
X116586000Y-80743151D01*
X116673850Y-81184802D01*
X116846173Y-81600827D01*
X117096348Y-81975240D01*
X117414760Y-82293652D01*
X117789173Y-82543827D01*
X118205198Y-82716150D01*
X118646849Y-82804000D01*
X119097151Y-82804000D01*
X119538802Y-82716150D01*
X119954827Y-82543827D01*
X120329240Y-82293652D01*
X120647652Y-81975240D01*
X120897827Y-81600827D01*
X121070150Y-81184802D01*
X121158000Y-80743151D01*
X121158000Y-80292849D01*
X121070150Y-79851198D01*
X120897827Y-79435173D01*
X120647652Y-79060760D01*
X120329240Y-78742348D01*
X119954827Y-78492173D01*
X119538802Y-78319850D01*
X119097151Y-78232000D01*
X118646849Y-78232000D01*
X118205198Y-78319850D01*
X117789173Y-78492173D01*
X117414760Y-78742348D01*
X117096348Y-79060760D01*
X116846173Y-79435173D01*
X116673850Y-79851198D01*
X116586000Y-80292849D01*
X114198000Y-80292849D01*
X114198000Y-77752895D01*
X114242388Y-77587235D01*
X114326555Y-77406740D01*
X114440780Y-77243610D01*
X114581610Y-77102780D01*
X114744740Y-76988555D01*
X114925235Y-76904388D01*
X115090895Y-76860000D01*
X176755105Y-76860000D01*
X176920765Y-76904388D01*
M02*
