%TF.GenerationSoftware,KiCad,Pcbnew,(5.1.6)-1*%
%TF.CreationDate,2020-12-09T16:37:23-06:00*%
%TF.ProjectId,WiperModule,57697065-724d-46f6-9475-6c652e6b6963,rev?*%
%TF.SameCoordinates,Original*%
%TF.FileFunction,Legend,Bot*%
%TF.FilePolarity,Positive*%
%FSLAX46Y46*%
G04 Gerber Fmt 4.6, Leading zero omitted, Abs format (unit mm)*
G04 Created by KiCad (PCBNEW (5.1.6)-1) date 2020-12-09 16:37:23*
%MOMM*%
%LPD*%
G01*
G04 APERTURE LIST*
%ADD10C,0.254000*%
%ADD11C,0.120000*%
%ADD12C,0.010000*%
G04 APERTURE END LIST*
D10*
X159324523Y-87448571D02*
X158550428Y-87448571D01*
X158066619Y-87835619D02*
X158066619Y-86819619D01*
X157679571Y-86819619D01*
X157582809Y-86868000D01*
X157534428Y-86916380D01*
X157486047Y-87013142D01*
X157486047Y-87158285D01*
X157534428Y-87255047D01*
X157582809Y-87303428D01*
X157679571Y-87351809D01*
X158066619Y-87351809D01*
X157099000Y-87545333D02*
X156615190Y-87545333D01*
X157195761Y-87835619D02*
X156857095Y-86819619D01*
X156518428Y-87835619D01*
X156228142Y-87787238D02*
X156083000Y-87835619D01*
X155841095Y-87835619D01*
X155744333Y-87787238D01*
X155695952Y-87738857D01*
X155647571Y-87642095D01*
X155647571Y-87545333D01*
X155695952Y-87448571D01*
X155744333Y-87400190D01*
X155841095Y-87351809D01*
X156034619Y-87303428D01*
X156131380Y-87255047D01*
X156179761Y-87206666D01*
X156228142Y-87109904D01*
X156228142Y-87013142D01*
X156179761Y-86916380D01*
X156131380Y-86868000D01*
X156034619Y-86819619D01*
X155792714Y-86819619D01*
X155647571Y-86868000D01*
X155260523Y-87787238D02*
X155115380Y-87835619D01*
X154873476Y-87835619D01*
X154776714Y-87787238D01*
X154728333Y-87738857D01*
X154679952Y-87642095D01*
X154679952Y-87545333D01*
X154728333Y-87448571D01*
X154776714Y-87400190D01*
X154873476Y-87351809D01*
X155067000Y-87303428D01*
X155163761Y-87255047D01*
X155212142Y-87206666D01*
X155260523Y-87109904D01*
X155260523Y-87013142D01*
X155212142Y-86916380D01*
X155163761Y-86868000D01*
X155067000Y-86819619D01*
X154825095Y-86819619D01*
X154679952Y-86868000D01*
X154389666Y-86819619D02*
X153809095Y-86819619D01*
X154099380Y-87835619D02*
X154099380Y-86819619D01*
X153470428Y-87835619D02*
X153470428Y-86819619D01*
X153470428Y-87303428D02*
X152889857Y-87303428D01*
X152889857Y-87835619D02*
X152889857Y-86819619D01*
X151825476Y-87835619D02*
X152164142Y-87351809D01*
X152406047Y-87835619D02*
X152406047Y-86819619D01*
X152019000Y-86819619D01*
X151922238Y-86868000D01*
X151873857Y-86916380D01*
X151825476Y-87013142D01*
X151825476Y-87158285D01*
X151873857Y-87255047D01*
X151922238Y-87303428D01*
X152019000Y-87351809D01*
X152406047Y-87351809D01*
X151390047Y-86819619D02*
X151390047Y-87642095D01*
X151341666Y-87738857D01*
X151293285Y-87787238D01*
X151196523Y-87835619D01*
X151003000Y-87835619D01*
X150906238Y-87787238D01*
X150857857Y-87738857D01*
X150809476Y-87642095D01*
X150809476Y-86819619D01*
D11*
X164973000Y-82804000D02*
X164973000Y-90170000D01*
X159639000Y-82804000D02*
X167513000Y-82804000D01*
X159639000Y-90170000D02*
X159639000Y-82804000D01*
X167513000Y-90170000D02*
X159639000Y-90170000D01*
X167513000Y-82804000D02*
X167513000Y-90170000D01*
D10*
X163465328Y-83874428D02*
X163803995Y-83874428D01*
X163803995Y-84406619D02*
X163803995Y-83390619D01*
X163320185Y-83390619D01*
X162981519Y-84116333D02*
X162497709Y-84116333D01*
X163078280Y-84406619D02*
X162739614Y-83390619D01*
X162400947Y-84406619D01*
X162110661Y-84358238D02*
X161965519Y-84406619D01*
X161723614Y-84406619D01*
X161626852Y-84358238D01*
X161578471Y-84309857D01*
X161530090Y-84213095D01*
X161530090Y-84116333D01*
X161578471Y-84019571D01*
X161626852Y-83971190D01*
X161723614Y-83922809D01*
X161917138Y-83874428D01*
X162013900Y-83826047D01*
X162062280Y-83777666D01*
X162110661Y-83680904D01*
X162110661Y-83584142D01*
X162062280Y-83487380D01*
X162013900Y-83439000D01*
X161917138Y-83390619D01*
X161675233Y-83390619D01*
X161530090Y-83439000D01*
X161239804Y-83390619D02*
X160659233Y-83390619D01*
X160949519Y-84406619D02*
X160949519Y-83390619D01*
X163271804Y-85217000D02*
X163368566Y-85168619D01*
X163513709Y-85168619D01*
X163658852Y-85217000D01*
X163755614Y-85313761D01*
X163803995Y-85410523D01*
X163852376Y-85604047D01*
X163852376Y-85749190D01*
X163803995Y-85942714D01*
X163755614Y-86039476D01*
X163658852Y-86136238D01*
X163513709Y-86184619D01*
X163416947Y-86184619D01*
X163271804Y-86136238D01*
X163223423Y-86087857D01*
X163223423Y-85749190D01*
X163416947Y-85749190D01*
X162787995Y-86184619D02*
X162787995Y-85168619D01*
X162207423Y-86184619D01*
X162207423Y-85168619D01*
X161723614Y-86184619D02*
X161723614Y-85168619D01*
X161481709Y-85168619D01*
X161336566Y-85217000D01*
X161239804Y-85313761D01*
X161191423Y-85410523D01*
X161143042Y-85604047D01*
X161143042Y-85749190D01*
X161191423Y-85942714D01*
X161239804Y-86039476D01*
X161336566Y-86136238D01*
X161481709Y-86184619D01*
X161723614Y-86184619D01*
X163803995Y-87962619D02*
X163803995Y-86946619D01*
X163416947Y-86946619D01*
X163320185Y-86995000D01*
X163271804Y-87043380D01*
X163223423Y-87140142D01*
X163223423Y-87285285D01*
X163271804Y-87382047D01*
X163320185Y-87430428D01*
X163416947Y-87478809D01*
X163803995Y-87478809D01*
X162836376Y-87672333D02*
X162352566Y-87672333D01*
X162933138Y-87962619D02*
X162594471Y-86946619D01*
X162255804Y-87962619D01*
X161336566Y-87962619D02*
X161675233Y-87478809D01*
X161917138Y-87962619D02*
X161917138Y-86946619D01*
X161530090Y-86946619D01*
X161433328Y-86995000D01*
X161384947Y-87043380D01*
X161336566Y-87140142D01*
X161336566Y-87285285D01*
X161384947Y-87382047D01*
X161433328Y-87430428D01*
X161530090Y-87478809D01*
X161917138Y-87478809D01*
X160901138Y-87962619D02*
X160901138Y-86946619D01*
X160320566Y-87962619D02*
X160755995Y-87382047D01*
X160320566Y-86946619D02*
X160901138Y-87527190D01*
X163852376Y-89692238D02*
X163707233Y-89740619D01*
X163465328Y-89740619D01*
X163368566Y-89692238D01*
X163320185Y-89643857D01*
X163271804Y-89547095D01*
X163271804Y-89450333D01*
X163320185Y-89353571D01*
X163368566Y-89305190D01*
X163465328Y-89256809D01*
X163658852Y-89208428D01*
X163755614Y-89160047D01*
X163803995Y-89111666D01*
X163852376Y-89014904D01*
X163852376Y-88918142D01*
X163803995Y-88821380D01*
X163755614Y-88773000D01*
X163658852Y-88724619D01*
X163416947Y-88724619D01*
X163271804Y-88773000D01*
X162352566Y-89740619D02*
X162836376Y-89740619D01*
X162836376Y-88724619D01*
X161820376Y-88724619D02*
X161626852Y-88724619D01*
X161530090Y-88773000D01*
X161433328Y-88869761D01*
X161384947Y-89063285D01*
X161384947Y-89401952D01*
X161433328Y-89595476D01*
X161530090Y-89692238D01*
X161626852Y-89740619D01*
X161820376Y-89740619D01*
X161917138Y-89692238D01*
X162013900Y-89595476D01*
X162062280Y-89401952D01*
X162062280Y-89063285D01*
X162013900Y-88869761D01*
X161917138Y-88773000D01*
X161820376Y-88724619D01*
X161046280Y-88724619D02*
X160804376Y-89740619D01*
X160610852Y-89014904D01*
X160417328Y-89740619D01*
X160175423Y-88724619D01*
X166992904Y-84406619D02*
X166992904Y-83390619D01*
X166605857Y-83390619D01*
X166509095Y-83439000D01*
X166460714Y-83487380D01*
X166412333Y-83584142D01*
X166412333Y-83729285D01*
X166460714Y-83826047D01*
X166509095Y-83874428D01*
X166605857Y-83922809D01*
X166992904Y-83922809D01*
X165444714Y-84406619D02*
X166025285Y-84406619D01*
X165735000Y-84406619D02*
X165735000Y-83390619D01*
X165831761Y-83535761D01*
X165928523Y-83632523D01*
X166025285Y-83680904D01*
X166992904Y-86184619D02*
X166992904Y-85168619D01*
X166605857Y-85168619D01*
X166509095Y-85217000D01*
X166460714Y-85265380D01*
X166412333Y-85362142D01*
X166412333Y-85507285D01*
X166460714Y-85604047D01*
X166509095Y-85652428D01*
X166605857Y-85700809D01*
X166992904Y-85700809D01*
X166025285Y-85265380D02*
X165976904Y-85217000D01*
X165880142Y-85168619D01*
X165638238Y-85168619D01*
X165541476Y-85217000D01*
X165493095Y-85265380D01*
X165444714Y-85362142D01*
X165444714Y-85458904D01*
X165493095Y-85604047D01*
X166073666Y-86184619D01*
X165444714Y-86184619D01*
X166992904Y-87962619D02*
X166992904Y-86946619D01*
X166605857Y-86946619D01*
X166509095Y-86995000D01*
X166460714Y-87043380D01*
X166412333Y-87140142D01*
X166412333Y-87285285D01*
X166460714Y-87382047D01*
X166509095Y-87430428D01*
X166605857Y-87478809D01*
X166992904Y-87478809D01*
X166073666Y-86946619D02*
X165444714Y-86946619D01*
X165783380Y-87333666D01*
X165638238Y-87333666D01*
X165541476Y-87382047D01*
X165493095Y-87430428D01*
X165444714Y-87527190D01*
X165444714Y-87769095D01*
X165493095Y-87865857D01*
X165541476Y-87914238D01*
X165638238Y-87962619D01*
X165928523Y-87962619D01*
X166025285Y-87914238D01*
X166073666Y-87865857D01*
X166992904Y-89740619D02*
X166992904Y-88724619D01*
X166605857Y-88724619D01*
X166509095Y-88773000D01*
X166460714Y-88821380D01*
X166412333Y-88918142D01*
X166412333Y-89063285D01*
X166460714Y-89160047D01*
X166509095Y-89208428D01*
X166605857Y-89256809D01*
X166992904Y-89256809D01*
X165541476Y-89063285D02*
X165541476Y-89740619D01*
X165783380Y-88676238D02*
X166025285Y-89401952D01*
X165396333Y-89401952D01*
X132902476Y-105059238D02*
X132757333Y-105107619D01*
X132515428Y-105107619D01*
X132418666Y-105059238D01*
X132370285Y-105010857D01*
X132321904Y-104914095D01*
X132321904Y-104817333D01*
X132370285Y-104720571D01*
X132418666Y-104672190D01*
X132515428Y-104623809D01*
X132708952Y-104575428D01*
X132805714Y-104527047D01*
X132854095Y-104478666D01*
X132902476Y-104381904D01*
X132902476Y-104285142D01*
X132854095Y-104188380D01*
X132805714Y-104140000D01*
X132708952Y-104091619D01*
X132467047Y-104091619D01*
X132321904Y-104140000D01*
X131692952Y-104091619D02*
X131499428Y-104091619D01*
X131402666Y-104140000D01*
X131305904Y-104236761D01*
X131257523Y-104430285D01*
X131257523Y-104768952D01*
X131305904Y-104962476D01*
X131402666Y-105059238D01*
X131499428Y-105107619D01*
X131692952Y-105107619D01*
X131789714Y-105059238D01*
X131886476Y-104962476D01*
X131934857Y-104768952D01*
X131934857Y-104430285D01*
X131886476Y-104236761D01*
X131789714Y-104140000D01*
X131692952Y-104091619D01*
X132854095Y-105918000D02*
X132950857Y-105869619D01*
X133096000Y-105869619D01*
X133241142Y-105918000D01*
X133337904Y-106014761D01*
X133386285Y-106111523D01*
X133434666Y-106305047D01*
X133434666Y-106450190D01*
X133386285Y-106643714D01*
X133337904Y-106740476D01*
X133241142Y-106837238D01*
X133096000Y-106885619D01*
X132999238Y-106885619D01*
X132854095Y-106837238D01*
X132805714Y-106788857D01*
X132805714Y-106450190D01*
X132999238Y-106450190D01*
X132370285Y-106885619D02*
X132370285Y-105869619D01*
X131789714Y-106885619D01*
X131789714Y-105869619D01*
X131305904Y-106885619D02*
X131305904Y-105869619D01*
X131064000Y-105869619D01*
X130918857Y-105918000D01*
X130822095Y-106014761D01*
X130773714Y-106111523D01*
X130725333Y-106305047D01*
X130725333Y-106450190D01*
X130773714Y-106643714D01*
X130822095Y-106740476D01*
X130918857Y-106837238D01*
X131064000Y-106885619D01*
X131305904Y-106885619D01*
X132612190Y-108615238D02*
X132467047Y-108663619D01*
X132225142Y-108663619D01*
X132128380Y-108615238D01*
X132080000Y-108566857D01*
X132031619Y-108470095D01*
X132031619Y-108373333D01*
X132080000Y-108276571D01*
X132128380Y-108228190D01*
X132225142Y-108179809D01*
X132418666Y-108131428D01*
X132515428Y-108083047D01*
X132563809Y-108034666D01*
X132612190Y-107937904D01*
X132612190Y-107841142D01*
X132563809Y-107744380D01*
X132515428Y-107696000D01*
X132418666Y-107647619D01*
X132176761Y-107647619D01*
X132031619Y-107696000D01*
X131596190Y-108663619D02*
X131596190Y-107647619D01*
X132854095Y-109474000D02*
X132950857Y-109425619D01*
X133096000Y-109425619D01*
X133241142Y-109474000D01*
X133337904Y-109570761D01*
X133386285Y-109667523D01*
X133434666Y-109861047D01*
X133434666Y-110006190D01*
X133386285Y-110199714D01*
X133337904Y-110296476D01*
X133241142Y-110393238D01*
X133096000Y-110441619D01*
X132999238Y-110441619D01*
X132854095Y-110393238D01*
X132805714Y-110344857D01*
X132805714Y-110006190D01*
X132999238Y-110006190D01*
X132370285Y-110441619D02*
X132370285Y-109425619D01*
X131789714Y-110441619D01*
X131789714Y-109425619D01*
X131305904Y-110441619D02*
X131305904Y-109425619D01*
X131064000Y-109425619D01*
X130918857Y-109474000D01*
X130822095Y-109570761D01*
X130773714Y-109667523D01*
X130725333Y-109861047D01*
X130725333Y-110006190D01*
X130773714Y-110199714D01*
X130822095Y-110296476D01*
X130918857Y-110393238D01*
X131064000Y-110441619D01*
X131305904Y-110441619D01*
X132878285Y-112219619D02*
X132878285Y-111203619D01*
X132297714Y-112219619D01*
X132297714Y-111203619D01*
X131233333Y-112122857D02*
X131281714Y-112171238D01*
X131426857Y-112219619D01*
X131523619Y-112219619D01*
X131668761Y-112171238D01*
X131765523Y-112074476D01*
X131813904Y-111977714D01*
X131862285Y-111784190D01*
X131862285Y-111639047D01*
X131813904Y-111445523D01*
X131765523Y-111348761D01*
X131668761Y-111252000D01*
X131523619Y-111203619D01*
X131426857Y-111203619D01*
X131281714Y-111252000D01*
X131233333Y-111300380D01*
D11*
X138684000Y-103632000D02*
X138684000Y-112522000D01*
X136398000Y-103632000D02*
X136398000Y-112776000D01*
X127508000Y-105410000D02*
X140716000Y-105410000D01*
X133858000Y-103632000D02*
X133858000Y-112776000D01*
X130302000Y-103632000D02*
X130302000Y-112776000D01*
X127508000Y-112776000D02*
X127508000Y-103632000D01*
X140716000Y-112776000D02*
X127508000Y-112776000D01*
X140716000Y-103632000D02*
X140716000Y-112776000D01*
X127508000Y-103632000D02*
X140716000Y-103632000D01*
D10*
X135515047Y-106226428D02*
X134740952Y-106226428D01*
X134740952Y-106516714D02*
X135515047Y-106516714D01*
X135515047Y-108004428D02*
X134740952Y-108004428D01*
X134740952Y-108294714D02*
X135515047Y-108294714D01*
X135515047Y-109782428D02*
X134740952Y-109782428D01*
X134740952Y-110072714D02*
X135515047Y-110072714D01*
X135515047Y-111560428D02*
X134740952Y-111560428D01*
X134740952Y-111850714D02*
X135515047Y-111850714D01*
X129165047Y-104575428D02*
X129503714Y-104575428D01*
X129503714Y-105107619D02*
X129503714Y-104091619D01*
X129019904Y-104091619D01*
X128439333Y-104091619D02*
X128245809Y-104091619D01*
X128149047Y-104140000D01*
X128052285Y-104236761D01*
X128003904Y-104430285D01*
X128003904Y-104768952D01*
X128052285Y-104962476D01*
X128149047Y-105059238D01*
X128245809Y-105107619D01*
X128439333Y-105107619D01*
X128536095Y-105059238D01*
X128632857Y-104962476D01*
X128681238Y-104768952D01*
X128681238Y-104430285D01*
X128632857Y-104236761D01*
X128536095Y-104140000D01*
X128439333Y-104091619D01*
X129576285Y-106885619D02*
X129576285Y-105869619D01*
X128995714Y-106885619D01*
X128995714Y-105869619D01*
X127931333Y-106788857D02*
X127979714Y-106837238D01*
X128124857Y-106885619D01*
X128221619Y-106885619D01*
X128366761Y-106837238D01*
X128463523Y-106740476D01*
X128511904Y-106643714D01*
X128560285Y-106450190D01*
X128560285Y-106305047D01*
X128511904Y-106111523D01*
X128463523Y-106014761D01*
X128366761Y-105918000D01*
X128221619Y-105869619D01*
X128124857Y-105869619D01*
X127979714Y-105918000D01*
X127931333Y-105966380D01*
X129576285Y-108663619D02*
X129576285Y-107647619D01*
X128995714Y-108663619D01*
X128995714Y-107647619D01*
X127931333Y-108566857D02*
X127979714Y-108615238D01*
X128124857Y-108663619D01*
X128221619Y-108663619D01*
X128366761Y-108615238D01*
X128463523Y-108518476D01*
X128511904Y-108421714D01*
X128560285Y-108228190D01*
X128560285Y-108083047D01*
X128511904Y-107889523D01*
X128463523Y-107792761D01*
X128366761Y-107696000D01*
X128221619Y-107647619D01*
X128124857Y-107647619D01*
X127979714Y-107696000D01*
X127931333Y-107744380D01*
X129576285Y-110441619D02*
X129576285Y-109425619D01*
X128995714Y-110441619D01*
X128995714Y-109425619D01*
X127931333Y-110344857D02*
X127979714Y-110393238D01*
X128124857Y-110441619D01*
X128221619Y-110441619D01*
X128366761Y-110393238D01*
X128463523Y-110296476D01*
X128511904Y-110199714D01*
X128560285Y-110006190D01*
X128560285Y-109861047D01*
X128511904Y-109667523D01*
X128463523Y-109570761D01*
X128366761Y-109474000D01*
X128221619Y-109425619D01*
X128124857Y-109425619D01*
X127979714Y-109474000D01*
X127931333Y-109522380D01*
X129310190Y-112171238D02*
X129165047Y-112219619D01*
X128923142Y-112219619D01*
X128826380Y-112171238D01*
X128778000Y-112122857D01*
X128729619Y-112026095D01*
X128729619Y-111929333D01*
X128778000Y-111832571D01*
X128826380Y-111784190D01*
X128923142Y-111735809D01*
X129116666Y-111687428D01*
X129213428Y-111639047D01*
X129261809Y-111590666D01*
X129310190Y-111493904D01*
X129310190Y-111397142D01*
X129261809Y-111300380D01*
X129213428Y-111252000D01*
X129116666Y-111203619D01*
X128874761Y-111203619D01*
X128729619Y-111252000D01*
X128294190Y-112219619D02*
X128294190Y-111203619D01*
X137764761Y-104575428D02*
X138103428Y-104575428D01*
X138103428Y-105107619D02*
X138103428Y-104091619D01*
X137619619Y-104091619D01*
X137232571Y-105107619D02*
X137232571Y-104091619D01*
X137353523Y-106885619D02*
X137837333Y-106885619D01*
X137837333Y-105869619D01*
X137353523Y-108663619D02*
X137837333Y-108663619D01*
X137837333Y-107647619D01*
X137958285Y-110441619D02*
X137958285Y-109425619D01*
X137958285Y-109909428D02*
X137377714Y-109909428D01*
X137377714Y-110441619D02*
X137377714Y-109425619D01*
X137958285Y-112219619D02*
X137958285Y-111203619D01*
X137958285Y-111687428D02*
X137377714Y-111687428D01*
X137377714Y-112219619D02*
X137377714Y-111203619D01*
X140232190Y-105059238D02*
X140087047Y-105107619D01*
X139845142Y-105107619D01*
X139748380Y-105059238D01*
X139700000Y-105010857D01*
X139651619Y-104914095D01*
X139651619Y-104817333D01*
X139700000Y-104720571D01*
X139748380Y-104672190D01*
X139845142Y-104623809D01*
X140038666Y-104575428D01*
X140135428Y-104527047D01*
X140183809Y-104478666D01*
X140232190Y-104381904D01*
X140232190Y-104285142D01*
X140183809Y-104188380D01*
X140135428Y-104140000D01*
X140038666Y-104091619D01*
X139796761Y-104091619D01*
X139651619Y-104140000D01*
X139216190Y-105107619D02*
X139216190Y-104091619D01*
X139385523Y-106885619D02*
X139869333Y-106885619D01*
X139869333Y-105869619D01*
X139990285Y-108663619D02*
X139990285Y-107647619D01*
X139990285Y-108131428D02*
X139409714Y-108131428D01*
X139409714Y-108663619D02*
X139409714Y-107647619D01*
X139385523Y-110441619D02*
X139869333Y-110441619D01*
X139869333Y-109425619D01*
X139990285Y-112219619D02*
X139990285Y-111203619D01*
X139990285Y-111687428D02*
X139409714Y-111687428D01*
X139409714Y-112219619D02*
X139409714Y-111203619D01*
X165571714Y-107901619D02*
X165329809Y-108917619D01*
X165136285Y-108191904D01*
X164942761Y-108917619D01*
X164700857Y-107901619D01*
X164313809Y-108917619D02*
X164313809Y-108240285D01*
X164313809Y-107901619D02*
X164362190Y-107950000D01*
X164313809Y-107998380D01*
X164265428Y-107950000D01*
X164313809Y-107901619D01*
X164313809Y-107998380D01*
X163830000Y-108240285D02*
X163830000Y-109256285D01*
X163830000Y-108288666D02*
X163733238Y-108240285D01*
X163539714Y-108240285D01*
X163442952Y-108288666D01*
X163394571Y-108337047D01*
X163346190Y-108433809D01*
X163346190Y-108724095D01*
X163394571Y-108820857D01*
X163442952Y-108869238D01*
X163539714Y-108917619D01*
X163733238Y-108917619D01*
X163830000Y-108869238D01*
X162523714Y-108869238D02*
X162620476Y-108917619D01*
X162814000Y-108917619D01*
X162910761Y-108869238D01*
X162959142Y-108772476D01*
X162959142Y-108385428D01*
X162910761Y-108288666D01*
X162814000Y-108240285D01*
X162620476Y-108240285D01*
X162523714Y-108288666D01*
X162475333Y-108385428D01*
X162475333Y-108482190D01*
X162959142Y-108578952D01*
X162039904Y-108917619D02*
X162039904Y-108240285D01*
X162039904Y-108433809D02*
X161991523Y-108337047D01*
X161943142Y-108288666D01*
X161846380Y-108240285D01*
X161749619Y-108240285D01*
X161410952Y-108917619D02*
X161410952Y-107901619D01*
X161072285Y-108627333D01*
X160733619Y-107901619D01*
X160733619Y-108917619D01*
X160104666Y-108917619D02*
X160201428Y-108869238D01*
X160249809Y-108820857D01*
X160298190Y-108724095D01*
X160298190Y-108433809D01*
X160249809Y-108337047D01*
X160201428Y-108288666D01*
X160104666Y-108240285D01*
X159959523Y-108240285D01*
X159862761Y-108288666D01*
X159814380Y-108337047D01*
X159766000Y-108433809D01*
X159766000Y-108724095D01*
X159814380Y-108820857D01*
X159862761Y-108869238D01*
X159959523Y-108917619D01*
X160104666Y-108917619D01*
X158895142Y-108917619D02*
X158895142Y-107901619D01*
X158895142Y-108869238D02*
X158991904Y-108917619D01*
X159185428Y-108917619D01*
X159282190Y-108869238D01*
X159330571Y-108820857D01*
X159378952Y-108724095D01*
X159378952Y-108433809D01*
X159330571Y-108337047D01*
X159282190Y-108288666D01*
X159185428Y-108240285D01*
X158991904Y-108240285D01*
X158895142Y-108288666D01*
X157975904Y-108240285D02*
X157975904Y-108917619D01*
X158411333Y-108240285D02*
X158411333Y-108772476D01*
X158362952Y-108869238D01*
X158266190Y-108917619D01*
X158121047Y-108917619D01*
X158024285Y-108869238D01*
X157975904Y-108820857D01*
X157346952Y-108917619D02*
X157443714Y-108869238D01*
X157492095Y-108772476D01*
X157492095Y-107901619D01*
X156572857Y-108869238D02*
X156669619Y-108917619D01*
X156863142Y-108917619D01*
X156959904Y-108869238D01*
X157008285Y-108772476D01*
X157008285Y-108385428D01*
X156959904Y-108288666D01*
X156863142Y-108240285D01*
X156669619Y-108240285D01*
X156572857Y-108288666D01*
X156524476Y-108385428D01*
X156524476Y-108482190D01*
X157008285Y-108578952D01*
X155411714Y-108240285D02*
X155169809Y-108917619D01*
X154927904Y-108240285D01*
X154008666Y-108917619D02*
X154589238Y-108917619D01*
X154298952Y-108917619D02*
X154298952Y-107901619D01*
X154395714Y-108046761D01*
X154492476Y-108143523D01*
X154589238Y-108191904D01*
D12*
G36*
X155276011Y-102459642D02*
G01*
X155189454Y-102491440D01*
X155069822Y-102545079D01*
X155056952Y-102551105D01*
X154944901Y-102599930D01*
X154826586Y-102645617D01*
X154730450Y-102677402D01*
X154639320Y-102709623D01*
X154590945Y-102741285D01*
X154584400Y-102756409D01*
X154606416Y-102783580D01*
X154665049Y-102793415D01*
X154749173Y-102785940D01*
X154847667Y-102761186D01*
X154863800Y-102755700D01*
X154976279Y-102725158D01*
X155072917Y-102724629D01*
X155175466Y-102755647D01*
X155232100Y-102781662D01*
X155361637Y-102831711D01*
X155464533Y-102841933D01*
X155538814Y-102812290D01*
X155560860Y-102788148D01*
X155596161Y-102700133D01*
X155594049Y-102685004D01*
X155420025Y-102685004D01*
X155394574Y-102679675D01*
X155389755Y-102677866D01*
X155358652Y-102657745D01*
X155358428Y-102646305D01*
X155385298Y-102649154D01*
X155403974Y-102663648D01*
X155420025Y-102685004D01*
X155594049Y-102685004D01*
X155583889Y-102612258D01*
X155526764Y-102531818D01*
X155443723Y-102474087D01*
X155392497Y-102453087D01*
X155340143Y-102447565D01*
X155276011Y-102459642D01*
G37*
X155276011Y-102459642D02*
X155189454Y-102491440D01*
X155069822Y-102545079D01*
X155056952Y-102551105D01*
X154944901Y-102599930D01*
X154826586Y-102645617D01*
X154730450Y-102677402D01*
X154639320Y-102709623D01*
X154590945Y-102741285D01*
X154584400Y-102756409D01*
X154606416Y-102783580D01*
X154665049Y-102793415D01*
X154749173Y-102785940D01*
X154847667Y-102761186D01*
X154863800Y-102755700D01*
X154976279Y-102725158D01*
X155072917Y-102724629D01*
X155175466Y-102755647D01*
X155232100Y-102781662D01*
X155361637Y-102831711D01*
X155464533Y-102841933D01*
X155538814Y-102812290D01*
X155560860Y-102788148D01*
X155596161Y-102700133D01*
X155594049Y-102685004D01*
X155420025Y-102685004D01*
X155394574Y-102679675D01*
X155389755Y-102677866D01*
X155358652Y-102657745D01*
X155358428Y-102646305D01*
X155385298Y-102649154D01*
X155403974Y-102663648D01*
X155420025Y-102685004D01*
X155594049Y-102685004D01*
X155583889Y-102612258D01*
X155526764Y-102531818D01*
X155443723Y-102474087D01*
X155392497Y-102453087D01*
X155340143Y-102447565D01*
X155276011Y-102459642D01*
G36*
X159695110Y-102738327D02*
G01*
X159657112Y-102743532D01*
X159513636Y-102773948D01*
X159413464Y-102821495D01*
X159350116Y-102893187D01*
X159317111Y-102996036D01*
X159307993Y-103121440D01*
X159299547Y-103203856D01*
X159279313Y-103271404D01*
X159269893Y-103287604D01*
X159234996Y-103367984D01*
X159244446Y-103448872D01*
X159292217Y-103524221D01*
X159372279Y-103587987D01*
X159478606Y-103634125D01*
X159605170Y-103656587D01*
X159639000Y-103657794D01*
X159707969Y-103666714D01*
X159803541Y-103689457D01*
X159905100Y-103721112D01*
X159905700Y-103721325D01*
X160009642Y-103757191D01*
X160078088Y-103776400D01*
X160123253Y-103779738D01*
X160157352Y-103767991D01*
X160192600Y-103741945D01*
X160195012Y-103739950D01*
X160220746Y-103710940D01*
X160239826Y-103666685D01*
X160254896Y-103596910D01*
X160268602Y-103491339D01*
X160275089Y-103428800D01*
X160289349Y-103296381D01*
X160305604Y-103163049D01*
X160321284Y-103049274D01*
X160328314Y-103004889D01*
X160329389Y-102996630D01*
X160126921Y-102996630D01*
X160108663Y-103206365D01*
X160091608Y-103351710D01*
X160069524Y-103448116D01*
X160041541Y-103497274D01*
X160006785Y-103500875D01*
X159972344Y-103470687D01*
X159951901Y-103425889D01*
X159933392Y-103352675D01*
X159931047Y-103338469D01*
X159814588Y-103338469D01*
X159804550Y-103402612D01*
X159760921Y-103450575D01*
X159692254Y-103475925D01*
X159607099Y-103472228D01*
X159539406Y-103447475D01*
X159482544Y-103407270D01*
X159472196Y-103362279D01*
X159506961Y-103302590D01*
X159517165Y-103290374D01*
X159585286Y-103239161D01*
X159664773Y-103218581D01*
X159738577Y-103230290D01*
X159782486Y-103264581D01*
X159814588Y-103338469D01*
X159931047Y-103338469D01*
X159927521Y-103317120D01*
X159896758Y-103196223D01*
X159840237Y-103115835D01*
X159752759Y-103070011D01*
X159701798Y-103059067D01*
X159623104Y-103042244D01*
X159592866Y-103020198D01*
X159608758Y-102988904D01*
X159644652Y-102960340D01*
X159718518Y-102932076D01*
X159820592Y-102922076D01*
X159931649Y-102930421D01*
X160032464Y-102957191D01*
X160036176Y-102958715D01*
X160126921Y-102996630D01*
X160329389Y-102996630D01*
X160339649Y-102917844D01*
X160342221Y-102849368D01*
X160336850Y-102818148D01*
X160279989Y-102771047D01*
X160180859Y-102738798D01*
X160045986Y-102722118D01*
X159881895Y-102721722D01*
X159695110Y-102738327D01*
G37*
X159695110Y-102738327D02*
X159657112Y-102743532D01*
X159513636Y-102773948D01*
X159413464Y-102821495D01*
X159350116Y-102893187D01*
X159317111Y-102996036D01*
X159307993Y-103121440D01*
X159299547Y-103203856D01*
X159279313Y-103271404D01*
X159269893Y-103287604D01*
X159234996Y-103367984D01*
X159244446Y-103448872D01*
X159292217Y-103524221D01*
X159372279Y-103587987D01*
X159478606Y-103634125D01*
X159605170Y-103656587D01*
X159639000Y-103657794D01*
X159707969Y-103666714D01*
X159803541Y-103689457D01*
X159905100Y-103721112D01*
X159905700Y-103721325D01*
X160009642Y-103757191D01*
X160078088Y-103776400D01*
X160123253Y-103779738D01*
X160157352Y-103767991D01*
X160192600Y-103741945D01*
X160195012Y-103739950D01*
X160220746Y-103710940D01*
X160239826Y-103666685D01*
X160254896Y-103596910D01*
X160268602Y-103491339D01*
X160275089Y-103428800D01*
X160289349Y-103296381D01*
X160305604Y-103163049D01*
X160321284Y-103049274D01*
X160328314Y-103004889D01*
X160329389Y-102996630D01*
X160126921Y-102996630D01*
X160108663Y-103206365D01*
X160091608Y-103351710D01*
X160069524Y-103448116D01*
X160041541Y-103497274D01*
X160006785Y-103500875D01*
X159972344Y-103470687D01*
X159951901Y-103425889D01*
X159933392Y-103352675D01*
X159931047Y-103338469D01*
X159814588Y-103338469D01*
X159804550Y-103402612D01*
X159760921Y-103450575D01*
X159692254Y-103475925D01*
X159607099Y-103472228D01*
X159539406Y-103447475D01*
X159482544Y-103407270D01*
X159472196Y-103362279D01*
X159506961Y-103302590D01*
X159517165Y-103290374D01*
X159585286Y-103239161D01*
X159664773Y-103218581D01*
X159738577Y-103230290D01*
X159782486Y-103264581D01*
X159814588Y-103338469D01*
X159931047Y-103338469D01*
X159927521Y-103317120D01*
X159896758Y-103196223D01*
X159840237Y-103115835D01*
X159752759Y-103070011D01*
X159701798Y-103059067D01*
X159623104Y-103042244D01*
X159592866Y-103020198D01*
X159608758Y-102988904D01*
X159644652Y-102960340D01*
X159718518Y-102932076D01*
X159820592Y-102922076D01*
X159931649Y-102930421D01*
X160032464Y-102957191D01*
X160036176Y-102958715D01*
X160126921Y-102996630D01*
X160329389Y-102996630D01*
X160339649Y-102917844D01*
X160342221Y-102849368D01*
X160336850Y-102818148D01*
X160279989Y-102771047D01*
X160180859Y-102738798D01*
X160045986Y-102722118D01*
X159881895Y-102721722D01*
X159695110Y-102738327D01*
G36*
X164719000Y-103347950D02*
G01*
X164655504Y-103355034D01*
X164568462Y-103363629D01*
X164528500Y-103367286D01*
X164309164Y-103388305D01*
X164132959Y-103409419D01*
X163992255Y-103432610D01*
X163879420Y-103459862D01*
X163786820Y-103493158D01*
X163706823Y-103534483D01*
X163631799Y-103585819D01*
X163604026Y-103607543D01*
X163516318Y-103700965D01*
X163444184Y-103830091D01*
X163384672Y-104000817D01*
X163361543Y-104091409D01*
X163342991Y-104183297D01*
X163337219Y-104259920D01*
X163344214Y-104343522D01*
X163361346Y-104442748D01*
X163385723Y-104587015D01*
X163393300Y-104685065D01*
X163382276Y-104739218D01*
X163350847Y-104751792D01*
X163297210Y-104725107D01*
X163219564Y-104661482D01*
X163203048Y-104646423D01*
X163125321Y-104582618D01*
X163064961Y-104553704D01*
X163022625Y-104551173D01*
X162963877Y-104570389D01*
X162951343Y-104607690D01*
X162984597Y-104661028D01*
X163058756Y-104725089D01*
X163133259Y-104780091D01*
X163197533Y-104827669D01*
X163226041Y-104848860D01*
X163278561Y-104873543D01*
X163358671Y-104896374D01*
X163405599Y-104905432D01*
X163496302Y-104929935D01*
X163590714Y-104971365D01*
X163674052Y-105021406D01*
X163731534Y-105071738D01*
X163747152Y-105097633D01*
X163737363Y-105134955D01*
X163704712Y-105173128D01*
X163664985Y-105224052D01*
X163652200Y-105266697D01*
X163657346Y-105295122D01*
X163681278Y-105305565D01*
X163736741Y-105301057D01*
X163772850Y-105295376D01*
X163873100Y-105285060D01*
X164000801Y-105280689D01*
X164140252Y-105281845D01*
X164275749Y-105288113D01*
X164391589Y-105299076D01*
X164470544Y-105313869D01*
X164542896Y-105328032D01*
X164591684Y-105316122D01*
X164622276Y-105271562D01*
X164640039Y-105187779D01*
X164648100Y-105096324D01*
X164657671Y-104978549D01*
X164670675Y-104906390D01*
X164690947Y-104874660D01*
X164722324Y-104878176D01*
X164768640Y-104911754D01*
X164778410Y-104920197D01*
X164846345Y-104974321D01*
X164934004Y-105037325D01*
X164990894Y-105075205D01*
X165084896Y-105146327D01*
X165138834Y-105216436D01*
X165151354Y-105246576D01*
X165199331Y-105334528D01*
X165269299Y-105392573D01*
X165337006Y-105410000D01*
X165369302Y-105401848D01*
X165372469Y-105367921D01*
X165365871Y-105340150D01*
X165346844Y-105247287D01*
X165352676Y-105188183D01*
X165384915Y-105151462D01*
X165392100Y-105147194D01*
X165478572Y-105098841D01*
X165527722Y-105068015D01*
X165546520Y-105047372D01*
X165541938Y-105029568D01*
X165522982Y-105009295D01*
X165486517Y-104985295D01*
X165435369Y-104982617D01*
X165373997Y-104993960D01*
X165222252Y-105005232D01*
X165083001Y-104967313D01*
X164956416Y-104880294D01*
X164842671Y-104744267D01*
X164812592Y-104696475D01*
X164716528Y-104534625D01*
X164736614Y-104333703D01*
X164541200Y-104333703D01*
X164537199Y-104440068D01*
X164526371Y-104564576D01*
X164510478Y-104695540D01*
X164491284Y-104821269D01*
X164470552Y-104930075D01*
X164450045Y-105010268D01*
X164433456Y-105048050D01*
X164392709Y-105066978D01*
X164314777Y-105077993D01*
X164259174Y-105079800D01*
X164175150Y-105078051D01*
X164128376Y-105069195D01*
X164105331Y-105047819D01*
X164093746Y-105013571D01*
X164087348Y-104950625D01*
X164087700Y-104853361D01*
X164093624Y-104737642D01*
X164103941Y-104619326D01*
X164117473Y-104514276D01*
X164133043Y-104438352D01*
X164137475Y-104424818D01*
X164205850Y-104312897D01*
X164316416Y-104218440D01*
X164368739Y-104188328D01*
X164448936Y-104150553D01*
X164499507Y-104140800D01*
X164527226Y-104164778D01*
X164538865Y-104228197D01*
X164541200Y-104333703D01*
X164736614Y-104333703D01*
X164743279Y-104267042D01*
X164755346Y-104126866D01*
X164764997Y-103978232D01*
X164770779Y-103845173D01*
X164771733Y-103796679D01*
X164772261Y-103753761D01*
X164571901Y-103753761D01*
X164566987Y-103831822D01*
X164534184Y-103887864D01*
X164469090Y-103934419D01*
X164445950Y-103946711D01*
X164258253Y-104058198D01*
X164116825Y-104180652D01*
X164017293Y-104321055D01*
X163955282Y-104486389D01*
X163926418Y-104683637D01*
X163923099Y-104781350D01*
X163917941Y-104872459D01*
X163900259Y-104917895D01*
X163864347Y-104919615D01*
X163804500Y-104879572D01*
X163756910Y-104838287D01*
X163644359Y-104703017D01*
X163571502Y-104538184D01*
X163540040Y-104347941D01*
X163538851Y-104305100D01*
X163556733Y-104112107D01*
X163613300Y-103950029D01*
X163709581Y-103817818D01*
X163846608Y-103714429D01*
X164025412Y-103638813D01*
X164242631Y-103590578D01*
X164369809Y-103573812D01*
X164455988Y-103569546D01*
X164509742Y-103579176D01*
X164539643Y-103604095D01*
X164553332Y-103641151D01*
X164571901Y-103753761D01*
X164772261Y-103753761D01*
X164773182Y-103678994D01*
X164775378Y-103561970D01*
X164777855Y-103470113D01*
X164777968Y-103466900D01*
X164778988Y-103391987D01*
X164771016Y-103355625D01*
X164748022Y-103345650D01*
X164719000Y-103347950D01*
G37*
X164719000Y-103347950D02*
X164655504Y-103355034D01*
X164568462Y-103363629D01*
X164528500Y-103367286D01*
X164309164Y-103388305D01*
X164132959Y-103409419D01*
X163992255Y-103432610D01*
X163879420Y-103459862D01*
X163786820Y-103493158D01*
X163706823Y-103534483D01*
X163631799Y-103585819D01*
X163604026Y-103607543D01*
X163516318Y-103700965D01*
X163444184Y-103830091D01*
X163384672Y-104000817D01*
X163361543Y-104091409D01*
X163342991Y-104183297D01*
X163337219Y-104259920D01*
X163344214Y-104343522D01*
X163361346Y-104442748D01*
X163385723Y-104587015D01*
X163393300Y-104685065D01*
X163382276Y-104739218D01*
X163350847Y-104751792D01*
X163297210Y-104725107D01*
X163219564Y-104661482D01*
X163203048Y-104646423D01*
X163125321Y-104582618D01*
X163064961Y-104553704D01*
X163022625Y-104551173D01*
X162963877Y-104570389D01*
X162951343Y-104607690D01*
X162984597Y-104661028D01*
X163058756Y-104725089D01*
X163133259Y-104780091D01*
X163197533Y-104827669D01*
X163226041Y-104848860D01*
X163278561Y-104873543D01*
X163358671Y-104896374D01*
X163405599Y-104905432D01*
X163496302Y-104929935D01*
X163590714Y-104971365D01*
X163674052Y-105021406D01*
X163731534Y-105071738D01*
X163747152Y-105097633D01*
X163737363Y-105134955D01*
X163704712Y-105173128D01*
X163664985Y-105224052D01*
X163652200Y-105266697D01*
X163657346Y-105295122D01*
X163681278Y-105305565D01*
X163736741Y-105301057D01*
X163772850Y-105295376D01*
X163873100Y-105285060D01*
X164000801Y-105280689D01*
X164140252Y-105281845D01*
X164275749Y-105288113D01*
X164391589Y-105299076D01*
X164470544Y-105313869D01*
X164542896Y-105328032D01*
X164591684Y-105316122D01*
X164622276Y-105271562D01*
X164640039Y-105187779D01*
X164648100Y-105096324D01*
X164657671Y-104978549D01*
X164670675Y-104906390D01*
X164690947Y-104874660D01*
X164722324Y-104878176D01*
X164768640Y-104911754D01*
X164778410Y-104920197D01*
X164846345Y-104974321D01*
X164934004Y-105037325D01*
X164990894Y-105075205D01*
X165084896Y-105146327D01*
X165138834Y-105216436D01*
X165151354Y-105246576D01*
X165199331Y-105334528D01*
X165269299Y-105392573D01*
X165337006Y-105410000D01*
X165369302Y-105401848D01*
X165372469Y-105367921D01*
X165365871Y-105340150D01*
X165346844Y-105247287D01*
X165352676Y-105188183D01*
X165384915Y-105151462D01*
X165392100Y-105147194D01*
X165478572Y-105098841D01*
X165527722Y-105068015D01*
X165546520Y-105047372D01*
X165541938Y-105029568D01*
X165522982Y-105009295D01*
X165486517Y-104985295D01*
X165435369Y-104982617D01*
X165373997Y-104993960D01*
X165222252Y-105005232D01*
X165083001Y-104967313D01*
X164956416Y-104880294D01*
X164842671Y-104744267D01*
X164812592Y-104696475D01*
X164716528Y-104534625D01*
X164736614Y-104333703D01*
X164541200Y-104333703D01*
X164537199Y-104440068D01*
X164526371Y-104564576D01*
X164510478Y-104695540D01*
X164491284Y-104821269D01*
X164470552Y-104930075D01*
X164450045Y-105010268D01*
X164433456Y-105048050D01*
X164392709Y-105066978D01*
X164314777Y-105077993D01*
X164259174Y-105079800D01*
X164175150Y-105078051D01*
X164128376Y-105069195D01*
X164105331Y-105047819D01*
X164093746Y-105013571D01*
X164087348Y-104950625D01*
X164087700Y-104853361D01*
X164093624Y-104737642D01*
X164103941Y-104619326D01*
X164117473Y-104514276D01*
X164133043Y-104438352D01*
X164137475Y-104424818D01*
X164205850Y-104312897D01*
X164316416Y-104218440D01*
X164368739Y-104188328D01*
X164448936Y-104150553D01*
X164499507Y-104140800D01*
X164527226Y-104164778D01*
X164538865Y-104228197D01*
X164541200Y-104333703D01*
X164736614Y-104333703D01*
X164743279Y-104267042D01*
X164755346Y-104126866D01*
X164764997Y-103978232D01*
X164770779Y-103845173D01*
X164771733Y-103796679D01*
X164772261Y-103753761D01*
X164571901Y-103753761D01*
X164566987Y-103831822D01*
X164534184Y-103887864D01*
X164469090Y-103934419D01*
X164445950Y-103946711D01*
X164258253Y-104058198D01*
X164116825Y-104180652D01*
X164017293Y-104321055D01*
X163955282Y-104486389D01*
X163926418Y-104683637D01*
X163923099Y-104781350D01*
X163917941Y-104872459D01*
X163900259Y-104917895D01*
X163864347Y-104919615D01*
X163804500Y-104879572D01*
X163756910Y-104838287D01*
X163644359Y-104703017D01*
X163571502Y-104538184D01*
X163540040Y-104347941D01*
X163538851Y-104305100D01*
X163556733Y-104112107D01*
X163613300Y-103950029D01*
X163709581Y-103817818D01*
X163846608Y-103714429D01*
X164025412Y-103638813D01*
X164242631Y-103590578D01*
X164369809Y-103573812D01*
X164455988Y-103569546D01*
X164509742Y-103579176D01*
X164539643Y-103604095D01*
X164553332Y-103641151D01*
X164571901Y-103753761D01*
X164772261Y-103753761D01*
X164773182Y-103678994D01*
X164775378Y-103561970D01*
X164777855Y-103470113D01*
X164777968Y-103466900D01*
X164778988Y-103391987D01*
X164771016Y-103355625D01*
X164748022Y-103345650D01*
X164719000Y-103347950D01*
G36*
X152487487Y-101740329D02*
G01*
X152414517Y-101763767D01*
X152374173Y-101780405D01*
X152277933Y-101832436D01*
X152208533Y-101898168D01*
X152163561Y-101984622D01*
X152140604Y-102098821D01*
X152137247Y-102247787D01*
X152150377Y-102431550D01*
X152162243Y-102560522D01*
X152167055Y-102655467D01*
X152163841Y-102732797D01*
X152151632Y-102808919D01*
X152129459Y-102900243D01*
X152120742Y-102932971D01*
X152086202Y-103083869D01*
X152072808Y-103214302D01*
X152082313Y-103337981D01*
X152116469Y-103468617D01*
X152177028Y-103619920D01*
X152220460Y-103713244D01*
X152291455Y-103853414D01*
X152358151Y-103964129D01*
X152433184Y-104063830D01*
X152529194Y-104170955D01*
X152546947Y-104189600D01*
X152742900Y-104394212D01*
X152925236Y-104394106D01*
X153040131Y-104397417D01*
X153115471Y-104413196D01*
X153158669Y-104449968D01*
X153177136Y-104516258D01*
X153178287Y-104620593D01*
X153175169Y-104681572D01*
X153168904Y-104794564D01*
X153161529Y-104937841D01*
X153154075Y-105090930D01*
X153148960Y-105201982D01*
X153138349Y-105361180D01*
X153121014Y-105538141D01*
X153099725Y-105706914D01*
X153085262Y-105798882D01*
X153056752Y-105992243D01*
X153040463Y-106171610D01*
X153036693Y-106327730D01*
X153045742Y-106451350D01*
X153062016Y-106519596D01*
X153129411Y-106631024D01*
X153239733Y-106719687D01*
X153385853Y-106784246D01*
X153513595Y-106839739D01*
X153671107Y-106931414D01*
X153846261Y-107050310D01*
X153995671Y-107153252D01*
X154113988Y-107225663D01*
X154207670Y-107271225D01*
X154267822Y-107290499D01*
X154349492Y-107309775D01*
X154461503Y-107336848D01*
X154584930Y-107367125D01*
X154639882Y-107380753D01*
X154756944Y-107409721D01*
X154838982Y-107427715D01*
X154900405Y-107435477D01*
X154955621Y-107433747D01*
X155019036Y-107423269D01*
X155105059Y-107404783D01*
X155105360Y-107404718D01*
X155210726Y-107375240D01*
X155337596Y-107329814D01*
X155474772Y-107273582D01*
X155611054Y-107211687D01*
X155735244Y-107149270D01*
X155836142Y-107091474D01*
X155902549Y-107043440D01*
X155911550Y-107034549D01*
X155956771Y-106971948D01*
X155980666Y-106912715D01*
X155981765Y-106901849D01*
X155982152Y-106862011D01*
X155983057Y-106778663D01*
X155984398Y-106659088D01*
X155986092Y-106510572D01*
X155988056Y-106340401D01*
X155990169Y-106159300D01*
X155991593Y-105969740D01*
X155991452Y-105789919D01*
X155989868Y-105628208D01*
X155986963Y-105492976D01*
X155982859Y-105392592D01*
X155978214Y-105338784D01*
X155970528Y-105263137D01*
X155963524Y-105150607D01*
X155957881Y-105015111D01*
X155954277Y-104870566D01*
X155953810Y-104837712D01*
X155952913Y-104672613D01*
X155957177Y-104550495D01*
X155970210Y-104463560D01*
X155995618Y-104404013D01*
X156037008Y-104364058D01*
X156097985Y-104335899D01*
X156182156Y-104311739D01*
X156199100Y-104307452D01*
X156297918Y-104279854D01*
X156386703Y-104250316D01*
X156440859Y-104227731D01*
X156509967Y-104206493D01*
X156610469Y-104193361D01*
X156684989Y-104190551D01*
X156843205Y-104173553D01*
X156990917Y-104126725D01*
X157119006Y-104055628D01*
X157218351Y-103965823D01*
X157279832Y-103862871D01*
X157291505Y-103820748D01*
X157292220Y-103810447D01*
X157100662Y-103810447D01*
X157039575Y-103871534D01*
X156946742Y-103933306D01*
X156819600Y-103973363D01*
X156674130Y-103987458D01*
X156591969Y-103996845D01*
X156488699Y-104021038D01*
X156407430Y-104047409D01*
X156301945Y-104082634D01*
X156194202Y-104111773D01*
X156127571Y-104125147D01*
X155992199Y-104169085D01*
X155884091Y-104253955D01*
X155820867Y-104349863D01*
X155807253Y-104386104D01*
X155797639Y-104433494D01*
X155791700Y-104499419D01*
X155789113Y-104591268D01*
X155789555Y-104716429D01*
X155792701Y-104882292D01*
X155794434Y-104953408D01*
X155801193Y-105258144D01*
X155805812Y-105549925D01*
X155808334Y-105824290D01*
X155808798Y-106076779D01*
X155807247Y-106302932D01*
X155803722Y-106498290D01*
X155798264Y-106658393D01*
X155790913Y-106778781D01*
X155781713Y-106854994D01*
X155776669Y-106874529D01*
X155740187Y-106920655D01*
X155661346Y-106973644D01*
X155556416Y-107026868D01*
X155354647Y-107116968D01*
X155188812Y-107181184D01*
X155052040Y-107220987D01*
X154937462Y-107237848D01*
X154838206Y-107233239D01*
X154747401Y-107208630D01*
X154733552Y-107203084D01*
X154669228Y-107182465D01*
X154572123Y-107158508D01*
X154459698Y-107135376D01*
X154419300Y-107128132D01*
X154305302Y-107106671D01*
X154228613Y-107085892D01*
X154176077Y-107060632D01*
X154134541Y-107025732D01*
X154120850Y-107011047D01*
X154074569Y-106953662D01*
X154054527Y-106909814D01*
X154064678Y-106877753D01*
X154108974Y-106855734D01*
X154191369Y-106842009D01*
X154315816Y-106834831D01*
X154486270Y-106832453D01*
X154525087Y-106832400D01*
X154667204Y-106831021D01*
X154769654Y-106826016D01*
X154843516Y-106816086D01*
X154899869Y-106799928D01*
X154934662Y-106784302D01*
X155044041Y-106711660D01*
X155124065Y-106617525D01*
X155176301Y-106496842D01*
X155202316Y-106344552D01*
X155203678Y-106155599D01*
X155187386Y-105968800D01*
X155170399Y-105756345D01*
X155172339Y-105573943D01*
X155176974Y-105524300D01*
X155182905Y-105439590D01*
X155186241Y-105315677D01*
X155187195Y-105163048D01*
X155185986Y-104992194D01*
X155182827Y-104813604D01*
X155177936Y-104637767D01*
X155171529Y-104475174D01*
X155163820Y-104336312D01*
X155155027Y-104231673D01*
X155149516Y-104190800D01*
X155136617Y-104072327D01*
X155146970Y-103994487D01*
X155181383Y-103952337D01*
X155189136Y-103948592D01*
X155255470Y-103928653D01*
X155358519Y-103906404D01*
X155484398Y-103884009D01*
X155619217Y-103863632D01*
X155749092Y-103847437D01*
X155860134Y-103837589D01*
X155914062Y-103835617D01*
X156063333Y-103825115D01*
X156175910Y-103791026D01*
X156262421Y-103728244D01*
X156331517Y-103635044D01*
X156400500Y-103517700D01*
X156400500Y-103029744D01*
X156203030Y-103029744D01*
X156200899Y-103172664D01*
X156196363Y-103292808D01*
X156189282Y-103380979D01*
X156181672Y-103422371D01*
X156129949Y-103513493D01*
X156049114Y-103566627D01*
X155945639Y-103580038D01*
X155825992Y-103551995D01*
X155778200Y-103530400D01*
X155701315Y-103494078D01*
X155650549Y-103485040D01*
X155607491Y-103506123D01*
X155553729Y-103560163D01*
X155548617Y-103565773D01*
X155491073Y-103619537D01*
X155429036Y-103650149D01*
X155340824Y-103667712D01*
X155325751Y-103669631D01*
X155170897Y-103699744D01*
X155060130Y-103750086D01*
X154989057Y-103826176D01*
X154953286Y-103933532D01*
X154948427Y-104077673D01*
X154953206Y-104137740D01*
X154958808Y-104218451D01*
X154963593Y-104337361D01*
X154967565Y-104488156D01*
X154970726Y-104664521D01*
X154973079Y-104860139D01*
X154974627Y-105068697D01*
X154975371Y-105283880D01*
X154975316Y-105499371D01*
X154974463Y-105708857D01*
X154972816Y-105906021D01*
X154970376Y-106084549D01*
X154967148Y-106238126D01*
X154963133Y-106360437D01*
X154958334Y-106445167D01*
X154952754Y-106486000D01*
X154952200Y-106487334D01*
X154930443Y-106521711D01*
X154899489Y-106548011D01*
X154852820Y-106567329D01*
X154783920Y-106580762D01*
X154686272Y-106589407D01*
X154553360Y-106594360D01*
X154378666Y-106596718D01*
X154299491Y-106597163D01*
X154113312Y-106597254D01*
X153968435Y-106595287D01*
X153855385Y-106590619D01*
X153764686Y-106582603D01*
X153686859Y-106570596D01*
X153612428Y-106553952D01*
X153593800Y-106549138D01*
X153461713Y-106507604D01*
X153372799Y-106460064D01*
X153319469Y-106398518D01*
X153294137Y-106314966D01*
X153288931Y-106227733D01*
X153291378Y-106139131D01*
X153298016Y-106018996D01*
X153307688Y-105886313D01*
X153314331Y-105810050D01*
X153328482Y-105658538D01*
X153344708Y-105485117D01*
X153360326Y-105318453D01*
X153366303Y-105254763D01*
X153385362Y-105079458D01*
X153406494Y-104933434D01*
X153428634Y-104822010D01*
X153450717Y-104750504D01*
X153471682Y-104724234D01*
X153472424Y-104724200D01*
X153508636Y-104734956D01*
X153565900Y-104761018D01*
X153569294Y-104762761D01*
X153638344Y-104824315D01*
X153667073Y-104911902D01*
X153659717Y-104990315D01*
X153655761Y-105047000D01*
X153660743Y-105134250D01*
X153673049Y-105229577D01*
X153702977Y-105360451D01*
X153744341Y-105473041D01*
X153792797Y-105560769D01*
X153843997Y-105617058D01*
X153893597Y-105635329D01*
X153929546Y-105617814D01*
X153945598Y-105587879D01*
X153935527Y-105544479D01*
X153907767Y-105491385D01*
X153876431Y-105417952D01*
X153846431Y-105316113D01*
X153824392Y-105208637D01*
X153810508Y-105108516D01*
X153807314Y-105045492D01*
X153815335Y-105006891D01*
X153833787Y-104981327D01*
X153864229Y-104959149D01*
X153897376Y-104964845D01*
X153947989Y-104998540D01*
X154025617Y-105044670D01*
X154076951Y-105049633D01*
X154100425Y-105013473D01*
X154101800Y-104994325D01*
X154076686Y-104908695D01*
X154002389Y-104826931D01*
X153880474Y-104750657D01*
X153854940Y-104738266D01*
X153757307Y-104682634D01*
X153654881Y-104608300D01*
X153559939Y-104525938D01*
X153484760Y-104446222D01*
X153441619Y-104379828D01*
X153441049Y-104378409D01*
X153433687Y-104327394D01*
X153434230Y-104243685D01*
X153442506Y-104144745D01*
X153443383Y-104137606D01*
X153450607Y-104048358D01*
X153250900Y-104048358D01*
X153227799Y-104104162D01*
X153167507Y-104156489D01*
X153083542Y-104198825D01*
X152989424Y-104224654D01*
X152898670Y-104227463D01*
X152884150Y-104225104D01*
X152819031Y-104201381D01*
X152751810Y-104162700D01*
X152679750Y-104098892D01*
X152619764Y-104023824D01*
X152583465Y-103953478D01*
X152577800Y-103923282D01*
X152585881Y-103895797D01*
X152618911Y-103889113D01*
X152673050Y-103896402D01*
X152857280Y-103929185D01*
X152997492Y-103954713D01*
X153099695Y-103974564D01*
X153169898Y-103990320D01*
X153214109Y-104003559D01*
X153238335Y-104015863D01*
X153248586Y-104028811D01*
X153250870Y-104043983D01*
X153250900Y-104048358D01*
X153450607Y-104048358D01*
X153455274Y-103990713D01*
X153445458Y-103880226D01*
X153408598Y-103800527D01*
X153339357Y-103746000D01*
X153232399Y-103711026D01*
X153082387Y-103689989D01*
X153012874Y-103684473D01*
X152797770Y-103658928D01*
X152627550Y-103615078D01*
X152503178Y-103553269D01*
X152425615Y-103473846D01*
X152425383Y-103473464D01*
X152411328Y-103446088D01*
X152400819Y-103411911D01*
X152393536Y-103364252D01*
X152389160Y-103296431D01*
X152387370Y-103201767D01*
X152387846Y-103073581D01*
X152390270Y-102905191D01*
X152392454Y-102785768D01*
X152396786Y-102609347D01*
X152402615Y-102445732D01*
X152409504Y-102303133D01*
X152417020Y-102189759D01*
X152424724Y-102113818D01*
X152429464Y-102088938D01*
X152452232Y-102038027D01*
X152488544Y-102005454D01*
X152545937Y-101990150D01*
X152631947Y-101991048D01*
X152754110Y-102007079D01*
X152866587Y-102026999D01*
X153022905Y-102052778D01*
X153196282Y-102074194D01*
X153392581Y-102091622D01*
X153617664Y-102105441D01*
X153877393Y-102116030D01*
X154177631Y-102123766D01*
X154432000Y-102127910D01*
X154611322Y-102130306D01*
X154782816Y-102132692D01*
X154936869Y-102134926D01*
X155063871Y-102136868D01*
X155154212Y-102138377D01*
X155181300Y-102138897D01*
X155282610Y-102133471D01*
X155409072Y-102116030D01*
X155537411Y-102089902D01*
X155555732Y-102085351D01*
X155733932Y-102051404D01*
X155890475Y-102044608D01*
X156019313Y-102064178D01*
X156114398Y-102109332D01*
X156162421Y-102163934D01*
X156173187Y-102208830D01*
X156182533Y-102295315D01*
X156190317Y-102414194D01*
X156196400Y-102556272D01*
X156200640Y-102712353D01*
X156202897Y-102873242D01*
X156203030Y-103029744D01*
X156400500Y-103029744D01*
X156400500Y-102853088D01*
X156401121Y-102674230D01*
X156402868Y-102512300D01*
X156405572Y-102374175D01*
X156409062Y-102266729D01*
X156413168Y-102196836D01*
X156417375Y-102171580D01*
X156453420Y-102168924D01*
X156513581Y-102199382D01*
X156588901Y-102257507D01*
X156642711Y-102308532D01*
X156711972Y-102375059D01*
X156799450Y-102453652D01*
X156867906Y-102511995D01*
X156942578Y-102581306D01*
X157003558Y-102651516D01*
X157035132Y-102702495D01*
X157047566Y-102758007D01*
X157059358Y-102858444D01*
X157070025Y-102997935D01*
X157079086Y-103170604D01*
X157083818Y-103295773D01*
X157100662Y-103810447D01*
X157292220Y-103810447D01*
X157295843Y-103758316D01*
X157294268Y-103660716D01*
X157287277Y-103543176D01*
X157279701Y-103459787D01*
X157266846Y-103307954D01*
X157257034Y-103137261D01*
X157251800Y-102976730D01*
X157251331Y-102923798D01*
X157247970Y-102777415D01*
X157233996Y-102668779D01*
X157203706Y-102585074D01*
X157151395Y-102513482D01*
X157071360Y-102441190D01*
X157018266Y-102400100D01*
X156930348Y-102330395D01*
X156827529Y-102243724D01*
X156731483Y-102158377D01*
X156727999Y-102155167D01*
X156607000Y-102046777D01*
X156508563Y-101969253D01*
X156420457Y-101916448D01*
X156330448Y-101882215D01*
X156226303Y-101860408D01*
X156114063Y-101846699D01*
X155957711Y-101832412D01*
X155836607Y-101826306D01*
X155735752Y-101829076D01*
X155640148Y-101841415D01*
X155534799Y-101864018D01*
X155488244Y-101875660D01*
X155388250Y-101899274D01*
X155310017Y-101910179D01*
X155232307Y-101909115D01*
X155133881Y-101896825D01*
X155088270Y-101889631D01*
X154979720Y-101873485D01*
X154881427Y-101861321D01*
X154811129Y-101855274D01*
X154800300Y-101854970D01*
X154756491Y-101854824D01*
X154668764Y-101854612D01*
X154543999Y-101854347D01*
X154389080Y-101854043D01*
X154210886Y-101853713D01*
X154016300Y-101853371D01*
X153929467Y-101853225D01*
X153705380Y-101852679D01*
X153525086Y-101851584D01*
X153381578Y-101849511D01*
X153267848Y-101846029D01*
X153176889Y-101840711D01*
X153101695Y-101833126D01*
X153035257Y-101822845D01*
X152970570Y-101809439D01*
X152900625Y-101792478D01*
X152888649Y-101789449D01*
X152746885Y-101755297D01*
X152641130Y-101735874D01*
X152558845Y-101730958D01*
X152487487Y-101740329D01*
G37*
X152487487Y-101740329D02*
X152414517Y-101763767D01*
X152374173Y-101780405D01*
X152277933Y-101832436D01*
X152208533Y-101898168D01*
X152163561Y-101984622D01*
X152140604Y-102098821D01*
X152137247Y-102247787D01*
X152150377Y-102431550D01*
X152162243Y-102560522D01*
X152167055Y-102655467D01*
X152163841Y-102732797D01*
X152151632Y-102808919D01*
X152129459Y-102900243D01*
X152120742Y-102932971D01*
X152086202Y-103083869D01*
X152072808Y-103214302D01*
X152082313Y-103337981D01*
X152116469Y-103468617D01*
X152177028Y-103619920D01*
X152220460Y-103713244D01*
X152291455Y-103853414D01*
X152358151Y-103964129D01*
X152433184Y-104063830D01*
X152529194Y-104170955D01*
X152546947Y-104189600D01*
X152742900Y-104394212D01*
X152925236Y-104394106D01*
X153040131Y-104397417D01*
X153115471Y-104413196D01*
X153158669Y-104449968D01*
X153177136Y-104516258D01*
X153178287Y-104620593D01*
X153175169Y-104681572D01*
X153168904Y-104794564D01*
X153161529Y-104937841D01*
X153154075Y-105090930D01*
X153148960Y-105201982D01*
X153138349Y-105361180D01*
X153121014Y-105538141D01*
X153099725Y-105706914D01*
X153085262Y-105798882D01*
X153056752Y-105992243D01*
X153040463Y-106171610D01*
X153036693Y-106327730D01*
X153045742Y-106451350D01*
X153062016Y-106519596D01*
X153129411Y-106631024D01*
X153239733Y-106719687D01*
X153385853Y-106784246D01*
X153513595Y-106839739D01*
X153671107Y-106931414D01*
X153846261Y-107050310D01*
X153995671Y-107153252D01*
X154113988Y-107225663D01*
X154207670Y-107271225D01*
X154267822Y-107290499D01*
X154349492Y-107309775D01*
X154461503Y-107336848D01*
X154584930Y-107367125D01*
X154639882Y-107380753D01*
X154756944Y-107409721D01*
X154838982Y-107427715D01*
X154900405Y-107435477D01*
X154955621Y-107433747D01*
X155019036Y-107423269D01*
X155105059Y-107404783D01*
X155105360Y-107404718D01*
X155210726Y-107375240D01*
X155337596Y-107329814D01*
X155474772Y-107273582D01*
X155611054Y-107211687D01*
X155735244Y-107149270D01*
X155836142Y-107091474D01*
X155902549Y-107043440D01*
X155911550Y-107034549D01*
X155956771Y-106971948D01*
X155980666Y-106912715D01*
X155981765Y-106901849D01*
X155982152Y-106862011D01*
X155983057Y-106778663D01*
X155984398Y-106659088D01*
X155986092Y-106510572D01*
X155988056Y-106340401D01*
X155990169Y-106159300D01*
X155991593Y-105969740D01*
X155991452Y-105789919D01*
X155989868Y-105628208D01*
X155986963Y-105492976D01*
X155982859Y-105392592D01*
X155978214Y-105338784D01*
X155970528Y-105263137D01*
X155963524Y-105150607D01*
X155957881Y-105015111D01*
X155954277Y-104870566D01*
X155953810Y-104837712D01*
X155952913Y-104672613D01*
X155957177Y-104550495D01*
X155970210Y-104463560D01*
X155995618Y-104404013D01*
X156037008Y-104364058D01*
X156097985Y-104335899D01*
X156182156Y-104311739D01*
X156199100Y-104307452D01*
X156297918Y-104279854D01*
X156386703Y-104250316D01*
X156440859Y-104227731D01*
X156509967Y-104206493D01*
X156610469Y-104193361D01*
X156684989Y-104190551D01*
X156843205Y-104173553D01*
X156990917Y-104126725D01*
X157119006Y-104055628D01*
X157218351Y-103965823D01*
X157279832Y-103862871D01*
X157291505Y-103820748D01*
X157292220Y-103810447D01*
X157100662Y-103810447D01*
X157039575Y-103871534D01*
X156946742Y-103933306D01*
X156819600Y-103973363D01*
X156674130Y-103987458D01*
X156591969Y-103996845D01*
X156488699Y-104021038D01*
X156407430Y-104047409D01*
X156301945Y-104082634D01*
X156194202Y-104111773D01*
X156127571Y-104125147D01*
X155992199Y-104169085D01*
X155884091Y-104253955D01*
X155820867Y-104349863D01*
X155807253Y-104386104D01*
X155797639Y-104433494D01*
X155791700Y-104499419D01*
X155789113Y-104591268D01*
X155789555Y-104716429D01*
X155792701Y-104882292D01*
X155794434Y-104953408D01*
X155801193Y-105258144D01*
X155805812Y-105549925D01*
X155808334Y-105824290D01*
X155808798Y-106076779D01*
X155807247Y-106302932D01*
X155803722Y-106498290D01*
X155798264Y-106658393D01*
X155790913Y-106778781D01*
X155781713Y-106854994D01*
X155776669Y-106874529D01*
X155740187Y-106920655D01*
X155661346Y-106973644D01*
X155556416Y-107026868D01*
X155354647Y-107116968D01*
X155188812Y-107181184D01*
X155052040Y-107220987D01*
X154937462Y-107237848D01*
X154838206Y-107233239D01*
X154747401Y-107208630D01*
X154733552Y-107203084D01*
X154669228Y-107182465D01*
X154572123Y-107158508D01*
X154459698Y-107135376D01*
X154419300Y-107128132D01*
X154305302Y-107106671D01*
X154228613Y-107085892D01*
X154176077Y-107060632D01*
X154134541Y-107025732D01*
X154120850Y-107011047D01*
X154074569Y-106953662D01*
X154054527Y-106909814D01*
X154064678Y-106877753D01*
X154108974Y-106855734D01*
X154191369Y-106842009D01*
X154315816Y-106834831D01*
X154486270Y-106832453D01*
X154525087Y-106832400D01*
X154667204Y-106831021D01*
X154769654Y-106826016D01*
X154843516Y-106816086D01*
X154899869Y-106799928D01*
X154934662Y-106784302D01*
X155044041Y-106711660D01*
X155124065Y-106617525D01*
X155176301Y-106496842D01*
X155202316Y-106344552D01*
X155203678Y-106155599D01*
X155187386Y-105968800D01*
X155170399Y-105756345D01*
X155172339Y-105573943D01*
X155176974Y-105524300D01*
X155182905Y-105439590D01*
X155186241Y-105315677D01*
X155187195Y-105163048D01*
X155185986Y-104992194D01*
X155182827Y-104813604D01*
X155177936Y-104637767D01*
X155171529Y-104475174D01*
X155163820Y-104336312D01*
X155155027Y-104231673D01*
X155149516Y-104190800D01*
X155136617Y-104072327D01*
X155146970Y-103994487D01*
X155181383Y-103952337D01*
X155189136Y-103948592D01*
X155255470Y-103928653D01*
X155358519Y-103906404D01*
X155484398Y-103884009D01*
X155619217Y-103863632D01*
X155749092Y-103847437D01*
X155860134Y-103837589D01*
X155914062Y-103835617D01*
X156063333Y-103825115D01*
X156175910Y-103791026D01*
X156262421Y-103728244D01*
X156331517Y-103635044D01*
X156400500Y-103517700D01*
X156400500Y-103029744D01*
X156203030Y-103029744D01*
X156200899Y-103172664D01*
X156196363Y-103292808D01*
X156189282Y-103380979D01*
X156181672Y-103422371D01*
X156129949Y-103513493D01*
X156049114Y-103566627D01*
X155945639Y-103580038D01*
X155825992Y-103551995D01*
X155778200Y-103530400D01*
X155701315Y-103494078D01*
X155650549Y-103485040D01*
X155607491Y-103506123D01*
X155553729Y-103560163D01*
X155548617Y-103565773D01*
X155491073Y-103619537D01*
X155429036Y-103650149D01*
X155340824Y-103667712D01*
X155325751Y-103669631D01*
X155170897Y-103699744D01*
X155060130Y-103750086D01*
X154989057Y-103826176D01*
X154953286Y-103933532D01*
X154948427Y-104077673D01*
X154953206Y-104137740D01*
X154958808Y-104218451D01*
X154963593Y-104337361D01*
X154967565Y-104488156D01*
X154970726Y-104664521D01*
X154973079Y-104860139D01*
X154974627Y-105068697D01*
X154975371Y-105283880D01*
X154975316Y-105499371D01*
X154974463Y-105708857D01*
X154972816Y-105906021D01*
X154970376Y-106084549D01*
X154967148Y-106238126D01*
X154963133Y-106360437D01*
X154958334Y-106445167D01*
X154952754Y-106486000D01*
X154952200Y-106487334D01*
X154930443Y-106521711D01*
X154899489Y-106548011D01*
X154852820Y-106567329D01*
X154783920Y-106580762D01*
X154686272Y-106589407D01*
X154553360Y-106594360D01*
X154378666Y-106596718D01*
X154299491Y-106597163D01*
X154113312Y-106597254D01*
X153968435Y-106595287D01*
X153855385Y-106590619D01*
X153764686Y-106582603D01*
X153686859Y-106570596D01*
X153612428Y-106553952D01*
X153593800Y-106549138D01*
X153461713Y-106507604D01*
X153372799Y-106460064D01*
X153319469Y-106398518D01*
X153294137Y-106314966D01*
X153288931Y-106227733D01*
X153291378Y-106139131D01*
X153298016Y-106018996D01*
X153307688Y-105886313D01*
X153314331Y-105810050D01*
X153328482Y-105658538D01*
X153344708Y-105485117D01*
X153360326Y-105318453D01*
X153366303Y-105254763D01*
X153385362Y-105079458D01*
X153406494Y-104933434D01*
X153428634Y-104822010D01*
X153450717Y-104750504D01*
X153471682Y-104724234D01*
X153472424Y-104724200D01*
X153508636Y-104734956D01*
X153565900Y-104761018D01*
X153569294Y-104762761D01*
X153638344Y-104824315D01*
X153667073Y-104911902D01*
X153659717Y-104990315D01*
X153655761Y-105047000D01*
X153660743Y-105134250D01*
X153673049Y-105229577D01*
X153702977Y-105360451D01*
X153744341Y-105473041D01*
X153792797Y-105560769D01*
X153843997Y-105617058D01*
X153893597Y-105635329D01*
X153929546Y-105617814D01*
X153945598Y-105587879D01*
X153935527Y-105544479D01*
X153907767Y-105491385D01*
X153876431Y-105417952D01*
X153846431Y-105316113D01*
X153824392Y-105208637D01*
X153810508Y-105108516D01*
X153807314Y-105045492D01*
X153815335Y-105006891D01*
X153833787Y-104981327D01*
X153864229Y-104959149D01*
X153897376Y-104964845D01*
X153947989Y-104998540D01*
X154025617Y-105044670D01*
X154076951Y-105049633D01*
X154100425Y-105013473D01*
X154101800Y-104994325D01*
X154076686Y-104908695D01*
X154002389Y-104826931D01*
X153880474Y-104750657D01*
X153854940Y-104738266D01*
X153757307Y-104682634D01*
X153654881Y-104608300D01*
X153559939Y-104525938D01*
X153484760Y-104446222D01*
X153441619Y-104379828D01*
X153441049Y-104378409D01*
X153433687Y-104327394D01*
X153434230Y-104243685D01*
X153442506Y-104144745D01*
X153443383Y-104137606D01*
X153450607Y-104048358D01*
X153250900Y-104048358D01*
X153227799Y-104104162D01*
X153167507Y-104156489D01*
X153083542Y-104198825D01*
X152989424Y-104224654D01*
X152898670Y-104227463D01*
X152884150Y-104225104D01*
X152819031Y-104201381D01*
X152751810Y-104162700D01*
X152679750Y-104098892D01*
X152619764Y-104023824D01*
X152583465Y-103953478D01*
X152577800Y-103923282D01*
X152585881Y-103895797D01*
X152618911Y-103889113D01*
X152673050Y-103896402D01*
X152857280Y-103929185D01*
X152997492Y-103954713D01*
X153099695Y-103974564D01*
X153169898Y-103990320D01*
X153214109Y-104003559D01*
X153238335Y-104015863D01*
X153248586Y-104028811D01*
X153250870Y-104043983D01*
X153250900Y-104048358D01*
X153450607Y-104048358D01*
X153455274Y-103990713D01*
X153445458Y-103880226D01*
X153408598Y-103800527D01*
X153339357Y-103746000D01*
X153232399Y-103711026D01*
X153082387Y-103689989D01*
X153012874Y-103684473D01*
X152797770Y-103658928D01*
X152627550Y-103615078D01*
X152503178Y-103553269D01*
X152425615Y-103473846D01*
X152425383Y-103473464D01*
X152411328Y-103446088D01*
X152400819Y-103411911D01*
X152393536Y-103364252D01*
X152389160Y-103296431D01*
X152387370Y-103201767D01*
X152387846Y-103073581D01*
X152390270Y-102905191D01*
X152392454Y-102785768D01*
X152396786Y-102609347D01*
X152402615Y-102445732D01*
X152409504Y-102303133D01*
X152417020Y-102189759D01*
X152424724Y-102113818D01*
X152429464Y-102088938D01*
X152452232Y-102038027D01*
X152488544Y-102005454D01*
X152545937Y-101990150D01*
X152631947Y-101991048D01*
X152754110Y-102007079D01*
X152866587Y-102026999D01*
X153022905Y-102052778D01*
X153196282Y-102074194D01*
X153392581Y-102091622D01*
X153617664Y-102105441D01*
X153877393Y-102116030D01*
X154177631Y-102123766D01*
X154432000Y-102127910D01*
X154611322Y-102130306D01*
X154782816Y-102132692D01*
X154936869Y-102134926D01*
X155063871Y-102136868D01*
X155154212Y-102138377D01*
X155181300Y-102138897D01*
X155282610Y-102133471D01*
X155409072Y-102116030D01*
X155537411Y-102089902D01*
X155555732Y-102085351D01*
X155733932Y-102051404D01*
X155890475Y-102044608D01*
X156019313Y-102064178D01*
X156114398Y-102109332D01*
X156162421Y-102163934D01*
X156173187Y-102208830D01*
X156182533Y-102295315D01*
X156190317Y-102414194D01*
X156196400Y-102556272D01*
X156200640Y-102712353D01*
X156202897Y-102873242D01*
X156203030Y-103029744D01*
X156400500Y-103029744D01*
X156400500Y-102853088D01*
X156401121Y-102674230D01*
X156402868Y-102512300D01*
X156405572Y-102374175D01*
X156409062Y-102266729D01*
X156413168Y-102196836D01*
X156417375Y-102171580D01*
X156453420Y-102168924D01*
X156513581Y-102199382D01*
X156588901Y-102257507D01*
X156642711Y-102308532D01*
X156711972Y-102375059D01*
X156799450Y-102453652D01*
X156867906Y-102511995D01*
X156942578Y-102581306D01*
X157003558Y-102651516D01*
X157035132Y-102702495D01*
X157047566Y-102758007D01*
X157059358Y-102858444D01*
X157070025Y-102997935D01*
X157079086Y-103170604D01*
X157083818Y-103295773D01*
X157100662Y-103810447D01*
X157292220Y-103810447D01*
X157295843Y-103758316D01*
X157294268Y-103660716D01*
X157287277Y-103543176D01*
X157279701Y-103459787D01*
X157266846Y-103307954D01*
X157257034Y-103137261D01*
X157251800Y-102976730D01*
X157251331Y-102923798D01*
X157247970Y-102777415D01*
X157233996Y-102668779D01*
X157203706Y-102585074D01*
X157151395Y-102513482D01*
X157071360Y-102441190D01*
X157018266Y-102400100D01*
X156930348Y-102330395D01*
X156827529Y-102243724D01*
X156731483Y-102158377D01*
X156727999Y-102155167D01*
X156607000Y-102046777D01*
X156508563Y-101969253D01*
X156420457Y-101916448D01*
X156330448Y-101882215D01*
X156226303Y-101860408D01*
X156114063Y-101846699D01*
X155957711Y-101832412D01*
X155836607Y-101826306D01*
X155735752Y-101829076D01*
X155640148Y-101841415D01*
X155534799Y-101864018D01*
X155488244Y-101875660D01*
X155388250Y-101899274D01*
X155310017Y-101910179D01*
X155232307Y-101909115D01*
X155133881Y-101896825D01*
X155088270Y-101889631D01*
X154979720Y-101873485D01*
X154881427Y-101861321D01*
X154811129Y-101855274D01*
X154800300Y-101854970D01*
X154756491Y-101854824D01*
X154668764Y-101854612D01*
X154543999Y-101854347D01*
X154389080Y-101854043D01*
X154210886Y-101853713D01*
X154016300Y-101853371D01*
X153929467Y-101853225D01*
X153705380Y-101852679D01*
X153525086Y-101851584D01*
X153381578Y-101849511D01*
X153267848Y-101846029D01*
X153176889Y-101840711D01*
X153101695Y-101833126D01*
X153035257Y-101822845D01*
X152970570Y-101809439D01*
X152900625Y-101792478D01*
X152888649Y-101789449D01*
X152746885Y-101755297D01*
X152641130Y-101735874D01*
X152558845Y-101730958D01*
X152487487Y-101740329D01*
G36*
X160804565Y-101754212D02*
G01*
X160737531Y-101804471D01*
X160668723Y-101874444D01*
X160612489Y-101930270D01*
X160562607Y-101958020D01*
X160496538Y-101967199D01*
X160447410Y-101967786D01*
X160362398Y-101963285D01*
X160246293Y-101951633D01*
X160117957Y-101934885D01*
X160050953Y-101924568D01*
X159910322Y-101904122D01*
X159797423Y-101895207D01*
X159690680Y-101897141D01*
X159568516Y-101909238D01*
X159568353Y-101909259D01*
X159440780Y-101920946D01*
X159288031Y-101928899D01*
X159135661Y-101931961D01*
X159076351Y-101931482D01*
X158943467Y-101930584D01*
X158843670Y-101936967D01*
X158761424Y-101955374D01*
X158681193Y-101990551D01*
X158587440Y-102047243D01*
X158496000Y-102108719D01*
X158397401Y-102168120D01*
X158289835Y-102221056D01*
X158222520Y-102247174D01*
X158166173Y-102267887D01*
X158116359Y-102294623D01*
X158064989Y-102334354D01*
X158003974Y-102394054D01*
X157925224Y-102480694D01*
X157846343Y-102571390D01*
X157755309Y-102679557D01*
X157672937Y-102782123D01*
X157606814Y-102869309D01*
X157564526Y-102931331D01*
X157557475Y-102943856D01*
X157480583Y-103140350D01*
X157436856Y-103353358D01*
X157429200Y-103478576D01*
X157433277Y-103576960D01*
X157449098Y-103661017D01*
X157482053Y-103751771D01*
X157520790Y-103835916D01*
X157570301Y-103944829D01*
X157615571Y-104055294D01*
X157647573Y-104145154D01*
X157649857Y-104152700D01*
X157688253Y-104249854D01*
X157740549Y-104344167D01*
X157761467Y-104373460D01*
X157814882Y-104451232D01*
X157834681Y-104515407D01*
X157818120Y-104575239D01*
X157762452Y-104639982D01*
X157664934Y-104718893D01*
X157657313Y-104724561D01*
X157555678Y-104807727D01*
X157453417Y-104904158D01*
X157370966Y-104994440D01*
X157363820Y-105003369D01*
X157291912Y-105084515D01*
X157194781Y-105180303D01*
X157088288Y-105275497D01*
X157034524Y-105319670D01*
X156888454Y-105441402D01*
X156777704Y-105549902D01*
X156693179Y-105656595D01*
X156625784Y-105772906D01*
X156568341Y-105905300D01*
X156508143Y-106103666D01*
X156492042Y-106278041D01*
X156521194Y-106431383D01*
X156596752Y-106566651D01*
X156719870Y-106686803D01*
X156891702Y-106794798D01*
X156921200Y-106809858D01*
X157017220Y-106853216D01*
X157107461Y-106881457D01*
X157211705Y-106899482D01*
X157327600Y-106910545D01*
X157449017Y-106923420D01*
X157565512Y-106941910D01*
X157657901Y-106962764D01*
X157683200Y-106970816D01*
X157854427Y-107023865D01*
X157999092Y-107044249D01*
X158130240Y-107031115D01*
X158260916Y-106983613D01*
X158364145Y-106926351D01*
X158464308Y-106869105D01*
X158570601Y-106815330D01*
X158637920Y-106785730D01*
X158728667Y-106744627D01*
X158838300Y-106686952D01*
X158956593Y-106619053D01*
X159073319Y-106547273D01*
X159178251Y-106477960D01*
X159261161Y-106417458D01*
X159311822Y-106372114D01*
X159318569Y-106363408D01*
X159345046Y-106297474D01*
X159359239Y-106212526D01*
X159359975Y-106191943D01*
X159371966Y-106084818D01*
X159403838Y-106001821D01*
X159450631Y-105954134D01*
X159468114Y-105948126D01*
X159513470Y-105959960D01*
X159538108Y-106012933D01*
X159540848Y-106101290D01*
X159522268Y-106212033D01*
X159504220Y-106318229D01*
X159492867Y-106445518D01*
X159490624Y-106553000D01*
X159490007Y-106663020D01*
X159480136Y-106739855D01*
X159457889Y-106800746D01*
X159440044Y-106832400D01*
X159397468Y-106934938D01*
X159386362Y-107042226D01*
X159408732Y-107134037D01*
X159409916Y-107136294D01*
X159441546Y-107172345D01*
X159503389Y-107226694D01*
X159583609Y-107289138D01*
X159606766Y-107305978D01*
X159693301Y-107366484D01*
X159757245Y-107403263D01*
X159817014Y-107422574D01*
X159891022Y-107430677D01*
X159981900Y-107433493D01*
X160088672Y-107439023D01*
X160184225Y-107449607D01*
X160250196Y-107463116D01*
X160256604Y-107465339D01*
X160390854Y-107490367D01*
X160549148Y-107472371D01*
X160655000Y-107440826D01*
X160761753Y-107395903D01*
X160874157Y-107338789D01*
X160921700Y-107310860D01*
X161028690Y-107245260D01*
X161118471Y-107195344D01*
X161213677Y-107149248D01*
X161316560Y-107103868D01*
X161475611Y-107017148D01*
X161493873Y-107001263D01*
X161104821Y-107001263D01*
X161089267Y-107027898D01*
X161038102Y-107071005D01*
X160961205Y-107124448D01*
X160868456Y-107182088D01*
X160769736Y-107237787D01*
X160674922Y-107285409D01*
X160593895Y-107318816D01*
X160593376Y-107318993D01*
X160510499Y-107342125D01*
X160440381Y-107352913D01*
X160413700Y-107351869D01*
X160358711Y-107339997D01*
X160278734Y-107322862D01*
X160241458Y-107314908D01*
X160156406Y-107302355D01*
X160082805Y-107300738D01*
X160060719Y-107303912D01*
X159968442Y-107307330D01*
X159870723Y-107281094D01*
X159788123Y-107232742D01*
X159750565Y-107190209D01*
X159697140Y-107128681D01*
X159626348Y-107078888D01*
X159622545Y-107077024D01*
X159561501Y-107038243D01*
X159541145Y-106992605D01*
X159559524Y-106928799D01*
X159588106Y-106877463D01*
X159615042Y-106821259D01*
X159630810Y-106752357D01*
X159637852Y-106656302D01*
X159638906Y-106576714D01*
X159642338Y-106453090D01*
X159651310Y-106327467D01*
X159663988Y-106224524D01*
X159665930Y-106213456D01*
X159680067Y-106063598D01*
X159665041Y-105933785D01*
X159652177Y-105850003D01*
X159649621Y-105781852D01*
X159653715Y-105756809D01*
X159680010Y-105724467D01*
X159738199Y-105670656D01*
X159818953Y-105603595D01*
X159889554Y-105548923D01*
X159986731Y-105477024D01*
X160051117Y-105433273D01*
X160089676Y-105414196D01*
X160109373Y-105416318D01*
X160117058Y-105435421D01*
X160119837Y-105497689D01*
X160116520Y-105598231D01*
X160108251Y-105725039D01*
X160096177Y-105866108D01*
X160081444Y-106009430D01*
X160065196Y-106142997D01*
X160048580Y-106254803D01*
X160032742Y-106332841D01*
X160030741Y-106340082D01*
X160003584Y-106478897D01*
X159999048Y-106618535D01*
X160016206Y-106743927D01*
X160054133Y-106840004D01*
X160062172Y-106851791D01*
X160103424Y-106898087D01*
X160154275Y-106933917D01*
X160220708Y-106960126D01*
X160308709Y-106977556D01*
X160424262Y-106987054D01*
X160573350Y-106989461D01*
X160761958Y-106985624D01*
X160957516Y-106978096D01*
X161046473Y-106979587D01*
X161096912Y-106992445D01*
X161104821Y-107001263D01*
X161493873Y-107001263D01*
X161595993Y-106912439D01*
X161672361Y-106794583D01*
X161680412Y-106774066D01*
X161692802Y-106715410D01*
X161705057Y-106613409D01*
X161716749Y-106475519D01*
X161727448Y-106309193D01*
X161736726Y-106121887D01*
X161744155Y-105921055D01*
X161749304Y-105714151D01*
X161751583Y-105537000D01*
X161752048Y-105530561D01*
X161596413Y-105530561D01*
X161582082Y-105883030D01*
X161572625Y-106109940D01*
X161564260Y-106291684D01*
X161556337Y-106433865D01*
X161548208Y-106542087D01*
X161539222Y-106621954D01*
X161528732Y-106679068D01*
X161516087Y-106719035D01*
X161500639Y-106747457D01*
X161481738Y-106769938D01*
X161478999Y-106772710D01*
X161405275Y-106820071D01*
X161313489Y-106828574D01*
X161197215Y-106798350D01*
X161151252Y-106779404D01*
X161092991Y-106755576D01*
X161041179Y-106741996D01*
X160981911Y-106737772D01*
X160901277Y-106742010D01*
X160785372Y-106753818D01*
X160773374Y-106755150D01*
X160597219Y-106767616D01*
X160441625Y-106764657D01*
X160315173Y-106747076D01*
X160226443Y-106715673D01*
X160206670Y-106702220D01*
X160179191Y-106649174D01*
X160175155Y-106563341D01*
X160194297Y-106456866D01*
X160213298Y-106397443D01*
X160236109Y-106311485D01*
X160256567Y-106183105D01*
X160274839Y-106010511D01*
X160291093Y-105791913D01*
X160305496Y-105525521D01*
X160314130Y-105321100D01*
X160319485Y-105164751D01*
X160321401Y-105051005D01*
X160319435Y-104971753D01*
X160313146Y-104918887D01*
X160302090Y-104884297D01*
X160289169Y-104863900D01*
X160257255Y-104828924D01*
X160234514Y-104833570D01*
X160210500Y-104862404D01*
X160180210Y-104920044D01*
X160172400Y-104958368D01*
X160153808Y-104999988D01*
X160102820Y-105066273D01*
X160026626Y-105150046D01*
X159932412Y-105244129D01*
X159827366Y-105341344D01*
X159718675Y-105434514D01*
X159613600Y-105516407D01*
X159398646Y-105693121D01*
X159214133Y-105889505D01*
X159149127Y-105971640D01*
X159102389Y-106047250D01*
X159084582Y-106124400D01*
X159084116Y-106184770D01*
X159079329Y-106274308D01*
X159050525Y-106331279D01*
X158988432Y-106365764D01*
X158899538Y-106385411D01*
X158806163Y-106409043D01*
X158711096Y-106445620D01*
X158697882Y-106452072D01*
X158627732Y-106484644D01*
X158570835Y-106497943D01*
X158510640Y-106491297D01*
X158430592Y-106464033D01*
X158369000Y-106438700D01*
X158296003Y-106410534D01*
X158227680Y-106392068D01*
X158150033Y-106381336D01*
X158049061Y-106376370D01*
X157917176Y-106375200D01*
X157705848Y-106368347D01*
X157537609Y-106346927D01*
X157406511Y-106309644D01*
X157306607Y-106255201D01*
X157284084Y-106237283D01*
X157238596Y-106190704D01*
X157228587Y-106150017D01*
X157239217Y-106112232D01*
X157268232Y-106070363D01*
X157330339Y-106002542D01*
X157419045Y-105914645D01*
X157527851Y-105812552D01*
X157650261Y-105702140D01*
X157779778Y-105589289D01*
X157909906Y-105479875D01*
X158034149Y-105379779D01*
X158127700Y-105308314D01*
X158294130Y-105175926D01*
X158426697Y-105047256D01*
X158539043Y-104908031D01*
X158605861Y-104808027D01*
X158663972Y-104736282D01*
X158747864Y-104657268D01*
X158827125Y-104596571D01*
X158939728Y-104510314D01*
X158998902Y-104442770D01*
X158619473Y-104442770D01*
X158603089Y-104490388D01*
X158573766Y-104514127D01*
X158537487Y-104550107D01*
X158486565Y-104617132D01*
X158431013Y-104701831D01*
X158421793Y-104717087D01*
X158358349Y-104821992D01*
X158310134Y-104894719D01*
X158266792Y-104946977D01*
X158217965Y-104990473D01*
X158153296Y-105036917D01*
X158117503Y-105061068D01*
X158008330Y-105139642D01*
X157885295Y-105238875D01*
X157743752Y-105362874D01*
X157579054Y-105515743D01*
X157386554Y-105701587D01*
X157333950Y-105753278D01*
X157221210Y-105864744D01*
X157139639Y-105947476D01*
X157084194Y-106008367D01*
X157049831Y-106054311D01*
X157031507Y-106092202D01*
X157024180Y-106128933D01*
X157022805Y-106171397D01*
X157022800Y-106178586D01*
X157031063Y-106268598D01*
X157063100Y-106338622D01*
X157099764Y-106384888D01*
X157160359Y-106442884D01*
X157232590Y-106487640D01*
X157324145Y-106521231D01*
X157442715Y-106545733D01*
X157595990Y-106563222D01*
X157791659Y-106575774D01*
X157810210Y-106576666D01*
X157978898Y-106585963D01*
X158104834Y-106596838D01*
X158196066Y-106611025D01*
X158260641Y-106630257D01*
X158306608Y-106656267D01*
X158342015Y-106690790D01*
X158342450Y-106691313D01*
X158359546Y-106732914D01*
X158337205Y-106775077D01*
X158271684Y-106822409D01*
X158208711Y-106855887D01*
X158125564Y-106890163D01*
X158045521Y-106904420D01*
X157954946Y-106898325D01*
X157840206Y-106871548D01*
X157752083Y-106844775D01*
X157577142Y-106800617D01*
X157417081Y-106782482D01*
X157396483Y-106782247D01*
X157311058Y-106778371D01*
X157225386Y-106763665D01*
X157125351Y-106734623D01*
X156996839Y-106687738D01*
X156963019Y-106674553D01*
X156802087Y-106607261D01*
X156685420Y-106545098D01*
X156608251Y-106479920D01*
X156565809Y-106403585D01*
X156553326Y-106307948D01*
X156566032Y-106184867D01*
X156594665Y-106045635D01*
X156617835Y-105949528D01*
X156641723Y-105872414D01*
X156672215Y-105806982D01*
X156715200Y-105745918D01*
X156776568Y-105681909D01*
X156862207Y-105607643D01*
X156978005Y-105515808D01*
X157091893Y-105428164D01*
X157200924Y-105340190D01*
X157303922Y-105249215D01*
X157388888Y-105166308D01*
X157441635Y-105105561D01*
X157516384Y-105018430D01*
X157608887Y-104930095D01*
X157665398Y-104884734D01*
X157774178Y-104800887D01*
X157875773Y-104713885D01*
X157962513Y-104631223D01*
X158026731Y-104560397D01*
X158060757Y-104508900D01*
X158064200Y-104494975D01*
X158045661Y-104455607D01*
X157997856Y-104400432D01*
X157951929Y-104358921D01*
X157864727Y-104271428D01*
X157809115Y-104170345D01*
X157795962Y-104133611D01*
X157762860Y-104045330D01*
X157715347Y-103933969D01*
X157662800Y-103821334D01*
X157654233Y-103804013D01*
X157588942Y-103651574D01*
X157558676Y-103516302D01*
X157561664Y-103380340D01*
X157596136Y-103225832D01*
X157596714Y-103223860D01*
X157676650Y-103019481D01*
X157784081Y-102855698D01*
X157872388Y-102768400D01*
X157947719Y-102699656D01*
X158015856Y-102625950D01*
X158040487Y-102594119D01*
X158097018Y-102525676D01*
X158156308Y-102473284D01*
X158206901Y-102445518D01*
X158235221Y-102448353D01*
X158232613Y-102477362D01*
X158210712Y-102539569D01*
X158173868Y-102623208D01*
X158160034Y-102651764D01*
X158068831Y-102890866D01*
X158036995Y-103039455D01*
X158023326Y-103141693D01*
X158019142Y-103224656D01*
X158025372Y-103307489D01*
X158042944Y-103409336D01*
X158058536Y-103483914D01*
X158089539Y-103611706D01*
X158125629Y-103719224D01*
X158174694Y-103825787D01*
X158244622Y-103950717D01*
X158258998Y-103974914D01*
X158342295Y-104104555D01*
X158424775Y-104215485D01*
X158497361Y-104295771D01*
X158515050Y-104311444D01*
X158590476Y-104384329D01*
X158619473Y-104442770D01*
X158998902Y-104442770D01*
X159004452Y-104436436D01*
X159022286Y-104373432D01*
X159002905Y-104329179D01*
X158963371Y-104297043D01*
X158893485Y-104253315D01*
X158815020Y-104210910D01*
X158693866Y-104147124D01*
X158607625Y-104091789D01*
X158544271Y-104033943D01*
X158491774Y-103962619D01*
X158438582Y-103867766D01*
X158333165Y-103630451D01*
X158267359Y-103400678D01*
X158241977Y-103183956D01*
X158257831Y-102985796D01*
X158291163Y-102868159D01*
X158356097Y-102724910D01*
X158443939Y-102568736D01*
X158543189Y-102418007D01*
X158642352Y-102291091D01*
X158673800Y-102256838D01*
X158743304Y-102193749D01*
X158815957Y-102150104D01*
X158902391Y-102123127D01*
X159013236Y-102110043D01*
X159159123Y-102108075D01*
X159236216Y-102109985D01*
X159354342Y-102110411D01*
X159495380Y-102106039D01*
X159631763Y-102097790D01*
X159651700Y-102096137D01*
X159794380Y-102087884D01*
X159913697Y-102092451D01*
X160035814Y-102111352D01*
X160080986Y-102120947D01*
X160259761Y-102148814D01*
X160432507Y-102153778D01*
X160590279Y-102137254D01*
X160724133Y-102100658D01*
X160825125Y-102045404D01*
X160871846Y-101995821D01*
X160924954Y-101943961D01*
X160991127Y-101935471D01*
X161075012Y-101970648D01*
X161135662Y-102012749D01*
X161215607Y-102073114D01*
X161312941Y-102145029D01*
X161387123Y-102198882D01*
X161463433Y-102255998D01*
X161506557Y-102298169D01*
X161525679Y-102338470D01*
X161529987Y-102389976D01*
X161529889Y-102402082D01*
X161523568Y-102477220D01*
X161508305Y-102579928D01*
X161487351Y-102688463D01*
X161486485Y-102692412D01*
X161463206Y-102820767D01*
X161457356Y-102929453D01*
X161467576Y-103046000D01*
X161468645Y-103053663D01*
X161480015Y-103185838D01*
X161471745Y-103310495D01*
X161454898Y-103404361D01*
X161431018Y-103525958D01*
X161421021Y-103609880D01*
X161426315Y-103667697D01*
X161448309Y-103710982D01*
X161488411Y-103751302D01*
X161498131Y-103759530D01*
X161579261Y-103827261D01*
X161547008Y-103971382D01*
X161530982Y-104079249D01*
X161525650Y-104217082D01*
X161530721Y-104394043D01*
X161532523Y-104427372D01*
X161550290Y-104739243D01*
X161447995Y-104857435D01*
X161366293Y-104978100D01*
X161323674Y-105101597D01*
X161323498Y-105217238D01*
X161328551Y-105237478D01*
X161355555Y-105284488D01*
X161409024Y-105349784D01*
X161471109Y-105413130D01*
X161596413Y-105530561D01*
X161752048Y-105530561D01*
X161755866Y-105477816D01*
X161766503Y-105390296D01*
X161777460Y-105316989D01*
X161790038Y-105201293D01*
X161789619Y-105195258D01*
X161635454Y-105195258D01*
X161619922Y-105258121D01*
X161577171Y-105302518D01*
X161521486Y-105298178D01*
X161486745Y-105276650D01*
X161437658Y-105210736D01*
X161429411Y-105130202D01*
X161463815Y-105053014D01*
X161500774Y-105012224D01*
X161527827Y-105008502D01*
X161564693Y-105037440D01*
X161617843Y-105111444D01*
X161635454Y-105195258D01*
X161789619Y-105195258D01*
X161783212Y-105103148D01*
X161765106Y-105024889D01*
X161734566Y-104879751D01*
X161711736Y-104699092D01*
X161697388Y-104497716D01*
X161692296Y-104290428D01*
X161697232Y-104092030D01*
X161708940Y-103949500D01*
X161715627Y-103841937D01*
X161703952Y-103753642D01*
X161674414Y-103665433D01*
X161653772Y-103606155D01*
X161639070Y-103542520D01*
X161629241Y-103464278D01*
X161623219Y-103361179D01*
X161619939Y-103222971D01*
X161618949Y-103132033D01*
X161618618Y-102968330D01*
X161621383Y-102843790D01*
X161628240Y-102746816D01*
X161640184Y-102665815D01*
X161658211Y-102589193D01*
X161668714Y-102552580D01*
X161700967Y-102436317D01*
X161716884Y-102343802D01*
X161712251Y-102267616D01*
X161682849Y-102200342D01*
X161624462Y-102134562D01*
X161532873Y-102062857D01*
X161403866Y-101977810D01*
X161308045Y-101918092D01*
X161157658Y-101828099D01*
X161040291Y-101767273D01*
X160947770Y-101735055D01*
X160871920Y-101730887D01*
X160804565Y-101754212D01*
G37*
X160804565Y-101754212D02*
X160737531Y-101804471D01*
X160668723Y-101874444D01*
X160612489Y-101930270D01*
X160562607Y-101958020D01*
X160496538Y-101967199D01*
X160447410Y-101967786D01*
X160362398Y-101963285D01*
X160246293Y-101951633D01*
X160117957Y-101934885D01*
X160050953Y-101924568D01*
X159910322Y-101904122D01*
X159797423Y-101895207D01*
X159690680Y-101897141D01*
X159568516Y-101909238D01*
X159568353Y-101909259D01*
X159440780Y-101920946D01*
X159288031Y-101928899D01*
X159135661Y-101931961D01*
X159076351Y-101931482D01*
X158943467Y-101930584D01*
X158843670Y-101936967D01*
X158761424Y-101955374D01*
X158681193Y-101990551D01*
X158587440Y-102047243D01*
X158496000Y-102108719D01*
X158397401Y-102168120D01*
X158289835Y-102221056D01*
X158222520Y-102247174D01*
X158166173Y-102267887D01*
X158116359Y-102294623D01*
X158064989Y-102334354D01*
X158003974Y-102394054D01*
X157925224Y-102480694D01*
X157846343Y-102571390D01*
X157755309Y-102679557D01*
X157672937Y-102782123D01*
X157606814Y-102869309D01*
X157564526Y-102931331D01*
X157557475Y-102943856D01*
X157480583Y-103140350D01*
X157436856Y-103353358D01*
X157429200Y-103478576D01*
X157433277Y-103576960D01*
X157449098Y-103661017D01*
X157482053Y-103751771D01*
X157520790Y-103835916D01*
X157570301Y-103944829D01*
X157615571Y-104055294D01*
X157647573Y-104145154D01*
X157649857Y-104152700D01*
X157688253Y-104249854D01*
X157740549Y-104344167D01*
X157761467Y-104373460D01*
X157814882Y-104451232D01*
X157834681Y-104515407D01*
X157818120Y-104575239D01*
X157762452Y-104639982D01*
X157664934Y-104718893D01*
X157657313Y-104724561D01*
X157555678Y-104807727D01*
X157453417Y-104904158D01*
X157370966Y-104994440D01*
X157363820Y-105003369D01*
X157291912Y-105084515D01*
X157194781Y-105180303D01*
X157088288Y-105275497D01*
X157034524Y-105319670D01*
X156888454Y-105441402D01*
X156777704Y-105549902D01*
X156693179Y-105656595D01*
X156625784Y-105772906D01*
X156568341Y-105905300D01*
X156508143Y-106103666D01*
X156492042Y-106278041D01*
X156521194Y-106431383D01*
X156596752Y-106566651D01*
X156719870Y-106686803D01*
X156891702Y-106794798D01*
X156921200Y-106809858D01*
X157017220Y-106853216D01*
X157107461Y-106881457D01*
X157211705Y-106899482D01*
X157327600Y-106910545D01*
X157449017Y-106923420D01*
X157565512Y-106941910D01*
X157657901Y-106962764D01*
X157683200Y-106970816D01*
X157854427Y-107023865D01*
X157999092Y-107044249D01*
X158130240Y-107031115D01*
X158260916Y-106983613D01*
X158364145Y-106926351D01*
X158464308Y-106869105D01*
X158570601Y-106815330D01*
X158637920Y-106785730D01*
X158728667Y-106744627D01*
X158838300Y-106686952D01*
X158956593Y-106619053D01*
X159073319Y-106547273D01*
X159178251Y-106477960D01*
X159261161Y-106417458D01*
X159311822Y-106372114D01*
X159318569Y-106363408D01*
X159345046Y-106297474D01*
X159359239Y-106212526D01*
X159359975Y-106191943D01*
X159371966Y-106084818D01*
X159403838Y-106001821D01*
X159450631Y-105954134D01*
X159468114Y-105948126D01*
X159513470Y-105959960D01*
X159538108Y-106012933D01*
X159540848Y-106101290D01*
X159522268Y-106212033D01*
X159504220Y-106318229D01*
X159492867Y-106445518D01*
X159490624Y-106553000D01*
X159490007Y-106663020D01*
X159480136Y-106739855D01*
X159457889Y-106800746D01*
X159440044Y-106832400D01*
X159397468Y-106934938D01*
X159386362Y-107042226D01*
X159408732Y-107134037D01*
X159409916Y-107136294D01*
X159441546Y-107172345D01*
X159503389Y-107226694D01*
X159583609Y-107289138D01*
X159606766Y-107305978D01*
X159693301Y-107366484D01*
X159757245Y-107403263D01*
X159817014Y-107422574D01*
X159891022Y-107430677D01*
X159981900Y-107433493D01*
X160088672Y-107439023D01*
X160184225Y-107449607D01*
X160250196Y-107463116D01*
X160256604Y-107465339D01*
X160390854Y-107490367D01*
X160549148Y-107472371D01*
X160655000Y-107440826D01*
X160761753Y-107395903D01*
X160874157Y-107338789D01*
X160921700Y-107310860D01*
X161028690Y-107245260D01*
X161118471Y-107195344D01*
X161213677Y-107149248D01*
X161316560Y-107103868D01*
X161475611Y-107017148D01*
X161493873Y-107001263D01*
X161104821Y-107001263D01*
X161089267Y-107027898D01*
X161038102Y-107071005D01*
X160961205Y-107124448D01*
X160868456Y-107182088D01*
X160769736Y-107237787D01*
X160674922Y-107285409D01*
X160593895Y-107318816D01*
X160593376Y-107318993D01*
X160510499Y-107342125D01*
X160440381Y-107352913D01*
X160413700Y-107351869D01*
X160358711Y-107339997D01*
X160278734Y-107322862D01*
X160241458Y-107314908D01*
X160156406Y-107302355D01*
X160082805Y-107300738D01*
X160060719Y-107303912D01*
X159968442Y-107307330D01*
X159870723Y-107281094D01*
X159788123Y-107232742D01*
X159750565Y-107190209D01*
X159697140Y-107128681D01*
X159626348Y-107078888D01*
X159622545Y-107077024D01*
X159561501Y-107038243D01*
X159541145Y-106992605D01*
X159559524Y-106928799D01*
X159588106Y-106877463D01*
X159615042Y-106821259D01*
X159630810Y-106752357D01*
X159637852Y-106656302D01*
X159638906Y-106576714D01*
X159642338Y-106453090D01*
X159651310Y-106327467D01*
X159663988Y-106224524D01*
X159665930Y-106213456D01*
X159680067Y-106063598D01*
X159665041Y-105933785D01*
X159652177Y-105850003D01*
X159649621Y-105781852D01*
X159653715Y-105756809D01*
X159680010Y-105724467D01*
X159738199Y-105670656D01*
X159818953Y-105603595D01*
X159889554Y-105548923D01*
X159986731Y-105477024D01*
X160051117Y-105433273D01*
X160089676Y-105414196D01*
X160109373Y-105416318D01*
X160117058Y-105435421D01*
X160119837Y-105497689D01*
X160116520Y-105598231D01*
X160108251Y-105725039D01*
X160096177Y-105866108D01*
X160081444Y-106009430D01*
X160065196Y-106142997D01*
X160048580Y-106254803D01*
X160032742Y-106332841D01*
X160030741Y-106340082D01*
X160003584Y-106478897D01*
X159999048Y-106618535D01*
X160016206Y-106743927D01*
X160054133Y-106840004D01*
X160062172Y-106851791D01*
X160103424Y-106898087D01*
X160154275Y-106933917D01*
X160220708Y-106960126D01*
X160308709Y-106977556D01*
X160424262Y-106987054D01*
X160573350Y-106989461D01*
X160761958Y-106985624D01*
X160957516Y-106978096D01*
X161046473Y-106979587D01*
X161096912Y-106992445D01*
X161104821Y-107001263D01*
X161493873Y-107001263D01*
X161595993Y-106912439D01*
X161672361Y-106794583D01*
X161680412Y-106774066D01*
X161692802Y-106715410D01*
X161705057Y-106613409D01*
X161716749Y-106475519D01*
X161727448Y-106309193D01*
X161736726Y-106121887D01*
X161744155Y-105921055D01*
X161749304Y-105714151D01*
X161751583Y-105537000D01*
X161752048Y-105530561D01*
X161596413Y-105530561D01*
X161582082Y-105883030D01*
X161572625Y-106109940D01*
X161564260Y-106291684D01*
X161556337Y-106433865D01*
X161548208Y-106542087D01*
X161539222Y-106621954D01*
X161528732Y-106679068D01*
X161516087Y-106719035D01*
X161500639Y-106747457D01*
X161481738Y-106769938D01*
X161478999Y-106772710D01*
X161405275Y-106820071D01*
X161313489Y-106828574D01*
X161197215Y-106798350D01*
X161151252Y-106779404D01*
X161092991Y-106755576D01*
X161041179Y-106741996D01*
X160981911Y-106737772D01*
X160901277Y-106742010D01*
X160785372Y-106753818D01*
X160773374Y-106755150D01*
X160597219Y-106767616D01*
X160441625Y-106764657D01*
X160315173Y-106747076D01*
X160226443Y-106715673D01*
X160206670Y-106702220D01*
X160179191Y-106649174D01*
X160175155Y-106563341D01*
X160194297Y-106456866D01*
X160213298Y-106397443D01*
X160236109Y-106311485D01*
X160256567Y-106183105D01*
X160274839Y-106010511D01*
X160291093Y-105791913D01*
X160305496Y-105525521D01*
X160314130Y-105321100D01*
X160319485Y-105164751D01*
X160321401Y-105051005D01*
X160319435Y-104971753D01*
X160313146Y-104918887D01*
X160302090Y-104884297D01*
X160289169Y-104863900D01*
X160257255Y-104828924D01*
X160234514Y-104833570D01*
X160210500Y-104862404D01*
X160180210Y-104920044D01*
X160172400Y-104958368D01*
X160153808Y-104999988D01*
X160102820Y-105066273D01*
X160026626Y-105150046D01*
X159932412Y-105244129D01*
X159827366Y-105341344D01*
X159718675Y-105434514D01*
X159613600Y-105516407D01*
X159398646Y-105693121D01*
X159214133Y-105889505D01*
X159149127Y-105971640D01*
X159102389Y-106047250D01*
X159084582Y-106124400D01*
X159084116Y-106184770D01*
X159079329Y-106274308D01*
X159050525Y-106331279D01*
X158988432Y-106365764D01*
X158899538Y-106385411D01*
X158806163Y-106409043D01*
X158711096Y-106445620D01*
X158697882Y-106452072D01*
X158627732Y-106484644D01*
X158570835Y-106497943D01*
X158510640Y-106491297D01*
X158430592Y-106464033D01*
X158369000Y-106438700D01*
X158296003Y-106410534D01*
X158227680Y-106392068D01*
X158150033Y-106381336D01*
X158049061Y-106376370D01*
X157917176Y-106375200D01*
X157705848Y-106368347D01*
X157537609Y-106346927D01*
X157406511Y-106309644D01*
X157306607Y-106255201D01*
X157284084Y-106237283D01*
X157238596Y-106190704D01*
X157228587Y-106150017D01*
X157239217Y-106112232D01*
X157268232Y-106070363D01*
X157330339Y-106002542D01*
X157419045Y-105914645D01*
X157527851Y-105812552D01*
X157650261Y-105702140D01*
X157779778Y-105589289D01*
X157909906Y-105479875D01*
X158034149Y-105379779D01*
X158127700Y-105308314D01*
X158294130Y-105175926D01*
X158426697Y-105047256D01*
X158539043Y-104908031D01*
X158605861Y-104808027D01*
X158663972Y-104736282D01*
X158747864Y-104657268D01*
X158827125Y-104596571D01*
X158939728Y-104510314D01*
X158998902Y-104442770D01*
X158619473Y-104442770D01*
X158603089Y-104490388D01*
X158573766Y-104514127D01*
X158537487Y-104550107D01*
X158486565Y-104617132D01*
X158431013Y-104701831D01*
X158421793Y-104717087D01*
X158358349Y-104821992D01*
X158310134Y-104894719D01*
X158266792Y-104946977D01*
X158217965Y-104990473D01*
X158153296Y-105036917D01*
X158117503Y-105061068D01*
X158008330Y-105139642D01*
X157885295Y-105238875D01*
X157743752Y-105362874D01*
X157579054Y-105515743D01*
X157386554Y-105701587D01*
X157333950Y-105753278D01*
X157221210Y-105864744D01*
X157139639Y-105947476D01*
X157084194Y-106008367D01*
X157049831Y-106054311D01*
X157031507Y-106092202D01*
X157024180Y-106128933D01*
X157022805Y-106171397D01*
X157022800Y-106178586D01*
X157031063Y-106268598D01*
X157063100Y-106338622D01*
X157099764Y-106384888D01*
X157160359Y-106442884D01*
X157232590Y-106487640D01*
X157324145Y-106521231D01*
X157442715Y-106545733D01*
X157595990Y-106563222D01*
X157791659Y-106575774D01*
X157810210Y-106576666D01*
X157978898Y-106585963D01*
X158104834Y-106596838D01*
X158196066Y-106611025D01*
X158260641Y-106630257D01*
X158306608Y-106656267D01*
X158342015Y-106690790D01*
X158342450Y-106691313D01*
X158359546Y-106732914D01*
X158337205Y-106775077D01*
X158271684Y-106822409D01*
X158208711Y-106855887D01*
X158125564Y-106890163D01*
X158045521Y-106904420D01*
X157954946Y-106898325D01*
X157840206Y-106871548D01*
X157752083Y-106844775D01*
X157577142Y-106800617D01*
X157417081Y-106782482D01*
X157396483Y-106782247D01*
X157311058Y-106778371D01*
X157225386Y-106763665D01*
X157125351Y-106734623D01*
X156996839Y-106687738D01*
X156963019Y-106674553D01*
X156802087Y-106607261D01*
X156685420Y-106545098D01*
X156608251Y-106479920D01*
X156565809Y-106403585D01*
X156553326Y-106307948D01*
X156566032Y-106184867D01*
X156594665Y-106045635D01*
X156617835Y-105949528D01*
X156641723Y-105872414D01*
X156672215Y-105806982D01*
X156715200Y-105745918D01*
X156776568Y-105681909D01*
X156862207Y-105607643D01*
X156978005Y-105515808D01*
X157091893Y-105428164D01*
X157200924Y-105340190D01*
X157303922Y-105249215D01*
X157388888Y-105166308D01*
X157441635Y-105105561D01*
X157516384Y-105018430D01*
X157608887Y-104930095D01*
X157665398Y-104884734D01*
X157774178Y-104800887D01*
X157875773Y-104713885D01*
X157962513Y-104631223D01*
X158026731Y-104560397D01*
X158060757Y-104508900D01*
X158064200Y-104494975D01*
X158045661Y-104455607D01*
X157997856Y-104400432D01*
X157951929Y-104358921D01*
X157864727Y-104271428D01*
X157809115Y-104170345D01*
X157795962Y-104133611D01*
X157762860Y-104045330D01*
X157715347Y-103933969D01*
X157662800Y-103821334D01*
X157654233Y-103804013D01*
X157588942Y-103651574D01*
X157558676Y-103516302D01*
X157561664Y-103380340D01*
X157596136Y-103225832D01*
X157596714Y-103223860D01*
X157676650Y-103019481D01*
X157784081Y-102855698D01*
X157872388Y-102768400D01*
X157947719Y-102699656D01*
X158015856Y-102625950D01*
X158040487Y-102594119D01*
X158097018Y-102525676D01*
X158156308Y-102473284D01*
X158206901Y-102445518D01*
X158235221Y-102448353D01*
X158232613Y-102477362D01*
X158210712Y-102539569D01*
X158173868Y-102623208D01*
X158160034Y-102651764D01*
X158068831Y-102890866D01*
X158036995Y-103039455D01*
X158023326Y-103141693D01*
X158019142Y-103224656D01*
X158025372Y-103307489D01*
X158042944Y-103409336D01*
X158058536Y-103483914D01*
X158089539Y-103611706D01*
X158125629Y-103719224D01*
X158174694Y-103825787D01*
X158244622Y-103950717D01*
X158258998Y-103974914D01*
X158342295Y-104104555D01*
X158424775Y-104215485D01*
X158497361Y-104295771D01*
X158515050Y-104311444D01*
X158590476Y-104384329D01*
X158619473Y-104442770D01*
X158998902Y-104442770D01*
X159004452Y-104436436D01*
X159022286Y-104373432D01*
X159002905Y-104329179D01*
X158963371Y-104297043D01*
X158893485Y-104253315D01*
X158815020Y-104210910D01*
X158693866Y-104147124D01*
X158607625Y-104091789D01*
X158544271Y-104033943D01*
X158491774Y-103962619D01*
X158438582Y-103867766D01*
X158333165Y-103630451D01*
X158267359Y-103400678D01*
X158241977Y-103183956D01*
X158257831Y-102985796D01*
X158291163Y-102868159D01*
X158356097Y-102724910D01*
X158443939Y-102568736D01*
X158543189Y-102418007D01*
X158642352Y-102291091D01*
X158673800Y-102256838D01*
X158743304Y-102193749D01*
X158815957Y-102150104D01*
X158902391Y-102123127D01*
X159013236Y-102110043D01*
X159159123Y-102108075D01*
X159236216Y-102109985D01*
X159354342Y-102110411D01*
X159495380Y-102106039D01*
X159631763Y-102097790D01*
X159651700Y-102096137D01*
X159794380Y-102087884D01*
X159913697Y-102092451D01*
X160035814Y-102111352D01*
X160080986Y-102120947D01*
X160259761Y-102148814D01*
X160432507Y-102153778D01*
X160590279Y-102137254D01*
X160724133Y-102100658D01*
X160825125Y-102045404D01*
X160871846Y-101995821D01*
X160924954Y-101943961D01*
X160991127Y-101935471D01*
X161075012Y-101970648D01*
X161135662Y-102012749D01*
X161215607Y-102073114D01*
X161312941Y-102145029D01*
X161387123Y-102198882D01*
X161463433Y-102255998D01*
X161506557Y-102298169D01*
X161525679Y-102338470D01*
X161529987Y-102389976D01*
X161529889Y-102402082D01*
X161523568Y-102477220D01*
X161508305Y-102579928D01*
X161487351Y-102688463D01*
X161486485Y-102692412D01*
X161463206Y-102820767D01*
X161457356Y-102929453D01*
X161467576Y-103046000D01*
X161468645Y-103053663D01*
X161480015Y-103185838D01*
X161471745Y-103310495D01*
X161454898Y-103404361D01*
X161431018Y-103525958D01*
X161421021Y-103609880D01*
X161426315Y-103667697D01*
X161448309Y-103710982D01*
X161488411Y-103751302D01*
X161498131Y-103759530D01*
X161579261Y-103827261D01*
X161547008Y-103971382D01*
X161530982Y-104079249D01*
X161525650Y-104217082D01*
X161530721Y-104394043D01*
X161532523Y-104427372D01*
X161550290Y-104739243D01*
X161447995Y-104857435D01*
X161366293Y-104978100D01*
X161323674Y-105101597D01*
X161323498Y-105217238D01*
X161328551Y-105237478D01*
X161355555Y-105284488D01*
X161409024Y-105349784D01*
X161471109Y-105413130D01*
X161596413Y-105530561D01*
X161752048Y-105530561D01*
X161755866Y-105477816D01*
X161766503Y-105390296D01*
X161777460Y-105316989D01*
X161790038Y-105201293D01*
X161789619Y-105195258D01*
X161635454Y-105195258D01*
X161619922Y-105258121D01*
X161577171Y-105302518D01*
X161521486Y-105298178D01*
X161486745Y-105276650D01*
X161437658Y-105210736D01*
X161429411Y-105130202D01*
X161463815Y-105053014D01*
X161500774Y-105012224D01*
X161527827Y-105008502D01*
X161564693Y-105037440D01*
X161617843Y-105111444D01*
X161635454Y-105195258D01*
X161789619Y-105195258D01*
X161783212Y-105103148D01*
X161765106Y-105024889D01*
X161734566Y-104879751D01*
X161711736Y-104699092D01*
X161697388Y-104497716D01*
X161692296Y-104290428D01*
X161697232Y-104092030D01*
X161708940Y-103949500D01*
X161715627Y-103841937D01*
X161703952Y-103753642D01*
X161674414Y-103665433D01*
X161653772Y-103606155D01*
X161639070Y-103542520D01*
X161629241Y-103464278D01*
X161623219Y-103361179D01*
X161619939Y-103222971D01*
X161618949Y-103132033D01*
X161618618Y-102968330D01*
X161621383Y-102843790D01*
X161628240Y-102746816D01*
X161640184Y-102665815D01*
X161658211Y-102589193D01*
X161668714Y-102552580D01*
X161700967Y-102436317D01*
X161716884Y-102343802D01*
X161712251Y-102267616D01*
X161682849Y-102200342D01*
X161624462Y-102134562D01*
X161532873Y-102062857D01*
X161403866Y-101977810D01*
X161308045Y-101918092D01*
X161157658Y-101828099D01*
X161040291Y-101767273D01*
X160947770Y-101735055D01*
X160871920Y-101730887D01*
X160804565Y-101754212D01*
G36*
X165297563Y-101746696D02*
G01*
X165236911Y-101775356D01*
X165195872Y-101795564D01*
X165143543Y-101809929D01*
X165070295Y-101819687D01*
X164966499Y-101826069D01*
X164822526Y-101830310D01*
X164805111Y-101830673D01*
X164666017Y-101831857D01*
X164535773Y-101830024D01*
X164427545Y-101825556D01*
X164354497Y-101818832D01*
X164345929Y-101817379D01*
X164282121Y-101809563D01*
X164222482Y-101816107D01*
X164149854Y-101840708D01*
X164067808Y-101877305D01*
X163973358Y-101919195D01*
X163902343Y-101941417D01*
X163833222Y-101947928D01*
X163744456Y-101942681D01*
X163722978Y-101940621D01*
X163560772Y-101938784D01*
X163425414Y-101972155D01*
X163302895Y-102045756D01*
X163220273Y-102120829D01*
X163154657Y-102184167D01*
X163103847Y-102218405D01*
X163048880Y-102232397D01*
X162975787Y-102234999D01*
X162838730Y-102258651D01*
X162718423Y-102324249D01*
X162622532Y-102423758D01*
X162558725Y-102549142D01*
X162534668Y-102692366D01*
X162534640Y-102697327D01*
X162528114Y-102781750D01*
X162501215Y-102843326D01*
X162451496Y-102900527D01*
X162376962Y-102978979D01*
X162330779Y-103041090D01*
X162303655Y-103104631D01*
X162286295Y-103187372D01*
X162280271Y-103227928D01*
X162260268Y-103327503D01*
X162226129Y-103416012D01*
X162169242Y-103513622D01*
X162139182Y-103558292D01*
X162082185Y-103643922D01*
X162045335Y-103712057D01*
X162022415Y-103780412D01*
X162007207Y-103866702D01*
X161995741Y-103966999D01*
X161984004Y-104133509D01*
X161988161Y-104270032D01*
X162001091Y-104359818D01*
X162015485Y-104453215D01*
X162017101Y-104534933D01*
X162005083Y-104627076D01*
X161987433Y-104712624D01*
X161956012Y-104903043D01*
X161955853Y-105068738D01*
X161989799Y-105223047D01*
X162060695Y-105379305D01*
X162163972Y-105540452D01*
X162228468Y-105654487D01*
X162259472Y-105777342D01*
X162262130Y-105799998D01*
X162306350Y-105989290D01*
X162397987Y-106160509D01*
X162536890Y-106313409D01*
X162621156Y-106380840D01*
X162727398Y-106461212D01*
X162848895Y-106557929D01*
X162963339Y-106653132D01*
X162989182Y-106675430D01*
X163161621Y-106806657D01*
X163348979Y-106916226D01*
X163537802Y-106997471D01*
X163714632Y-107043728D01*
X163740163Y-107047345D01*
X163849193Y-107066740D01*
X163960123Y-107095625D01*
X164011987Y-107113450D01*
X164145070Y-107159714D01*
X164294207Y-107201697D01*
X164443017Y-107235604D01*
X164575117Y-107257639D01*
X164662670Y-107264200D01*
X164740055Y-107270816D01*
X164849751Y-107288683D01*
X164975299Y-107314828D01*
X165066368Y-107337134D01*
X165229833Y-107375951D01*
X165356069Y-107396156D01*
X165454530Y-107399166D01*
X165471012Y-107397899D01*
X165543267Y-107395385D01*
X165614397Y-107405152D01*
X165699725Y-107430699D01*
X165814576Y-107475524D01*
X165819029Y-107477365D01*
X166007865Y-107542038D01*
X166168400Y-107568362D01*
X166298745Y-107556087D01*
X166331900Y-107544750D01*
X166374803Y-107517677D01*
X166443322Y-107464696D01*
X166526613Y-107395271D01*
X166613833Y-107318866D01*
X166694139Y-107244948D01*
X166756687Y-107182981D01*
X166787746Y-107146841D01*
X166813458Y-107095773D01*
X166843819Y-107015275D01*
X166865571Y-106945597D01*
X166900065Y-106845547D01*
X166942876Y-106750301D01*
X166970435Y-106702549D01*
X167014274Y-106621232D01*
X167043857Y-106536773D01*
X167047007Y-106521149D01*
X167052974Y-106445274D01*
X166900810Y-106445274D01*
X166884931Y-106540603D01*
X166841017Y-106623394D01*
X166799363Y-106702481D01*
X166759341Y-106803945D01*
X166739319Y-106869862D01*
X166711022Y-106959089D01*
X166672094Y-107033214D01*
X166611701Y-107109854D01*
X166554053Y-107171161D01*
X166436980Y-107285262D01*
X166339369Y-107361682D01*
X166249786Y-107403061D01*
X166156795Y-107412040D01*
X166048962Y-107391263D01*
X165914851Y-107343369D01*
X165876436Y-107327700D01*
X165752984Y-107280294D01*
X165653836Y-107252824D01*
X165558829Y-107240665D01*
X165488788Y-107238781D01*
X165360511Y-107229939D01*
X165209732Y-107205932D01*
X165087300Y-107177748D01*
X164948535Y-107146245D01*
X164792109Y-107119110D01*
X164648709Y-107101558D01*
X164630100Y-107100065D01*
X164418699Y-107075066D01*
X164229612Y-107033827D01*
X164075289Y-106979210D01*
X164048490Y-106966323D01*
X163990256Y-106945368D01*
X163898047Y-106921660D01*
X163788236Y-106899214D01*
X163743759Y-106891602D01*
X163598518Y-106861488D01*
X163459337Y-106820868D01*
X163360170Y-106781581D01*
X163285105Y-106738332D01*
X163196867Y-106676416D01*
X163104972Y-106604012D01*
X163018936Y-106529299D01*
X162948274Y-106460454D01*
X162902503Y-106405656D01*
X162890200Y-106377673D01*
X162907001Y-106351624D01*
X162954981Y-106361448D01*
X163030514Y-106406017D01*
X163066363Y-106432350D01*
X163171905Y-106512978D01*
X163247944Y-106567908D01*
X163305506Y-106602066D01*
X163355616Y-106620383D01*
X163409299Y-106627786D01*
X163477581Y-106629205D01*
X163506704Y-106629200D01*
X163605683Y-106631679D01*
X163676830Y-106643636D01*
X163742359Y-106671848D01*
X163824483Y-106723093D01*
X163832989Y-106728761D01*
X163931337Y-106788317D01*
X164018364Y-106822809D01*
X164120033Y-106841677D01*
X164153692Y-106845350D01*
X164305471Y-106867116D01*
X164477340Y-106902428D01*
X164650987Y-106946683D01*
X164808100Y-106995274D01*
X164916179Y-107037087D01*
X164996283Y-107070329D01*
X165053558Y-107083082D01*
X165110628Y-107077543D01*
X165170179Y-107061757D01*
X165255513Y-107040754D01*
X165330911Y-107028464D01*
X165354000Y-107027109D01*
X165404734Y-107029947D01*
X165493811Y-107037345D01*
X165609107Y-107048088D01*
X165738494Y-107060962D01*
X165869846Y-107074755D01*
X165991036Y-107088251D01*
X166089938Y-107100237D01*
X166107060Y-107102492D01*
X166234287Y-107095733D01*
X166349831Y-107043326D01*
X166448566Y-106949996D01*
X166525366Y-106820470D01*
X166572201Y-106673596D01*
X166609289Y-106547263D01*
X166658676Y-106444438D01*
X166715243Y-106370461D01*
X166773871Y-106330674D01*
X166829443Y-106330419D01*
X166869253Y-106363609D01*
X166900810Y-106445274D01*
X167052974Y-106445274D01*
X167053026Y-106444615D01*
X167041670Y-106373407D01*
X167008543Y-106300324D01*
X166949251Y-106218169D01*
X166859398Y-106119741D01*
X166734587Y-105997844D01*
X166717812Y-105982013D01*
X166610011Y-105880159D01*
X166533913Y-105805902D01*
X166484230Y-105752026D01*
X166455671Y-105711314D01*
X166442946Y-105676547D01*
X166440765Y-105640508D01*
X166442966Y-105607041D01*
X166451030Y-105466790D01*
X166448441Y-105350465D01*
X166433103Y-105236795D01*
X166402923Y-105104511D01*
X166387863Y-105047652D01*
X166354815Y-104917141D01*
X166340155Y-104822676D01*
X166346544Y-104751997D01*
X166376644Y-104692847D01*
X166433115Y-104632966D01*
X166488233Y-104585327D01*
X166601212Y-104490888D01*
X166584486Y-104321139D01*
X166578385Y-104202397D01*
X166588740Y-104113256D01*
X166607284Y-104056795D01*
X166638344Y-103995186D01*
X166675069Y-103968221D01*
X166737592Y-103961848D01*
X166743354Y-103961811D01*
X166798167Y-103960084D01*
X166841767Y-103951224D01*
X166885576Y-103928934D01*
X166941019Y-103886916D01*
X167019518Y-103818874D01*
X167047123Y-103794355D01*
X167163627Y-103690697D01*
X167247468Y-103614689D01*
X167303638Y-103559876D01*
X167337126Y-103519804D01*
X167352920Y-103488020D01*
X167356012Y-103458070D01*
X167351390Y-103423500D01*
X167348166Y-103404971D01*
X167343426Y-103332976D01*
X167357830Y-103258234D01*
X167395289Y-103161644D01*
X167400320Y-103150346D01*
X167432444Y-103076321D01*
X167451113Y-103019089D01*
X167457893Y-102962707D01*
X167454685Y-102898025D01*
X167273216Y-102898025D01*
X167261717Y-102955637D01*
X167235737Y-103017842D01*
X167218263Y-103053004D01*
X167168341Y-103183244D01*
X167139159Y-103324551D01*
X167137778Y-103338074D01*
X167128761Y-103416075D01*
X167113240Y-103473123D01*
X167083074Y-103524302D01*
X167030121Y-103584694D01*
X166973800Y-103641864D01*
X166823764Y-103791900D01*
X166675022Y-103787437D01*
X166576088Y-103790169D01*
X166517840Y-103804722D01*
X166506955Y-103814242D01*
X166491085Y-103858898D01*
X166472360Y-103938890D01*
X166453444Y-104039055D01*
X166437000Y-104144230D01*
X166425690Y-104239251D01*
X166422137Y-104297205D01*
X166410774Y-104368528D01*
X166373394Y-104439841D01*
X166320052Y-104507316D01*
X166258447Y-104589884D01*
X166208484Y-104676856D01*
X166189040Y-104724733D01*
X166176269Y-104778024D01*
X166174083Y-104830146D01*
X166184166Y-104894728D01*
X166208200Y-104985395D01*
X166230323Y-105058982D01*
X166263719Y-105172441D01*
X166282175Y-105252013D01*
X166287418Y-105311797D01*
X166281180Y-105365894D01*
X166272435Y-105402275D01*
X166253351Y-105496726D01*
X166243407Y-105591031D01*
X166243000Y-105608484D01*
X166231818Y-105689938D01*
X166202689Y-105746767D01*
X166166575Y-105765600D01*
X166136203Y-105752224D01*
X166102644Y-105730160D01*
X166083007Y-105709099D01*
X166067094Y-105672915D01*
X166053336Y-105613803D01*
X166040165Y-105523957D01*
X166026012Y-105395570D01*
X166017147Y-105304710D01*
X166003930Y-105150440D01*
X165993220Y-104996301D01*
X165985913Y-104857504D01*
X165982903Y-104749264D01*
X165982984Y-104724200D01*
X165988290Y-104410017D01*
X165994089Y-104138162D01*
X166000330Y-103910119D01*
X166006961Y-103727372D01*
X166013931Y-103591403D01*
X166021189Y-103503698D01*
X166026484Y-103471554D01*
X166043922Y-103425487D01*
X166072989Y-103409327D01*
X166131527Y-103414458D01*
X166141356Y-103416092D01*
X166268197Y-103412452D01*
X166332347Y-103392150D01*
X166426745Y-103367032D01*
X166539068Y-103357360D01*
X166564562Y-103357833D01*
X166649342Y-103357862D01*
X166705281Y-103344215D01*
X166753930Y-103309648D01*
X166778675Y-103285849D01*
X166842951Y-103196896D01*
X166869085Y-103096228D01*
X166886303Y-103015294D01*
X166919084Y-102911671D01*
X166959323Y-102810183D01*
X167000681Y-102710556D01*
X167022339Y-102632905D01*
X167025902Y-102588084D01*
X166855108Y-102588084D01*
X166814447Y-102731471D01*
X166792833Y-102772447D01*
X166749210Y-102863891D01*
X166717117Y-102961293D01*
X166710816Y-102991588D01*
X166678300Y-103090426D01*
X166620775Y-103148089D01*
X166541459Y-103161673D01*
X166525059Y-103159201D01*
X166460713Y-103159828D01*
X166377437Y-103176640D01*
X166345826Y-103186656D01*
X166213336Y-103214763D01*
X166091826Y-103211603D01*
X165999797Y-103204870D01*
X165934328Y-103212664D01*
X165890204Y-103241974D01*
X165862210Y-103299788D01*
X165845132Y-103393095D01*
X165833757Y-103528882D01*
X165831808Y-103560081D01*
X165826175Y-103739388D01*
X165829908Y-103916288D01*
X165842259Y-104064795D01*
X165855044Y-104177754D01*
X165857796Y-104261129D01*
X165849120Y-104335393D01*
X165827620Y-104421023D01*
X165815131Y-104462999D01*
X165786390Y-104566041D01*
X165773581Y-104645790D01*
X165774923Y-104726566D01*
X165788278Y-104830303D01*
X165803719Y-104951816D01*
X165816761Y-105099686D01*
X165827939Y-105281481D01*
X165837786Y-105504772D01*
X165839905Y-105562400D01*
X165836919Y-105629135D01*
X165826664Y-105713176D01*
X165823792Y-105730480D01*
X165805416Y-105835061D01*
X165902680Y-105853308D01*
X165987715Y-105875437D01*
X166064071Y-105904801D01*
X166069411Y-105907477D01*
X166134701Y-105928000D01*
X166225286Y-105941003D01*
X166280733Y-105943400D01*
X166408521Y-105956024D01*
X166498105Y-105996525D01*
X166556086Y-106068842D01*
X166575661Y-106119395D01*
X166588041Y-106171838D01*
X166586982Y-106219152D01*
X166569141Y-106276427D01*
X166531181Y-106358750D01*
X166515843Y-106389641D01*
X166469712Y-106490385D01*
X166431794Y-106588528D01*
X166409961Y-106663600D01*
X166409426Y-106666422D01*
X166373809Y-106795432D01*
X166320615Y-106880388D01*
X166246792Y-106925917D01*
X166236331Y-106928969D01*
X166186707Y-106939913D01*
X166140486Y-106942112D01*
X166083436Y-106933915D01*
X166001326Y-106913671D01*
X165927240Y-106893120D01*
X165835397Y-106874876D01*
X165719326Y-106862118D01*
X165636117Y-106858693D01*
X165100000Y-106858693D01*
X165081856Y-106898326D01*
X165037700Y-106907659D01*
X164982953Y-106885788D01*
X164960300Y-106866871D01*
X164932792Y-106830319D01*
X164944587Y-106799771D01*
X164955523Y-106788191D01*
X165004527Y-106768495D01*
X165057019Y-106784726D01*
X165093639Y-106827436D01*
X165100000Y-106858693D01*
X165636117Y-106858693D01*
X165614421Y-106857800D01*
X165504496Y-106855174D01*
X165423513Y-106842978D01*
X165352888Y-106814732D01*
X165274039Y-106763960D01*
X165211627Y-106717376D01*
X165120330Y-106652116D01*
X165051667Y-106619889D01*
X164990644Y-106619600D01*
X164922268Y-106650152D01*
X164858693Y-106691576D01*
X164784390Y-106741174D01*
X164735596Y-106765397D01*
X164696373Y-106768241D01*
X164650783Y-106753702D01*
X164635721Y-106747485D01*
X164571073Y-106729222D01*
X164472553Y-106711471D01*
X164357038Y-106697030D01*
X164302851Y-106692271D01*
X164181480Y-106681348D01*
X164094125Y-106667121D01*
X164024015Y-106645016D01*
X163954381Y-106610460D01*
X163912367Y-106585796D01*
X163780925Y-106520051D01*
X163654583Y-106488613D01*
X163626800Y-106485638D01*
X163515635Y-106474601D01*
X163437490Y-106460063D01*
X163374681Y-106435401D01*
X163309524Y-106393989D01*
X163238405Y-106340144D01*
X163134618Y-106269913D01*
X163011731Y-106201422D01*
X162914539Y-106157115D01*
X162777592Y-106090626D01*
X162663879Y-106004051D01*
X162564822Y-105888502D01*
X162471838Y-105735089D01*
X162433063Y-105658324D01*
X162377529Y-105545623D01*
X162320373Y-105432972D01*
X162271875Y-105340555D01*
X162261514Y-105321536D01*
X162191700Y-105194972D01*
X162189323Y-104623036D01*
X162189347Y-104390572D01*
X162192128Y-104202042D01*
X162198531Y-104050617D01*
X162209417Y-103929466D01*
X162225648Y-103831760D01*
X162248089Y-103750668D01*
X162277602Y-103679360D01*
X162315048Y-103611006D01*
X162317719Y-103606600D01*
X162372593Y-103501318D01*
X162421174Y-103382674D01*
X162442248Y-103315601D01*
X162472470Y-103222102D01*
X162508994Y-103139740D01*
X162534018Y-103099701D01*
X162618484Y-102994324D01*
X162675364Y-102918464D01*
X162709447Y-102862494D01*
X162725526Y-102816785D01*
X162728392Y-102771711D01*
X162723107Y-102719708D01*
X162717147Y-102642908D01*
X162729101Y-102593580D01*
X162765095Y-102549782D01*
X162772495Y-102542755D01*
X162832968Y-102500454D01*
X162896889Y-102494767D01*
X162916581Y-102498086D01*
X162974233Y-102503551D01*
X163029107Y-102491645D01*
X163090564Y-102457212D01*
X163167965Y-102395099D01*
X163263348Y-102307129D01*
X163383065Y-102201893D01*
X163486307Y-102133815D01*
X163584814Y-102097808D01*
X163690327Y-102088786D01*
X163756315Y-102093564D01*
X163849052Y-102099109D01*
X163931854Y-102089522D01*
X164027922Y-102061256D01*
X164071302Y-102045419D01*
X164163891Y-102013204D01*
X164243643Y-101990103D01*
X164293632Y-101981005D01*
X164294343Y-101980999D01*
X164365083Y-101998671D01*
X164452874Y-102044875D01*
X164541915Y-102109398D01*
X164616405Y-102182024D01*
X164628444Y-102196985D01*
X164676201Y-102249901D01*
X164716063Y-102277658D01*
X164727668Y-102278824D01*
X164747049Y-102250040D01*
X164763681Y-102187434D01*
X164769800Y-102144130D01*
X164782500Y-102019100D01*
X164998400Y-102027376D01*
X165106556Y-102030193D01*
X165178765Y-102026746D01*
X165229763Y-102014260D01*
X165274283Y-101989960D01*
X165301785Y-101970226D01*
X165382435Y-101917878D01*
X165434654Y-101905523D01*
X165462643Y-101934222D01*
X165470600Y-102005030D01*
X165470493Y-102012750D01*
X165468300Y-102120700D01*
X165595300Y-102117601D01*
X165683184Y-102114953D01*
X165798993Y-102110799D01*
X165919906Y-102105964D01*
X165938200Y-102105182D01*
X166061312Y-102103551D01*
X166207753Y-102107165D01*
X166360990Y-102115072D01*
X166504493Y-102126315D01*
X166621729Y-102139941D01*
X166664080Y-102147099D01*
X166709231Y-102176816D01*
X166761555Y-102243420D01*
X166786183Y-102284943D01*
X166845678Y-102438664D01*
X166855108Y-102588084D01*
X167025902Y-102588084D01*
X167028578Y-102554422D01*
X167024468Y-102463091D01*
X167019310Y-102371874D01*
X167021426Y-102321544D01*
X167032544Y-102302491D01*
X167052996Y-102304600D01*
X167131510Y-102350825D01*
X167190529Y-102429954D01*
X167232759Y-102547395D01*
X167260909Y-102708558D01*
X167262621Y-102723391D01*
X167272696Y-102826710D01*
X167273216Y-102898025D01*
X167454685Y-102898025D01*
X167454348Y-102891232D01*
X167442045Y-102788723D01*
X167438485Y-102761687D01*
X167420238Y-102643151D01*
X167398460Y-102530608D01*
X167376946Y-102442931D01*
X167370019Y-102421153D01*
X167311352Y-102315729D01*
X167213355Y-102207564D01*
X167085969Y-102106274D01*
X166975542Y-102039764D01*
X166910001Y-102008081D01*
X166846764Y-101986145D01*
X166772637Y-101971344D01*
X166674424Y-101961060D01*
X166538931Y-101952680D01*
X166535100Y-101952480D01*
X166305120Y-101938148D01*
X166119305Y-101920848D01*
X165971051Y-101899410D01*
X165853757Y-101872664D01*
X165760819Y-101839439D01*
X165692705Y-101803133D01*
X165561690Y-101744165D01*
X165425535Y-101725082D01*
X165297563Y-101746696D01*
G37*
X165297563Y-101746696D02*
X165236911Y-101775356D01*
X165195872Y-101795564D01*
X165143543Y-101809929D01*
X165070295Y-101819687D01*
X164966499Y-101826069D01*
X164822526Y-101830310D01*
X164805111Y-101830673D01*
X164666017Y-101831857D01*
X164535773Y-101830024D01*
X164427545Y-101825556D01*
X164354497Y-101818832D01*
X164345929Y-101817379D01*
X164282121Y-101809563D01*
X164222482Y-101816107D01*
X164149854Y-101840708D01*
X164067808Y-101877305D01*
X163973358Y-101919195D01*
X163902343Y-101941417D01*
X163833222Y-101947928D01*
X163744456Y-101942681D01*
X163722978Y-101940621D01*
X163560772Y-101938784D01*
X163425414Y-101972155D01*
X163302895Y-102045756D01*
X163220273Y-102120829D01*
X163154657Y-102184167D01*
X163103847Y-102218405D01*
X163048880Y-102232397D01*
X162975787Y-102234999D01*
X162838730Y-102258651D01*
X162718423Y-102324249D01*
X162622532Y-102423758D01*
X162558725Y-102549142D01*
X162534668Y-102692366D01*
X162534640Y-102697327D01*
X162528114Y-102781750D01*
X162501215Y-102843326D01*
X162451496Y-102900527D01*
X162376962Y-102978979D01*
X162330779Y-103041090D01*
X162303655Y-103104631D01*
X162286295Y-103187372D01*
X162280271Y-103227928D01*
X162260268Y-103327503D01*
X162226129Y-103416012D01*
X162169242Y-103513622D01*
X162139182Y-103558292D01*
X162082185Y-103643922D01*
X162045335Y-103712057D01*
X162022415Y-103780412D01*
X162007207Y-103866702D01*
X161995741Y-103966999D01*
X161984004Y-104133509D01*
X161988161Y-104270032D01*
X162001091Y-104359818D01*
X162015485Y-104453215D01*
X162017101Y-104534933D01*
X162005083Y-104627076D01*
X161987433Y-104712624D01*
X161956012Y-104903043D01*
X161955853Y-105068738D01*
X161989799Y-105223047D01*
X162060695Y-105379305D01*
X162163972Y-105540452D01*
X162228468Y-105654487D01*
X162259472Y-105777342D01*
X162262130Y-105799998D01*
X162306350Y-105989290D01*
X162397987Y-106160509D01*
X162536890Y-106313409D01*
X162621156Y-106380840D01*
X162727398Y-106461212D01*
X162848895Y-106557929D01*
X162963339Y-106653132D01*
X162989182Y-106675430D01*
X163161621Y-106806657D01*
X163348979Y-106916226D01*
X163537802Y-106997471D01*
X163714632Y-107043728D01*
X163740163Y-107047345D01*
X163849193Y-107066740D01*
X163960123Y-107095625D01*
X164011987Y-107113450D01*
X164145070Y-107159714D01*
X164294207Y-107201697D01*
X164443017Y-107235604D01*
X164575117Y-107257639D01*
X164662670Y-107264200D01*
X164740055Y-107270816D01*
X164849751Y-107288683D01*
X164975299Y-107314828D01*
X165066368Y-107337134D01*
X165229833Y-107375951D01*
X165356069Y-107396156D01*
X165454530Y-107399166D01*
X165471012Y-107397899D01*
X165543267Y-107395385D01*
X165614397Y-107405152D01*
X165699725Y-107430699D01*
X165814576Y-107475524D01*
X165819029Y-107477365D01*
X166007865Y-107542038D01*
X166168400Y-107568362D01*
X166298745Y-107556087D01*
X166331900Y-107544750D01*
X166374803Y-107517677D01*
X166443322Y-107464696D01*
X166526613Y-107395271D01*
X166613833Y-107318866D01*
X166694139Y-107244948D01*
X166756687Y-107182981D01*
X166787746Y-107146841D01*
X166813458Y-107095773D01*
X166843819Y-107015275D01*
X166865571Y-106945597D01*
X166900065Y-106845547D01*
X166942876Y-106750301D01*
X166970435Y-106702549D01*
X167014274Y-106621232D01*
X167043857Y-106536773D01*
X167047007Y-106521149D01*
X167052974Y-106445274D01*
X166900810Y-106445274D01*
X166884931Y-106540603D01*
X166841017Y-106623394D01*
X166799363Y-106702481D01*
X166759341Y-106803945D01*
X166739319Y-106869862D01*
X166711022Y-106959089D01*
X166672094Y-107033214D01*
X166611701Y-107109854D01*
X166554053Y-107171161D01*
X166436980Y-107285262D01*
X166339369Y-107361682D01*
X166249786Y-107403061D01*
X166156795Y-107412040D01*
X166048962Y-107391263D01*
X165914851Y-107343369D01*
X165876436Y-107327700D01*
X165752984Y-107280294D01*
X165653836Y-107252824D01*
X165558829Y-107240665D01*
X165488788Y-107238781D01*
X165360511Y-107229939D01*
X165209732Y-107205932D01*
X165087300Y-107177748D01*
X164948535Y-107146245D01*
X164792109Y-107119110D01*
X164648709Y-107101558D01*
X164630100Y-107100065D01*
X164418699Y-107075066D01*
X164229612Y-107033827D01*
X164075289Y-106979210D01*
X164048490Y-106966323D01*
X163990256Y-106945368D01*
X163898047Y-106921660D01*
X163788236Y-106899214D01*
X163743759Y-106891602D01*
X163598518Y-106861488D01*
X163459337Y-106820868D01*
X163360170Y-106781581D01*
X163285105Y-106738332D01*
X163196867Y-106676416D01*
X163104972Y-106604012D01*
X163018936Y-106529299D01*
X162948274Y-106460454D01*
X162902503Y-106405656D01*
X162890200Y-106377673D01*
X162907001Y-106351624D01*
X162954981Y-106361448D01*
X163030514Y-106406017D01*
X163066363Y-106432350D01*
X163171905Y-106512978D01*
X163247944Y-106567908D01*
X163305506Y-106602066D01*
X163355616Y-106620383D01*
X163409299Y-106627786D01*
X163477581Y-106629205D01*
X163506704Y-106629200D01*
X163605683Y-106631679D01*
X163676830Y-106643636D01*
X163742359Y-106671848D01*
X163824483Y-106723093D01*
X163832989Y-106728761D01*
X163931337Y-106788317D01*
X164018364Y-106822809D01*
X164120033Y-106841677D01*
X164153692Y-106845350D01*
X164305471Y-106867116D01*
X164477340Y-106902428D01*
X164650987Y-106946683D01*
X164808100Y-106995274D01*
X164916179Y-107037087D01*
X164996283Y-107070329D01*
X165053558Y-107083082D01*
X165110628Y-107077543D01*
X165170179Y-107061757D01*
X165255513Y-107040754D01*
X165330911Y-107028464D01*
X165354000Y-107027109D01*
X165404734Y-107029947D01*
X165493811Y-107037345D01*
X165609107Y-107048088D01*
X165738494Y-107060962D01*
X165869846Y-107074755D01*
X165991036Y-107088251D01*
X166089938Y-107100237D01*
X166107060Y-107102492D01*
X166234287Y-107095733D01*
X166349831Y-107043326D01*
X166448566Y-106949996D01*
X166525366Y-106820470D01*
X166572201Y-106673596D01*
X166609289Y-106547263D01*
X166658676Y-106444438D01*
X166715243Y-106370461D01*
X166773871Y-106330674D01*
X166829443Y-106330419D01*
X166869253Y-106363609D01*
X166900810Y-106445274D01*
X167052974Y-106445274D01*
X167053026Y-106444615D01*
X167041670Y-106373407D01*
X167008543Y-106300324D01*
X166949251Y-106218169D01*
X166859398Y-106119741D01*
X166734587Y-105997844D01*
X166717812Y-105982013D01*
X166610011Y-105880159D01*
X166533913Y-105805902D01*
X166484230Y-105752026D01*
X166455671Y-105711314D01*
X166442946Y-105676547D01*
X166440765Y-105640508D01*
X166442966Y-105607041D01*
X166451030Y-105466790D01*
X166448441Y-105350465D01*
X166433103Y-105236795D01*
X166402923Y-105104511D01*
X166387863Y-105047652D01*
X166354815Y-104917141D01*
X166340155Y-104822676D01*
X166346544Y-104751997D01*
X166376644Y-104692847D01*
X166433115Y-104632966D01*
X166488233Y-104585327D01*
X166601212Y-104490888D01*
X166584486Y-104321139D01*
X166578385Y-104202397D01*
X166588740Y-104113256D01*
X166607284Y-104056795D01*
X166638344Y-103995186D01*
X166675069Y-103968221D01*
X166737592Y-103961848D01*
X166743354Y-103961811D01*
X166798167Y-103960084D01*
X166841767Y-103951224D01*
X166885576Y-103928934D01*
X166941019Y-103886916D01*
X167019518Y-103818874D01*
X167047123Y-103794355D01*
X167163627Y-103690697D01*
X167247468Y-103614689D01*
X167303638Y-103559876D01*
X167337126Y-103519804D01*
X167352920Y-103488020D01*
X167356012Y-103458070D01*
X167351390Y-103423500D01*
X167348166Y-103404971D01*
X167343426Y-103332976D01*
X167357830Y-103258234D01*
X167395289Y-103161644D01*
X167400320Y-103150346D01*
X167432444Y-103076321D01*
X167451113Y-103019089D01*
X167457893Y-102962707D01*
X167454685Y-102898025D01*
X167273216Y-102898025D01*
X167261717Y-102955637D01*
X167235737Y-103017842D01*
X167218263Y-103053004D01*
X167168341Y-103183244D01*
X167139159Y-103324551D01*
X167137778Y-103338074D01*
X167128761Y-103416075D01*
X167113240Y-103473123D01*
X167083074Y-103524302D01*
X167030121Y-103584694D01*
X166973800Y-103641864D01*
X166823764Y-103791900D01*
X166675022Y-103787437D01*
X166576088Y-103790169D01*
X166517840Y-103804722D01*
X166506955Y-103814242D01*
X166491085Y-103858898D01*
X166472360Y-103938890D01*
X166453444Y-104039055D01*
X166437000Y-104144230D01*
X166425690Y-104239251D01*
X166422137Y-104297205D01*
X166410774Y-104368528D01*
X166373394Y-104439841D01*
X166320052Y-104507316D01*
X166258447Y-104589884D01*
X166208484Y-104676856D01*
X166189040Y-104724733D01*
X166176269Y-104778024D01*
X166174083Y-104830146D01*
X166184166Y-104894728D01*
X166208200Y-104985395D01*
X166230323Y-105058982D01*
X166263719Y-105172441D01*
X166282175Y-105252013D01*
X166287418Y-105311797D01*
X166281180Y-105365894D01*
X166272435Y-105402275D01*
X166253351Y-105496726D01*
X166243407Y-105591031D01*
X166243000Y-105608484D01*
X166231818Y-105689938D01*
X166202689Y-105746767D01*
X166166575Y-105765600D01*
X166136203Y-105752224D01*
X166102644Y-105730160D01*
X166083007Y-105709099D01*
X166067094Y-105672915D01*
X166053336Y-105613803D01*
X166040165Y-105523957D01*
X166026012Y-105395570D01*
X166017147Y-105304710D01*
X166003930Y-105150440D01*
X165993220Y-104996301D01*
X165985913Y-104857504D01*
X165982903Y-104749264D01*
X165982984Y-104724200D01*
X165988290Y-104410017D01*
X165994089Y-104138162D01*
X166000330Y-103910119D01*
X166006961Y-103727372D01*
X166013931Y-103591403D01*
X166021189Y-103503698D01*
X166026484Y-103471554D01*
X166043922Y-103425487D01*
X166072989Y-103409327D01*
X166131527Y-103414458D01*
X166141356Y-103416092D01*
X166268197Y-103412452D01*
X166332347Y-103392150D01*
X166426745Y-103367032D01*
X166539068Y-103357360D01*
X166564562Y-103357833D01*
X166649342Y-103357862D01*
X166705281Y-103344215D01*
X166753930Y-103309648D01*
X166778675Y-103285849D01*
X166842951Y-103196896D01*
X166869085Y-103096228D01*
X166886303Y-103015294D01*
X166919084Y-102911671D01*
X166959323Y-102810183D01*
X167000681Y-102710556D01*
X167022339Y-102632905D01*
X167025902Y-102588084D01*
X166855108Y-102588084D01*
X166814447Y-102731471D01*
X166792833Y-102772447D01*
X166749210Y-102863891D01*
X166717117Y-102961293D01*
X166710816Y-102991588D01*
X166678300Y-103090426D01*
X166620775Y-103148089D01*
X166541459Y-103161673D01*
X166525059Y-103159201D01*
X166460713Y-103159828D01*
X166377437Y-103176640D01*
X166345826Y-103186656D01*
X166213336Y-103214763D01*
X166091826Y-103211603D01*
X165999797Y-103204870D01*
X165934328Y-103212664D01*
X165890204Y-103241974D01*
X165862210Y-103299788D01*
X165845132Y-103393095D01*
X165833757Y-103528882D01*
X165831808Y-103560081D01*
X165826175Y-103739388D01*
X165829908Y-103916288D01*
X165842259Y-104064795D01*
X165855044Y-104177754D01*
X165857796Y-104261129D01*
X165849120Y-104335393D01*
X165827620Y-104421023D01*
X165815131Y-104462999D01*
X165786390Y-104566041D01*
X165773581Y-104645790D01*
X165774923Y-104726566D01*
X165788278Y-104830303D01*
X165803719Y-104951816D01*
X165816761Y-105099686D01*
X165827939Y-105281481D01*
X165837786Y-105504772D01*
X165839905Y-105562400D01*
X165836919Y-105629135D01*
X165826664Y-105713176D01*
X165823792Y-105730480D01*
X165805416Y-105835061D01*
X165902680Y-105853308D01*
X165987715Y-105875437D01*
X166064071Y-105904801D01*
X166069411Y-105907477D01*
X166134701Y-105928000D01*
X166225286Y-105941003D01*
X166280733Y-105943400D01*
X166408521Y-105956024D01*
X166498105Y-105996525D01*
X166556086Y-106068842D01*
X166575661Y-106119395D01*
X166588041Y-106171838D01*
X166586982Y-106219152D01*
X166569141Y-106276427D01*
X166531181Y-106358750D01*
X166515843Y-106389641D01*
X166469712Y-106490385D01*
X166431794Y-106588528D01*
X166409961Y-106663600D01*
X166409426Y-106666422D01*
X166373809Y-106795432D01*
X166320615Y-106880388D01*
X166246792Y-106925917D01*
X166236331Y-106928969D01*
X166186707Y-106939913D01*
X166140486Y-106942112D01*
X166083436Y-106933915D01*
X166001326Y-106913671D01*
X165927240Y-106893120D01*
X165835397Y-106874876D01*
X165719326Y-106862118D01*
X165636117Y-106858693D01*
X165100000Y-106858693D01*
X165081856Y-106898326D01*
X165037700Y-106907659D01*
X164982953Y-106885788D01*
X164960300Y-106866871D01*
X164932792Y-106830319D01*
X164944587Y-106799771D01*
X164955523Y-106788191D01*
X165004527Y-106768495D01*
X165057019Y-106784726D01*
X165093639Y-106827436D01*
X165100000Y-106858693D01*
X165636117Y-106858693D01*
X165614421Y-106857800D01*
X165504496Y-106855174D01*
X165423513Y-106842978D01*
X165352888Y-106814732D01*
X165274039Y-106763960D01*
X165211627Y-106717376D01*
X165120330Y-106652116D01*
X165051667Y-106619889D01*
X164990644Y-106619600D01*
X164922268Y-106650152D01*
X164858693Y-106691576D01*
X164784390Y-106741174D01*
X164735596Y-106765397D01*
X164696373Y-106768241D01*
X164650783Y-106753702D01*
X164635721Y-106747485D01*
X164571073Y-106729222D01*
X164472553Y-106711471D01*
X164357038Y-106697030D01*
X164302851Y-106692271D01*
X164181480Y-106681348D01*
X164094125Y-106667121D01*
X164024015Y-106645016D01*
X163954381Y-106610460D01*
X163912367Y-106585796D01*
X163780925Y-106520051D01*
X163654583Y-106488613D01*
X163626800Y-106485638D01*
X163515635Y-106474601D01*
X163437490Y-106460063D01*
X163374681Y-106435401D01*
X163309524Y-106393989D01*
X163238405Y-106340144D01*
X163134618Y-106269913D01*
X163011731Y-106201422D01*
X162914539Y-106157115D01*
X162777592Y-106090626D01*
X162663879Y-106004051D01*
X162564822Y-105888502D01*
X162471838Y-105735089D01*
X162433063Y-105658324D01*
X162377529Y-105545623D01*
X162320373Y-105432972D01*
X162271875Y-105340555D01*
X162261514Y-105321536D01*
X162191700Y-105194972D01*
X162189323Y-104623036D01*
X162189347Y-104390572D01*
X162192128Y-104202042D01*
X162198531Y-104050617D01*
X162209417Y-103929466D01*
X162225648Y-103831760D01*
X162248089Y-103750668D01*
X162277602Y-103679360D01*
X162315048Y-103611006D01*
X162317719Y-103606600D01*
X162372593Y-103501318D01*
X162421174Y-103382674D01*
X162442248Y-103315601D01*
X162472470Y-103222102D01*
X162508994Y-103139740D01*
X162534018Y-103099701D01*
X162618484Y-102994324D01*
X162675364Y-102918464D01*
X162709447Y-102862494D01*
X162725526Y-102816785D01*
X162728392Y-102771711D01*
X162723107Y-102719708D01*
X162717147Y-102642908D01*
X162729101Y-102593580D01*
X162765095Y-102549782D01*
X162772495Y-102542755D01*
X162832968Y-102500454D01*
X162896889Y-102494767D01*
X162916581Y-102498086D01*
X162974233Y-102503551D01*
X163029107Y-102491645D01*
X163090564Y-102457212D01*
X163167965Y-102395099D01*
X163263348Y-102307129D01*
X163383065Y-102201893D01*
X163486307Y-102133815D01*
X163584814Y-102097808D01*
X163690327Y-102088786D01*
X163756315Y-102093564D01*
X163849052Y-102099109D01*
X163931854Y-102089522D01*
X164027922Y-102061256D01*
X164071302Y-102045419D01*
X164163891Y-102013204D01*
X164243643Y-101990103D01*
X164293632Y-101981005D01*
X164294343Y-101980999D01*
X164365083Y-101998671D01*
X164452874Y-102044875D01*
X164541915Y-102109398D01*
X164616405Y-102182024D01*
X164628444Y-102196985D01*
X164676201Y-102249901D01*
X164716063Y-102277658D01*
X164727668Y-102278824D01*
X164747049Y-102250040D01*
X164763681Y-102187434D01*
X164769800Y-102144130D01*
X164782500Y-102019100D01*
X164998400Y-102027376D01*
X165106556Y-102030193D01*
X165178765Y-102026746D01*
X165229763Y-102014260D01*
X165274283Y-101989960D01*
X165301785Y-101970226D01*
X165382435Y-101917878D01*
X165434654Y-101905523D01*
X165462643Y-101934222D01*
X165470600Y-102005030D01*
X165470493Y-102012750D01*
X165468300Y-102120700D01*
X165595300Y-102117601D01*
X165683184Y-102114953D01*
X165798993Y-102110799D01*
X165919906Y-102105964D01*
X165938200Y-102105182D01*
X166061312Y-102103551D01*
X166207753Y-102107165D01*
X166360990Y-102115072D01*
X166504493Y-102126315D01*
X166621729Y-102139941D01*
X166664080Y-102147099D01*
X166709231Y-102176816D01*
X166761555Y-102243420D01*
X166786183Y-102284943D01*
X166845678Y-102438664D01*
X166855108Y-102588084D01*
X167025902Y-102588084D01*
X167028578Y-102554422D01*
X167024468Y-102463091D01*
X167019310Y-102371874D01*
X167021426Y-102321544D01*
X167032544Y-102302491D01*
X167052996Y-102304600D01*
X167131510Y-102350825D01*
X167190529Y-102429954D01*
X167232759Y-102547395D01*
X167260909Y-102708558D01*
X167262621Y-102723391D01*
X167272696Y-102826710D01*
X167273216Y-102898025D01*
X167454685Y-102898025D01*
X167454348Y-102891232D01*
X167442045Y-102788723D01*
X167438485Y-102761687D01*
X167420238Y-102643151D01*
X167398460Y-102530608D01*
X167376946Y-102442931D01*
X167370019Y-102421153D01*
X167311352Y-102315729D01*
X167213355Y-102207564D01*
X167085969Y-102106274D01*
X166975542Y-102039764D01*
X166910001Y-102008081D01*
X166846764Y-101986145D01*
X166772637Y-101971344D01*
X166674424Y-101961060D01*
X166538931Y-101952680D01*
X166535100Y-101952480D01*
X166305120Y-101938148D01*
X166119305Y-101920848D01*
X165971051Y-101899410D01*
X165853757Y-101872664D01*
X165760819Y-101839439D01*
X165692705Y-101803133D01*
X165561690Y-101744165D01*
X165425535Y-101725082D01*
X165297563Y-101746696D01*
M02*
