%TF.GenerationSoftware,KiCad,Pcbnew,(5.1.6)-1*%
%TF.CreationDate,2020-12-09T16:37:23-06:00*%
%TF.ProjectId,WiperModule,57697065-724d-46f6-9475-6c652e6b6963,rev?*%
%TF.SameCoordinates,Original*%
%TF.FileFunction,Copper,L1,Top*%
%TF.FilePolarity,Positive*%
%FSLAX46Y46*%
G04 Gerber Fmt 4.6, Leading zero omitted, Abs format (unit mm)*
G04 Created by KiCad (PCBNEW (5.1.6)-1) date 2020-12-09 16:37:23*
%MOMM*%
%LPD*%
G01*
G04 APERTURE LIST*
%TA.AperFunction,ComponentPad*%
%ADD10C,2.300000*%
%TD*%
%TA.AperFunction,ComponentPad*%
%ADD11R,2.300000X2.300000*%
%TD*%
%TA.AperFunction,WasherPad*%
%ADD12C,3.302000*%
%TD*%
%TA.AperFunction,ComponentPad*%
%ADD13C,3.302000*%
%TD*%
%TA.AperFunction,ComponentPad*%
%ADD14C,7.500000*%
%TD*%
%TA.AperFunction,Conductor*%
%ADD15C,0.250000*%
%TD*%
%TA.AperFunction,Conductor*%
%ADD16C,0.254000*%
%TD*%
G04 APERTURE END LIST*
D10*
X160250000Y-99410000D03*
X160250000Y-111410000D03*
X148050000Y-99410000D03*
X148050000Y-111410000D03*
D11*
X146050000Y-105410000D03*
D10*
X160250000Y-80360000D03*
X160250000Y-92360000D03*
X148050000Y-80360000D03*
X148050000Y-92360000D03*
D11*
X146050000Y-86360000D03*
D10*
X140112000Y-100306000D03*
X128112000Y-100306000D03*
X140112000Y-88106000D03*
X128112000Y-88106000D03*
D11*
X134112000Y-86106000D03*
D12*
X118872000Y-101346000D03*
X118872000Y-80518000D03*
D13*
X121094500Y-86372700D03*
X116649500Y-86372700D03*
X116649500Y-95491300D03*
X121094500Y-95491300D03*
D12*
X172720000Y-80518000D03*
X172720000Y-101346000D03*
D13*
X170497500Y-95491300D03*
X174942500Y-95491300D03*
X174942500Y-86372700D03*
X170497500Y-86372700D03*
D14*
X120650000Y-109220000D03*
X171450000Y-109220000D03*
D15*
X114173000Y-88849200D02*
X116649500Y-86372700D01*
X114173000Y-109601000D02*
X114173000Y-88849200D01*
X178308000Y-98856800D02*
X178308000Y-111252000D01*
X178308000Y-111252000D02*
X174498000Y-115062000D01*
X119634000Y-115062000D02*
X114173000Y-109601000D01*
X174942500Y-95491300D02*
X178308000Y-98856800D01*
X174498000Y-115062000D02*
X119634000Y-115062000D01*
D16*
G36*
X176920765Y-76904388D02*
G01*
X177101260Y-76988555D01*
X177264390Y-77102780D01*
X177405220Y-77243610D01*
X177519445Y-77406740D01*
X177603612Y-77587235D01*
X177655157Y-77779605D01*
X177673000Y-77983548D01*
X177673000Y-91180452D01*
X177655157Y-91384395D01*
X177603612Y-91576765D01*
X177519445Y-91757260D01*
X177405220Y-91920390D01*
X177264390Y-92061220D01*
X177101260Y-92175445D01*
X176920765Y-92259612D01*
X176728395Y-92311157D01*
X176524452Y-92329000D01*
X168148000Y-92329000D01*
X168135552Y-92329612D01*
X167937340Y-92349134D01*
X167912922Y-92353991D01*
X167722328Y-92411807D01*
X167699326Y-92421334D01*
X167523673Y-92515223D01*
X167502973Y-92529055D01*
X167349012Y-92655408D01*
X167331408Y-92673012D01*
X167205055Y-92826973D01*
X167191223Y-92847673D01*
X167097334Y-93023326D01*
X167087807Y-93046328D01*
X167029991Y-93236922D01*
X167025134Y-93261340D01*
X166987316Y-93645316D01*
X166936763Y-93811966D01*
X166854664Y-93965562D01*
X166744183Y-94100183D01*
X166609562Y-94210664D01*
X166455966Y-94292763D01*
X166289316Y-94343316D01*
X166109766Y-94361000D01*
X155707548Y-94361000D01*
X155503605Y-94343157D01*
X155311235Y-94291612D01*
X155130740Y-94207445D01*
X154967610Y-94093220D01*
X154826780Y-93952390D01*
X154712555Y-93789260D01*
X154628388Y-93608765D01*
X154576843Y-93416395D01*
X154559000Y-93212452D01*
X154559000Y-86147549D01*
X172656500Y-86147549D01*
X172656500Y-86597851D01*
X172744350Y-87039502D01*
X172916673Y-87455527D01*
X173166848Y-87829940D01*
X173485260Y-88148352D01*
X173859673Y-88398527D01*
X174275698Y-88570850D01*
X174717349Y-88658700D01*
X175167651Y-88658700D01*
X175609302Y-88570850D01*
X176025327Y-88398527D01*
X176399740Y-88148352D01*
X176718152Y-87829940D01*
X176968327Y-87455527D01*
X177140650Y-87039502D01*
X177228500Y-86597851D01*
X177228500Y-86147549D01*
X177140650Y-85705898D01*
X176968327Y-85289873D01*
X176718152Y-84915460D01*
X176399740Y-84597048D01*
X176025327Y-84346873D01*
X175609302Y-84174550D01*
X175167651Y-84086700D01*
X174717349Y-84086700D01*
X174275698Y-84174550D01*
X173859673Y-84346873D01*
X173485260Y-84597048D01*
X173166848Y-84915460D01*
X172916673Y-85289873D01*
X172744350Y-85705898D01*
X172656500Y-86147549D01*
X154559000Y-86147549D01*
X154559000Y-80184193D01*
X158465000Y-80184193D01*
X158465000Y-80535807D01*
X158533596Y-80880665D01*
X158668153Y-81205515D01*
X158863500Y-81497871D01*
X159112129Y-81746500D01*
X159404485Y-81941847D01*
X159729335Y-82076404D01*
X160074193Y-82145000D01*
X160425807Y-82145000D01*
X160770665Y-82076404D01*
X161095515Y-81941847D01*
X161387871Y-81746500D01*
X161636500Y-81497871D01*
X161831847Y-81205515D01*
X161966404Y-80880665D01*
X162035000Y-80535807D01*
X162035000Y-80292849D01*
X170434000Y-80292849D01*
X170434000Y-80743151D01*
X170521850Y-81184802D01*
X170694173Y-81600827D01*
X170944348Y-81975240D01*
X171262760Y-82293652D01*
X171637173Y-82543827D01*
X172053198Y-82716150D01*
X172494849Y-82804000D01*
X172945151Y-82804000D01*
X173386802Y-82716150D01*
X173802827Y-82543827D01*
X174177240Y-82293652D01*
X174495652Y-81975240D01*
X174745827Y-81600827D01*
X174918150Y-81184802D01*
X175006000Y-80743151D01*
X175006000Y-80292849D01*
X174918150Y-79851198D01*
X174745827Y-79435173D01*
X174495652Y-79060760D01*
X174177240Y-78742348D01*
X173802827Y-78492173D01*
X173386802Y-78319850D01*
X172945151Y-78232000D01*
X172494849Y-78232000D01*
X172053198Y-78319850D01*
X171637173Y-78492173D01*
X171262760Y-78742348D01*
X170944348Y-79060760D01*
X170694173Y-79435173D01*
X170521850Y-79851198D01*
X170434000Y-80292849D01*
X162035000Y-80292849D01*
X162035000Y-80184193D01*
X161966404Y-79839335D01*
X161831847Y-79514485D01*
X161636500Y-79222129D01*
X161387871Y-78973500D01*
X161095515Y-78778153D01*
X160770665Y-78643596D01*
X160425807Y-78575000D01*
X160074193Y-78575000D01*
X159729335Y-78643596D01*
X159404485Y-78778153D01*
X159112129Y-78973500D01*
X158863500Y-79222129D01*
X158668153Y-79514485D01*
X158533596Y-79839335D01*
X158465000Y-80184193D01*
X154559000Y-80184193D01*
X154559000Y-77983548D01*
X154576843Y-77779605D01*
X154628388Y-77587235D01*
X154712555Y-77406740D01*
X154826780Y-77243610D01*
X154967610Y-77102780D01*
X155130740Y-76988555D01*
X155311235Y-76904388D01*
X155476895Y-76860000D01*
X176755105Y-76860000D01*
X176920765Y-76904388D01*
G37*
X176920765Y-76904388D02*
X177101260Y-76988555D01*
X177264390Y-77102780D01*
X177405220Y-77243610D01*
X177519445Y-77406740D01*
X177603612Y-77587235D01*
X177655157Y-77779605D01*
X177673000Y-77983548D01*
X177673000Y-91180452D01*
X177655157Y-91384395D01*
X177603612Y-91576765D01*
X177519445Y-91757260D01*
X177405220Y-91920390D01*
X177264390Y-92061220D01*
X177101260Y-92175445D01*
X176920765Y-92259612D01*
X176728395Y-92311157D01*
X176524452Y-92329000D01*
X168148000Y-92329000D01*
X168135552Y-92329612D01*
X167937340Y-92349134D01*
X167912922Y-92353991D01*
X167722328Y-92411807D01*
X167699326Y-92421334D01*
X167523673Y-92515223D01*
X167502973Y-92529055D01*
X167349012Y-92655408D01*
X167331408Y-92673012D01*
X167205055Y-92826973D01*
X167191223Y-92847673D01*
X167097334Y-93023326D01*
X167087807Y-93046328D01*
X167029991Y-93236922D01*
X167025134Y-93261340D01*
X166987316Y-93645316D01*
X166936763Y-93811966D01*
X166854664Y-93965562D01*
X166744183Y-94100183D01*
X166609562Y-94210664D01*
X166455966Y-94292763D01*
X166289316Y-94343316D01*
X166109766Y-94361000D01*
X155707548Y-94361000D01*
X155503605Y-94343157D01*
X155311235Y-94291612D01*
X155130740Y-94207445D01*
X154967610Y-94093220D01*
X154826780Y-93952390D01*
X154712555Y-93789260D01*
X154628388Y-93608765D01*
X154576843Y-93416395D01*
X154559000Y-93212452D01*
X154559000Y-86147549D01*
X172656500Y-86147549D01*
X172656500Y-86597851D01*
X172744350Y-87039502D01*
X172916673Y-87455527D01*
X173166848Y-87829940D01*
X173485260Y-88148352D01*
X173859673Y-88398527D01*
X174275698Y-88570850D01*
X174717349Y-88658700D01*
X175167651Y-88658700D01*
X175609302Y-88570850D01*
X176025327Y-88398527D01*
X176399740Y-88148352D01*
X176718152Y-87829940D01*
X176968327Y-87455527D01*
X177140650Y-87039502D01*
X177228500Y-86597851D01*
X177228500Y-86147549D01*
X177140650Y-85705898D01*
X176968327Y-85289873D01*
X176718152Y-84915460D01*
X176399740Y-84597048D01*
X176025327Y-84346873D01*
X175609302Y-84174550D01*
X175167651Y-84086700D01*
X174717349Y-84086700D01*
X174275698Y-84174550D01*
X173859673Y-84346873D01*
X173485260Y-84597048D01*
X173166848Y-84915460D01*
X172916673Y-85289873D01*
X172744350Y-85705898D01*
X172656500Y-86147549D01*
X154559000Y-86147549D01*
X154559000Y-80184193D01*
X158465000Y-80184193D01*
X158465000Y-80535807D01*
X158533596Y-80880665D01*
X158668153Y-81205515D01*
X158863500Y-81497871D01*
X159112129Y-81746500D01*
X159404485Y-81941847D01*
X159729335Y-82076404D01*
X160074193Y-82145000D01*
X160425807Y-82145000D01*
X160770665Y-82076404D01*
X161095515Y-81941847D01*
X161387871Y-81746500D01*
X161636500Y-81497871D01*
X161831847Y-81205515D01*
X161966404Y-80880665D01*
X162035000Y-80535807D01*
X162035000Y-80292849D01*
X170434000Y-80292849D01*
X170434000Y-80743151D01*
X170521850Y-81184802D01*
X170694173Y-81600827D01*
X170944348Y-81975240D01*
X171262760Y-82293652D01*
X171637173Y-82543827D01*
X172053198Y-82716150D01*
X172494849Y-82804000D01*
X172945151Y-82804000D01*
X173386802Y-82716150D01*
X173802827Y-82543827D01*
X174177240Y-82293652D01*
X174495652Y-81975240D01*
X174745827Y-81600827D01*
X174918150Y-81184802D01*
X175006000Y-80743151D01*
X175006000Y-80292849D01*
X174918150Y-79851198D01*
X174745827Y-79435173D01*
X174495652Y-79060760D01*
X174177240Y-78742348D01*
X173802827Y-78492173D01*
X173386802Y-78319850D01*
X172945151Y-78232000D01*
X172494849Y-78232000D01*
X172053198Y-78319850D01*
X171637173Y-78492173D01*
X171262760Y-78742348D01*
X170944348Y-79060760D01*
X170694173Y-79435173D01*
X170521850Y-79851198D01*
X170434000Y-80292849D01*
X162035000Y-80292849D01*
X162035000Y-80184193D01*
X161966404Y-79839335D01*
X161831847Y-79514485D01*
X161636500Y-79222129D01*
X161387871Y-78973500D01*
X161095515Y-78778153D01*
X160770665Y-78643596D01*
X160425807Y-78575000D01*
X160074193Y-78575000D01*
X159729335Y-78643596D01*
X159404485Y-78778153D01*
X159112129Y-78973500D01*
X158863500Y-79222129D01*
X158668153Y-79514485D01*
X158533596Y-79839335D01*
X158465000Y-80184193D01*
X154559000Y-80184193D01*
X154559000Y-77983548D01*
X154576843Y-77779605D01*
X154628388Y-77587235D01*
X154712555Y-77406740D01*
X154826780Y-77243610D01*
X154967610Y-77102780D01*
X155130740Y-76988555D01*
X155311235Y-76904388D01*
X155476895Y-76860000D01*
X176755105Y-76860000D01*
X176920765Y-76904388D01*
G36*
X176728395Y-93108843D02*
G01*
X176920765Y-93160388D01*
X177101260Y-93244555D01*
X177264390Y-93358780D01*
X177405220Y-93499610D01*
X177519445Y-93662740D01*
X177603612Y-93843235D01*
X177655157Y-94035605D01*
X177673000Y-94239548D01*
X177673000Y-97146998D01*
X177006931Y-96480929D01*
X177140650Y-96158102D01*
X177228500Y-95716451D01*
X177228500Y-95266149D01*
X177140650Y-94824498D01*
X176968327Y-94408473D01*
X176718152Y-94034060D01*
X176399740Y-93715648D01*
X176025327Y-93465473D01*
X175609302Y-93293150D01*
X175167651Y-93205300D01*
X174717349Y-93205300D01*
X174275698Y-93293150D01*
X173859673Y-93465473D01*
X173485260Y-93715648D01*
X173166848Y-94034060D01*
X172916673Y-94408473D01*
X172744350Y-94824498D01*
X172656500Y-95266149D01*
X172656500Y-95716451D01*
X172744350Y-96158102D01*
X172916673Y-96574127D01*
X173166848Y-96948540D01*
X173485260Y-97266952D01*
X173859673Y-97517127D01*
X174275698Y-97689450D01*
X174717349Y-97777300D01*
X175167651Y-97777300D01*
X175609302Y-97689450D01*
X175932129Y-97555731D01*
X177548000Y-99171602D01*
X177548001Y-110937197D01*
X174183199Y-114302000D01*
X123360390Y-114302000D01*
X123330780Y-114272390D01*
X123216555Y-114109260D01*
X123132388Y-113928765D01*
X123080843Y-113736395D01*
X123063000Y-113532452D01*
X123063000Y-112881479D01*
X123445274Y-112626052D01*
X124056052Y-112015274D01*
X124535936Y-111297076D01*
X124561983Y-111234193D01*
X146265000Y-111234193D01*
X146265000Y-111585807D01*
X146333596Y-111930665D01*
X146468153Y-112255515D01*
X146663500Y-112547871D01*
X146912129Y-112796500D01*
X147204485Y-112991847D01*
X147529335Y-113126404D01*
X147874193Y-113195000D01*
X148225807Y-113195000D01*
X148570665Y-113126404D01*
X148895515Y-112991847D01*
X149187871Y-112796500D01*
X149436500Y-112547871D01*
X149631847Y-112255515D01*
X149766404Y-111930665D01*
X149835000Y-111585807D01*
X149835000Y-111234193D01*
X158465000Y-111234193D01*
X158465000Y-111585807D01*
X158533596Y-111930665D01*
X158668153Y-112255515D01*
X158863500Y-112547871D01*
X159112129Y-112796500D01*
X159404485Y-112991847D01*
X159729335Y-113126404D01*
X160074193Y-113195000D01*
X160425807Y-113195000D01*
X160770665Y-113126404D01*
X161095515Y-112991847D01*
X161387871Y-112796500D01*
X161636500Y-112547871D01*
X161831847Y-112255515D01*
X161966404Y-111930665D01*
X162035000Y-111585807D01*
X162035000Y-111234193D01*
X161966404Y-110889335D01*
X161831847Y-110564485D01*
X161636500Y-110272129D01*
X161387871Y-110023500D01*
X161095515Y-109828153D01*
X160770665Y-109693596D01*
X160425807Y-109625000D01*
X160074193Y-109625000D01*
X159729335Y-109693596D01*
X159404485Y-109828153D01*
X159112129Y-110023500D01*
X158863500Y-110272129D01*
X158668153Y-110564485D01*
X158533596Y-110889335D01*
X158465000Y-111234193D01*
X149835000Y-111234193D01*
X149766404Y-110889335D01*
X149631847Y-110564485D01*
X149436500Y-110272129D01*
X149187871Y-110023500D01*
X148895515Y-109828153D01*
X148570665Y-109693596D01*
X148225807Y-109625000D01*
X147874193Y-109625000D01*
X147529335Y-109693596D01*
X147204485Y-109828153D01*
X146912129Y-110023500D01*
X146663500Y-110272129D01*
X146468153Y-110564485D01*
X146333596Y-110889335D01*
X146265000Y-111234193D01*
X124561983Y-111234193D01*
X124866487Y-110499057D01*
X125035000Y-109651885D01*
X125035000Y-108788115D01*
X167065000Y-108788115D01*
X167065000Y-109651885D01*
X167233513Y-110499057D01*
X167564064Y-111297076D01*
X168043948Y-112015274D01*
X168654726Y-112626052D01*
X169372924Y-113105936D01*
X170170943Y-113436487D01*
X171018115Y-113605000D01*
X171881885Y-113605000D01*
X172729057Y-113436487D01*
X173527076Y-113105936D01*
X174245274Y-112626052D01*
X174856052Y-112015274D01*
X175335936Y-111297076D01*
X175666487Y-110499057D01*
X175835000Y-109651885D01*
X175835000Y-108788115D01*
X175666487Y-107940943D01*
X175335936Y-107142924D01*
X174856052Y-106424726D01*
X174245274Y-105813948D01*
X173527076Y-105334064D01*
X172729057Y-105003513D01*
X171881885Y-104835000D01*
X171018115Y-104835000D01*
X170170943Y-105003513D01*
X169372924Y-105334064D01*
X168654726Y-105813948D01*
X168043948Y-106424726D01*
X167564064Y-107142924D01*
X167233513Y-107940943D01*
X167065000Y-108788115D01*
X125035000Y-108788115D01*
X124866487Y-107940943D01*
X124535936Y-107142924D01*
X124056052Y-106424726D01*
X123445274Y-105813948D01*
X123063000Y-105558521D01*
X123063000Y-104260000D01*
X144261928Y-104260000D01*
X144261928Y-106560000D01*
X144274188Y-106684482D01*
X144310498Y-106804180D01*
X144369463Y-106914494D01*
X144448815Y-107011185D01*
X144545506Y-107090537D01*
X144655820Y-107149502D01*
X144775518Y-107185812D01*
X144900000Y-107198072D01*
X147200000Y-107198072D01*
X147324482Y-107185812D01*
X147444180Y-107149502D01*
X147554494Y-107090537D01*
X147651185Y-107011185D01*
X147730537Y-106914494D01*
X147789502Y-106804180D01*
X147825812Y-106684482D01*
X147838072Y-106560000D01*
X147838072Y-104260000D01*
X147825812Y-104135518D01*
X147789502Y-104015820D01*
X147730537Y-103905506D01*
X147651185Y-103808815D01*
X147554494Y-103729463D01*
X147444180Y-103670498D01*
X147324482Y-103634188D01*
X147200000Y-103621928D01*
X144900000Y-103621928D01*
X144775518Y-103634188D01*
X144655820Y-103670498D01*
X144545506Y-103729463D01*
X144448815Y-103808815D01*
X144369463Y-103905506D01*
X144310498Y-104015820D01*
X144274188Y-104135518D01*
X144261928Y-104260000D01*
X123063000Y-104260000D01*
X123063000Y-100130193D01*
X138327000Y-100130193D01*
X138327000Y-100481807D01*
X138395596Y-100826665D01*
X138530153Y-101151515D01*
X138725500Y-101443871D01*
X138974129Y-101692500D01*
X139266485Y-101887847D01*
X139591335Y-102022404D01*
X139936193Y-102091000D01*
X140287807Y-102091000D01*
X140632665Y-102022404D01*
X140957515Y-101887847D01*
X141249871Y-101692500D01*
X141498500Y-101443871D01*
X141693847Y-101151515D01*
X141828404Y-100826665D01*
X141897000Y-100481807D01*
X141897000Y-100130193D01*
X141828404Y-99785335D01*
X141693847Y-99460485D01*
X141542643Y-99234193D01*
X146265000Y-99234193D01*
X146265000Y-99585807D01*
X146333596Y-99930665D01*
X146468153Y-100255515D01*
X146663500Y-100547871D01*
X146912129Y-100796500D01*
X147204485Y-100991847D01*
X147529335Y-101126404D01*
X147874193Y-101195000D01*
X148225807Y-101195000D01*
X148570665Y-101126404D01*
X148584075Y-101120849D01*
X170434000Y-101120849D01*
X170434000Y-101571151D01*
X170521850Y-102012802D01*
X170694173Y-102428827D01*
X170944348Y-102803240D01*
X171262760Y-103121652D01*
X171637173Y-103371827D01*
X172053198Y-103544150D01*
X172494849Y-103632000D01*
X172945151Y-103632000D01*
X173386802Y-103544150D01*
X173802827Y-103371827D01*
X174177240Y-103121652D01*
X174495652Y-102803240D01*
X174745827Y-102428827D01*
X174918150Y-102012802D01*
X175006000Y-101571151D01*
X175006000Y-101120849D01*
X174918150Y-100679198D01*
X174745827Y-100263173D01*
X174495652Y-99888760D01*
X174177240Y-99570348D01*
X173802827Y-99320173D01*
X173386802Y-99147850D01*
X172945151Y-99060000D01*
X172494849Y-99060000D01*
X172053198Y-99147850D01*
X171637173Y-99320173D01*
X171262760Y-99570348D01*
X170944348Y-99888760D01*
X170694173Y-100263173D01*
X170521850Y-100679198D01*
X170434000Y-101120849D01*
X148584075Y-101120849D01*
X148895515Y-100991847D01*
X149187871Y-100796500D01*
X149436500Y-100547871D01*
X149631847Y-100255515D01*
X149766404Y-99930665D01*
X149835000Y-99585807D01*
X149835000Y-99234193D01*
X149766404Y-98889335D01*
X149631847Y-98564485D01*
X149436500Y-98272129D01*
X149187871Y-98023500D01*
X148895515Y-97828153D01*
X148570665Y-97693596D01*
X148225807Y-97625000D01*
X147874193Y-97625000D01*
X147529335Y-97693596D01*
X147204485Y-97828153D01*
X146912129Y-98023500D01*
X146663500Y-98272129D01*
X146468153Y-98564485D01*
X146333596Y-98889335D01*
X146265000Y-99234193D01*
X141542643Y-99234193D01*
X141498500Y-99168129D01*
X141249871Y-98919500D01*
X140957515Y-98724153D01*
X140632665Y-98589596D01*
X140287807Y-98521000D01*
X139936193Y-98521000D01*
X139591335Y-98589596D01*
X139266485Y-98724153D01*
X138974129Y-98919500D01*
X138725500Y-99168129D01*
X138530153Y-99460485D01*
X138395596Y-99785335D01*
X138327000Y-100130193D01*
X123063000Y-100130193D01*
X123063000Y-96659923D01*
X123120327Y-96574127D01*
X123292650Y-96158102D01*
X123380500Y-95716451D01*
X123380500Y-95481890D01*
X123471610Y-95390780D01*
X123634740Y-95276555D01*
X123815235Y-95192388D01*
X124007605Y-95140843D01*
X124211548Y-95123000D01*
X166624000Y-95123000D01*
X166636448Y-95122388D01*
X166834660Y-95102866D01*
X166859078Y-95098009D01*
X167049672Y-95040193D01*
X167072674Y-95030666D01*
X167248327Y-94936777D01*
X167269027Y-94922945D01*
X167422988Y-94796592D01*
X167440592Y-94778988D01*
X167566945Y-94625027D01*
X167580777Y-94604327D01*
X167674666Y-94428674D01*
X167684193Y-94405672D01*
X167742009Y-94215078D01*
X167746866Y-94190660D01*
X167784684Y-93806684D01*
X167835237Y-93640034D01*
X167917336Y-93486438D01*
X168027817Y-93351817D01*
X168162438Y-93241336D01*
X168316034Y-93159237D01*
X168482684Y-93108684D01*
X168662234Y-93091000D01*
X176524452Y-93091000D01*
X176728395Y-93108843D01*
G37*
X176728395Y-93108843D02*
X176920765Y-93160388D01*
X177101260Y-93244555D01*
X177264390Y-93358780D01*
X177405220Y-93499610D01*
X177519445Y-93662740D01*
X177603612Y-93843235D01*
X177655157Y-94035605D01*
X177673000Y-94239548D01*
X177673000Y-97146998D01*
X177006931Y-96480929D01*
X177140650Y-96158102D01*
X177228500Y-95716451D01*
X177228500Y-95266149D01*
X177140650Y-94824498D01*
X176968327Y-94408473D01*
X176718152Y-94034060D01*
X176399740Y-93715648D01*
X176025327Y-93465473D01*
X175609302Y-93293150D01*
X175167651Y-93205300D01*
X174717349Y-93205300D01*
X174275698Y-93293150D01*
X173859673Y-93465473D01*
X173485260Y-93715648D01*
X173166848Y-94034060D01*
X172916673Y-94408473D01*
X172744350Y-94824498D01*
X172656500Y-95266149D01*
X172656500Y-95716451D01*
X172744350Y-96158102D01*
X172916673Y-96574127D01*
X173166848Y-96948540D01*
X173485260Y-97266952D01*
X173859673Y-97517127D01*
X174275698Y-97689450D01*
X174717349Y-97777300D01*
X175167651Y-97777300D01*
X175609302Y-97689450D01*
X175932129Y-97555731D01*
X177548000Y-99171602D01*
X177548001Y-110937197D01*
X174183199Y-114302000D01*
X123360390Y-114302000D01*
X123330780Y-114272390D01*
X123216555Y-114109260D01*
X123132388Y-113928765D01*
X123080843Y-113736395D01*
X123063000Y-113532452D01*
X123063000Y-112881479D01*
X123445274Y-112626052D01*
X124056052Y-112015274D01*
X124535936Y-111297076D01*
X124561983Y-111234193D01*
X146265000Y-111234193D01*
X146265000Y-111585807D01*
X146333596Y-111930665D01*
X146468153Y-112255515D01*
X146663500Y-112547871D01*
X146912129Y-112796500D01*
X147204485Y-112991847D01*
X147529335Y-113126404D01*
X147874193Y-113195000D01*
X148225807Y-113195000D01*
X148570665Y-113126404D01*
X148895515Y-112991847D01*
X149187871Y-112796500D01*
X149436500Y-112547871D01*
X149631847Y-112255515D01*
X149766404Y-111930665D01*
X149835000Y-111585807D01*
X149835000Y-111234193D01*
X158465000Y-111234193D01*
X158465000Y-111585807D01*
X158533596Y-111930665D01*
X158668153Y-112255515D01*
X158863500Y-112547871D01*
X159112129Y-112796500D01*
X159404485Y-112991847D01*
X159729335Y-113126404D01*
X160074193Y-113195000D01*
X160425807Y-113195000D01*
X160770665Y-113126404D01*
X161095515Y-112991847D01*
X161387871Y-112796500D01*
X161636500Y-112547871D01*
X161831847Y-112255515D01*
X161966404Y-111930665D01*
X162035000Y-111585807D01*
X162035000Y-111234193D01*
X161966404Y-110889335D01*
X161831847Y-110564485D01*
X161636500Y-110272129D01*
X161387871Y-110023500D01*
X161095515Y-109828153D01*
X160770665Y-109693596D01*
X160425807Y-109625000D01*
X160074193Y-109625000D01*
X159729335Y-109693596D01*
X159404485Y-109828153D01*
X159112129Y-110023500D01*
X158863500Y-110272129D01*
X158668153Y-110564485D01*
X158533596Y-110889335D01*
X158465000Y-111234193D01*
X149835000Y-111234193D01*
X149766404Y-110889335D01*
X149631847Y-110564485D01*
X149436500Y-110272129D01*
X149187871Y-110023500D01*
X148895515Y-109828153D01*
X148570665Y-109693596D01*
X148225807Y-109625000D01*
X147874193Y-109625000D01*
X147529335Y-109693596D01*
X147204485Y-109828153D01*
X146912129Y-110023500D01*
X146663500Y-110272129D01*
X146468153Y-110564485D01*
X146333596Y-110889335D01*
X146265000Y-111234193D01*
X124561983Y-111234193D01*
X124866487Y-110499057D01*
X125035000Y-109651885D01*
X125035000Y-108788115D01*
X167065000Y-108788115D01*
X167065000Y-109651885D01*
X167233513Y-110499057D01*
X167564064Y-111297076D01*
X168043948Y-112015274D01*
X168654726Y-112626052D01*
X169372924Y-113105936D01*
X170170943Y-113436487D01*
X171018115Y-113605000D01*
X171881885Y-113605000D01*
X172729057Y-113436487D01*
X173527076Y-113105936D01*
X174245274Y-112626052D01*
X174856052Y-112015274D01*
X175335936Y-111297076D01*
X175666487Y-110499057D01*
X175835000Y-109651885D01*
X175835000Y-108788115D01*
X175666487Y-107940943D01*
X175335936Y-107142924D01*
X174856052Y-106424726D01*
X174245274Y-105813948D01*
X173527076Y-105334064D01*
X172729057Y-105003513D01*
X171881885Y-104835000D01*
X171018115Y-104835000D01*
X170170943Y-105003513D01*
X169372924Y-105334064D01*
X168654726Y-105813948D01*
X168043948Y-106424726D01*
X167564064Y-107142924D01*
X167233513Y-107940943D01*
X167065000Y-108788115D01*
X125035000Y-108788115D01*
X124866487Y-107940943D01*
X124535936Y-107142924D01*
X124056052Y-106424726D01*
X123445274Y-105813948D01*
X123063000Y-105558521D01*
X123063000Y-104260000D01*
X144261928Y-104260000D01*
X144261928Y-106560000D01*
X144274188Y-106684482D01*
X144310498Y-106804180D01*
X144369463Y-106914494D01*
X144448815Y-107011185D01*
X144545506Y-107090537D01*
X144655820Y-107149502D01*
X144775518Y-107185812D01*
X144900000Y-107198072D01*
X147200000Y-107198072D01*
X147324482Y-107185812D01*
X147444180Y-107149502D01*
X147554494Y-107090537D01*
X147651185Y-107011185D01*
X147730537Y-106914494D01*
X147789502Y-106804180D01*
X147825812Y-106684482D01*
X147838072Y-106560000D01*
X147838072Y-104260000D01*
X147825812Y-104135518D01*
X147789502Y-104015820D01*
X147730537Y-103905506D01*
X147651185Y-103808815D01*
X147554494Y-103729463D01*
X147444180Y-103670498D01*
X147324482Y-103634188D01*
X147200000Y-103621928D01*
X144900000Y-103621928D01*
X144775518Y-103634188D01*
X144655820Y-103670498D01*
X144545506Y-103729463D01*
X144448815Y-103808815D01*
X144369463Y-103905506D01*
X144310498Y-104015820D01*
X144274188Y-104135518D01*
X144261928Y-104260000D01*
X123063000Y-104260000D01*
X123063000Y-100130193D01*
X138327000Y-100130193D01*
X138327000Y-100481807D01*
X138395596Y-100826665D01*
X138530153Y-101151515D01*
X138725500Y-101443871D01*
X138974129Y-101692500D01*
X139266485Y-101887847D01*
X139591335Y-102022404D01*
X139936193Y-102091000D01*
X140287807Y-102091000D01*
X140632665Y-102022404D01*
X140957515Y-101887847D01*
X141249871Y-101692500D01*
X141498500Y-101443871D01*
X141693847Y-101151515D01*
X141828404Y-100826665D01*
X141897000Y-100481807D01*
X141897000Y-100130193D01*
X141828404Y-99785335D01*
X141693847Y-99460485D01*
X141542643Y-99234193D01*
X146265000Y-99234193D01*
X146265000Y-99585807D01*
X146333596Y-99930665D01*
X146468153Y-100255515D01*
X146663500Y-100547871D01*
X146912129Y-100796500D01*
X147204485Y-100991847D01*
X147529335Y-101126404D01*
X147874193Y-101195000D01*
X148225807Y-101195000D01*
X148570665Y-101126404D01*
X148584075Y-101120849D01*
X170434000Y-101120849D01*
X170434000Y-101571151D01*
X170521850Y-102012802D01*
X170694173Y-102428827D01*
X170944348Y-102803240D01*
X171262760Y-103121652D01*
X171637173Y-103371827D01*
X172053198Y-103544150D01*
X172494849Y-103632000D01*
X172945151Y-103632000D01*
X173386802Y-103544150D01*
X173802827Y-103371827D01*
X174177240Y-103121652D01*
X174495652Y-102803240D01*
X174745827Y-102428827D01*
X174918150Y-102012802D01*
X175006000Y-101571151D01*
X175006000Y-101120849D01*
X174918150Y-100679198D01*
X174745827Y-100263173D01*
X174495652Y-99888760D01*
X174177240Y-99570348D01*
X173802827Y-99320173D01*
X173386802Y-99147850D01*
X172945151Y-99060000D01*
X172494849Y-99060000D01*
X172053198Y-99147850D01*
X171637173Y-99320173D01*
X171262760Y-99570348D01*
X170944348Y-99888760D01*
X170694173Y-100263173D01*
X170521850Y-100679198D01*
X170434000Y-101120849D01*
X148584075Y-101120849D01*
X148895515Y-100991847D01*
X149187871Y-100796500D01*
X149436500Y-100547871D01*
X149631847Y-100255515D01*
X149766404Y-99930665D01*
X149835000Y-99585807D01*
X149835000Y-99234193D01*
X149766404Y-98889335D01*
X149631847Y-98564485D01*
X149436500Y-98272129D01*
X149187871Y-98023500D01*
X148895515Y-97828153D01*
X148570665Y-97693596D01*
X148225807Y-97625000D01*
X147874193Y-97625000D01*
X147529335Y-97693596D01*
X147204485Y-97828153D01*
X146912129Y-98023500D01*
X146663500Y-98272129D01*
X146468153Y-98564485D01*
X146333596Y-98889335D01*
X146265000Y-99234193D01*
X141542643Y-99234193D01*
X141498500Y-99168129D01*
X141249871Y-98919500D01*
X140957515Y-98724153D01*
X140632665Y-98589596D01*
X140287807Y-98521000D01*
X139936193Y-98521000D01*
X139591335Y-98589596D01*
X139266485Y-98724153D01*
X138974129Y-98919500D01*
X138725500Y-99168129D01*
X138530153Y-99460485D01*
X138395596Y-99785335D01*
X138327000Y-100130193D01*
X123063000Y-100130193D01*
X123063000Y-96659923D01*
X123120327Y-96574127D01*
X123292650Y-96158102D01*
X123380500Y-95716451D01*
X123380500Y-95481890D01*
X123471610Y-95390780D01*
X123634740Y-95276555D01*
X123815235Y-95192388D01*
X124007605Y-95140843D01*
X124211548Y-95123000D01*
X166624000Y-95123000D01*
X166636448Y-95122388D01*
X166834660Y-95102866D01*
X166859078Y-95098009D01*
X167049672Y-95040193D01*
X167072674Y-95030666D01*
X167248327Y-94936777D01*
X167269027Y-94922945D01*
X167422988Y-94796592D01*
X167440592Y-94778988D01*
X167566945Y-94625027D01*
X167580777Y-94604327D01*
X167674666Y-94428674D01*
X167684193Y-94405672D01*
X167742009Y-94215078D01*
X167746866Y-94190660D01*
X167784684Y-93806684D01*
X167835237Y-93640034D01*
X167917336Y-93486438D01*
X168027817Y-93351817D01*
X168162438Y-93241336D01*
X168316034Y-93159237D01*
X168482684Y-93108684D01*
X168662234Y-93091000D01*
X176524452Y-93091000D01*
X176728395Y-93108843D01*
G36*
X153044765Y-76904388D02*
G01*
X153225260Y-76988555D01*
X153388390Y-77102780D01*
X153529220Y-77243610D01*
X153643445Y-77406740D01*
X153727612Y-77587235D01*
X153779157Y-77779605D01*
X153797000Y-77983548D01*
X153797000Y-93212452D01*
X153779157Y-93416395D01*
X153727612Y-93608765D01*
X153643445Y-93789260D01*
X153529220Y-93952390D01*
X153388390Y-94093220D01*
X153225260Y-94207445D01*
X153044765Y-94291612D01*
X152852395Y-94343157D01*
X152648452Y-94361000D01*
X123705129Y-94361000D01*
X123556880Y-94344296D01*
X123422833Y-94297391D01*
X123302587Y-94221836D01*
X123202164Y-94121413D01*
X123126609Y-94001167D01*
X123079704Y-93867120D01*
X123043096Y-93542219D01*
X123036768Y-93514493D01*
X122980411Y-93353435D01*
X122968072Y-93327813D01*
X122877290Y-93183333D01*
X122859559Y-93161098D01*
X122738902Y-93040441D01*
X122716667Y-93022710D01*
X122572187Y-92931928D01*
X122546565Y-92919589D01*
X122385507Y-92863232D01*
X122357781Y-92856904D01*
X122188220Y-92837799D01*
X122174000Y-92837000D01*
X115321548Y-92837000D01*
X115117605Y-92819157D01*
X114933000Y-92769693D01*
X114933000Y-92184193D01*
X146265000Y-92184193D01*
X146265000Y-92535807D01*
X146333596Y-92880665D01*
X146468153Y-93205515D01*
X146663500Y-93497871D01*
X146912129Y-93746500D01*
X147204485Y-93941847D01*
X147529335Y-94076404D01*
X147874193Y-94145000D01*
X148225807Y-94145000D01*
X148570665Y-94076404D01*
X148895515Y-93941847D01*
X149187871Y-93746500D01*
X149436500Y-93497871D01*
X149631847Y-93205515D01*
X149766404Y-92880665D01*
X149835000Y-92535807D01*
X149835000Y-92184193D01*
X149766404Y-91839335D01*
X149631847Y-91514485D01*
X149436500Y-91222129D01*
X149187871Y-90973500D01*
X148895515Y-90778153D01*
X148570665Y-90643596D01*
X148225807Y-90575000D01*
X147874193Y-90575000D01*
X147529335Y-90643596D01*
X147204485Y-90778153D01*
X146912129Y-90973500D01*
X146663500Y-91222129D01*
X146468153Y-91514485D01*
X146333596Y-91839335D01*
X146265000Y-92184193D01*
X114933000Y-92184193D01*
X114933000Y-89164001D01*
X115659871Y-88437131D01*
X115982698Y-88570850D01*
X116424349Y-88658700D01*
X116874651Y-88658700D01*
X117316302Y-88570850D01*
X117732327Y-88398527D01*
X118106740Y-88148352D01*
X118324899Y-87930193D01*
X126327000Y-87930193D01*
X126327000Y-88281807D01*
X126395596Y-88626665D01*
X126530153Y-88951515D01*
X126725500Y-89243871D01*
X126974129Y-89492500D01*
X127266485Y-89687847D01*
X127591335Y-89822404D01*
X127936193Y-89891000D01*
X128287807Y-89891000D01*
X128632665Y-89822404D01*
X128957515Y-89687847D01*
X129249871Y-89492500D01*
X129498500Y-89243871D01*
X129693847Y-88951515D01*
X129828404Y-88626665D01*
X129897000Y-88281807D01*
X129897000Y-87930193D01*
X138327000Y-87930193D01*
X138327000Y-88281807D01*
X138395596Y-88626665D01*
X138530153Y-88951515D01*
X138725500Y-89243871D01*
X138974129Y-89492500D01*
X139266485Y-89687847D01*
X139591335Y-89822404D01*
X139936193Y-89891000D01*
X140287807Y-89891000D01*
X140632665Y-89822404D01*
X140957515Y-89687847D01*
X141249871Y-89492500D01*
X141498500Y-89243871D01*
X141693847Y-88951515D01*
X141828404Y-88626665D01*
X141897000Y-88281807D01*
X141897000Y-87930193D01*
X141828404Y-87585335D01*
X141693847Y-87260485D01*
X141498500Y-86968129D01*
X141249871Y-86719500D01*
X140957515Y-86524153D01*
X140632665Y-86389596D01*
X140287807Y-86321000D01*
X139936193Y-86321000D01*
X139591335Y-86389596D01*
X139266485Y-86524153D01*
X138974129Y-86719500D01*
X138725500Y-86968129D01*
X138530153Y-87260485D01*
X138395596Y-87585335D01*
X138327000Y-87930193D01*
X129897000Y-87930193D01*
X129828404Y-87585335D01*
X129693847Y-87260485D01*
X129498500Y-86968129D01*
X129249871Y-86719500D01*
X128957515Y-86524153D01*
X128632665Y-86389596D01*
X128287807Y-86321000D01*
X127936193Y-86321000D01*
X127591335Y-86389596D01*
X127266485Y-86524153D01*
X126974129Y-86719500D01*
X126725500Y-86968129D01*
X126530153Y-87260485D01*
X126395596Y-87585335D01*
X126327000Y-87930193D01*
X118324899Y-87930193D01*
X118425152Y-87829940D01*
X118675327Y-87455527D01*
X118847650Y-87039502D01*
X118935500Y-86597851D01*
X118935500Y-86147549D01*
X118847650Y-85705898D01*
X118675327Y-85289873D01*
X118425152Y-84915460D01*
X118106740Y-84597048D01*
X117732327Y-84346873D01*
X117316302Y-84174550D01*
X116874651Y-84086700D01*
X116424349Y-84086700D01*
X115982698Y-84174550D01*
X115566673Y-84346873D01*
X115192260Y-84597048D01*
X114873848Y-84915460D01*
X114623673Y-85289873D01*
X114451350Y-85705898D01*
X114363500Y-86147549D01*
X114363500Y-86597851D01*
X114451350Y-87039502D01*
X114585069Y-87362329D01*
X114198000Y-87749399D01*
X114198000Y-80292849D01*
X116586000Y-80292849D01*
X116586000Y-80743151D01*
X116673850Y-81184802D01*
X116846173Y-81600827D01*
X117096348Y-81975240D01*
X117414760Y-82293652D01*
X117789173Y-82543827D01*
X118205198Y-82716150D01*
X118646849Y-82804000D01*
X119097151Y-82804000D01*
X119538802Y-82716150D01*
X119954827Y-82543827D01*
X120329240Y-82293652D01*
X120647652Y-81975240D01*
X120897827Y-81600827D01*
X121070150Y-81184802D01*
X121158000Y-80743151D01*
X121158000Y-80292849D01*
X121136387Y-80184193D01*
X146265000Y-80184193D01*
X146265000Y-80535807D01*
X146333596Y-80880665D01*
X146468153Y-81205515D01*
X146663500Y-81497871D01*
X146912129Y-81746500D01*
X147204485Y-81941847D01*
X147529335Y-82076404D01*
X147874193Y-82145000D01*
X148225807Y-82145000D01*
X148570665Y-82076404D01*
X148895515Y-81941847D01*
X149187871Y-81746500D01*
X149436500Y-81497871D01*
X149631847Y-81205515D01*
X149766404Y-80880665D01*
X149835000Y-80535807D01*
X149835000Y-80184193D01*
X149766404Y-79839335D01*
X149631847Y-79514485D01*
X149436500Y-79222129D01*
X149187871Y-78973500D01*
X148895515Y-78778153D01*
X148570665Y-78643596D01*
X148225807Y-78575000D01*
X147874193Y-78575000D01*
X147529335Y-78643596D01*
X147204485Y-78778153D01*
X146912129Y-78973500D01*
X146663500Y-79222129D01*
X146468153Y-79514485D01*
X146333596Y-79839335D01*
X146265000Y-80184193D01*
X121136387Y-80184193D01*
X121070150Y-79851198D01*
X120897827Y-79435173D01*
X120647652Y-79060760D01*
X120329240Y-78742348D01*
X119954827Y-78492173D01*
X119538802Y-78319850D01*
X119097151Y-78232000D01*
X118646849Y-78232000D01*
X118205198Y-78319850D01*
X117789173Y-78492173D01*
X117414760Y-78742348D01*
X117096348Y-79060760D01*
X116846173Y-79435173D01*
X116673850Y-79851198D01*
X116586000Y-80292849D01*
X114198000Y-80292849D01*
X114198000Y-77752895D01*
X114242388Y-77587235D01*
X114326555Y-77406740D01*
X114440780Y-77243610D01*
X114581610Y-77102780D01*
X114744740Y-76988555D01*
X114925235Y-76904388D01*
X115090895Y-76860000D01*
X152879105Y-76860000D01*
X153044765Y-76904388D01*
G37*
X153044765Y-76904388D02*
X153225260Y-76988555D01*
X153388390Y-77102780D01*
X153529220Y-77243610D01*
X153643445Y-77406740D01*
X153727612Y-77587235D01*
X153779157Y-77779605D01*
X153797000Y-77983548D01*
X153797000Y-93212452D01*
X153779157Y-93416395D01*
X153727612Y-93608765D01*
X153643445Y-93789260D01*
X153529220Y-93952390D01*
X153388390Y-94093220D01*
X153225260Y-94207445D01*
X153044765Y-94291612D01*
X152852395Y-94343157D01*
X152648452Y-94361000D01*
X123705129Y-94361000D01*
X123556880Y-94344296D01*
X123422833Y-94297391D01*
X123302587Y-94221836D01*
X123202164Y-94121413D01*
X123126609Y-94001167D01*
X123079704Y-93867120D01*
X123043096Y-93542219D01*
X123036768Y-93514493D01*
X122980411Y-93353435D01*
X122968072Y-93327813D01*
X122877290Y-93183333D01*
X122859559Y-93161098D01*
X122738902Y-93040441D01*
X122716667Y-93022710D01*
X122572187Y-92931928D01*
X122546565Y-92919589D01*
X122385507Y-92863232D01*
X122357781Y-92856904D01*
X122188220Y-92837799D01*
X122174000Y-92837000D01*
X115321548Y-92837000D01*
X115117605Y-92819157D01*
X114933000Y-92769693D01*
X114933000Y-92184193D01*
X146265000Y-92184193D01*
X146265000Y-92535807D01*
X146333596Y-92880665D01*
X146468153Y-93205515D01*
X146663500Y-93497871D01*
X146912129Y-93746500D01*
X147204485Y-93941847D01*
X147529335Y-94076404D01*
X147874193Y-94145000D01*
X148225807Y-94145000D01*
X148570665Y-94076404D01*
X148895515Y-93941847D01*
X149187871Y-93746500D01*
X149436500Y-93497871D01*
X149631847Y-93205515D01*
X149766404Y-92880665D01*
X149835000Y-92535807D01*
X149835000Y-92184193D01*
X149766404Y-91839335D01*
X149631847Y-91514485D01*
X149436500Y-91222129D01*
X149187871Y-90973500D01*
X148895515Y-90778153D01*
X148570665Y-90643596D01*
X148225807Y-90575000D01*
X147874193Y-90575000D01*
X147529335Y-90643596D01*
X147204485Y-90778153D01*
X146912129Y-90973500D01*
X146663500Y-91222129D01*
X146468153Y-91514485D01*
X146333596Y-91839335D01*
X146265000Y-92184193D01*
X114933000Y-92184193D01*
X114933000Y-89164001D01*
X115659871Y-88437131D01*
X115982698Y-88570850D01*
X116424349Y-88658700D01*
X116874651Y-88658700D01*
X117316302Y-88570850D01*
X117732327Y-88398527D01*
X118106740Y-88148352D01*
X118324899Y-87930193D01*
X126327000Y-87930193D01*
X126327000Y-88281807D01*
X126395596Y-88626665D01*
X126530153Y-88951515D01*
X126725500Y-89243871D01*
X126974129Y-89492500D01*
X127266485Y-89687847D01*
X127591335Y-89822404D01*
X127936193Y-89891000D01*
X128287807Y-89891000D01*
X128632665Y-89822404D01*
X128957515Y-89687847D01*
X129249871Y-89492500D01*
X129498500Y-89243871D01*
X129693847Y-88951515D01*
X129828404Y-88626665D01*
X129897000Y-88281807D01*
X129897000Y-87930193D01*
X138327000Y-87930193D01*
X138327000Y-88281807D01*
X138395596Y-88626665D01*
X138530153Y-88951515D01*
X138725500Y-89243871D01*
X138974129Y-89492500D01*
X139266485Y-89687847D01*
X139591335Y-89822404D01*
X139936193Y-89891000D01*
X140287807Y-89891000D01*
X140632665Y-89822404D01*
X140957515Y-89687847D01*
X141249871Y-89492500D01*
X141498500Y-89243871D01*
X141693847Y-88951515D01*
X141828404Y-88626665D01*
X141897000Y-88281807D01*
X141897000Y-87930193D01*
X141828404Y-87585335D01*
X141693847Y-87260485D01*
X141498500Y-86968129D01*
X141249871Y-86719500D01*
X140957515Y-86524153D01*
X140632665Y-86389596D01*
X140287807Y-86321000D01*
X139936193Y-86321000D01*
X139591335Y-86389596D01*
X139266485Y-86524153D01*
X138974129Y-86719500D01*
X138725500Y-86968129D01*
X138530153Y-87260485D01*
X138395596Y-87585335D01*
X138327000Y-87930193D01*
X129897000Y-87930193D01*
X129828404Y-87585335D01*
X129693847Y-87260485D01*
X129498500Y-86968129D01*
X129249871Y-86719500D01*
X128957515Y-86524153D01*
X128632665Y-86389596D01*
X128287807Y-86321000D01*
X127936193Y-86321000D01*
X127591335Y-86389596D01*
X127266485Y-86524153D01*
X126974129Y-86719500D01*
X126725500Y-86968129D01*
X126530153Y-87260485D01*
X126395596Y-87585335D01*
X126327000Y-87930193D01*
X118324899Y-87930193D01*
X118425152Y-87829940D01*
X118675327Y-87455527D01*
X118847650Y-87039502D01*
X118935500Y-86597851D01*
X118935500Y-86147549D01*
X118847650Y-85705898D01*
X118675327Y-85289873D01*
X118425152Y-84915460D01*
X118106740Y-84597048D01*
X117732327Y-84346873D01*
X117316302Y-84174550D01*
X116874651Y-84086700D01*
X116424349Y-84086700D01*
X115982698Y-84174550D01*
X115566673Y-84346873D01*
X115192260Y-84597048D01*
X114873848Y-84915460D01*
X114623673Y-85289873D01*
X114451350Y-85705898D01*
X114363500Y-86147549D01*
X114363500Y-86597851D01*
X114451350Y-87039502D01*
X114585069Y-87362329D01*
X114198000Y-87749399D01*
X114198000Y-80292849D01*
X116586000Y-80292849D01*
X116586000Y-80743151D01*
X116673850Y-81184802D01*
X116846173Y-81600827D01*
X117096348Y-81975240D01*
X117414760Y-82293652D01*
X117789173Y-82543827D01*
X118205198Y-82716150D01*
X118646849Y-82804000D01*
X119097151Y-82804000D01*
X119538802Y-82716150D01*
X119954827Y-82543827D01*
X120329240Y-82293652D01*
X120647652Y-81975240D01*
X120897827Y-81600827D01*
X121070150Y-81184802D01*
X121158000Y-80743151D01*
X121158000Y-80292849D01*
X121136387Y-80184193D01*
X146265000Y-80184193D01*
X146265000Y-80535807D01*
X146333596Y-80880665D01*
X146468153Y-81205515D01*
X146663500Y-81497871D01*
X146912129Y-81746500D01*
X147204485Y-81941847D01*
X147529335Y-82076404D01*
X147874193Y-82145000D01*
X148225807Y-82145000D01*
X148570665Y-82076404D01*
X148895515Y-81941847D01*
X149187871Y-81746500D01*
X149436500Y-81497871D01*
X149631847Y-81205515D01*
X149766404Y-80880665D01*
X149835000Y-80535807D01*
X149835000Y-80184193D01*
X149766404Y-79839335D01*
X149631847Y-79514485D01*
X149436500Y-79222129D01*
X149187871Y-78973500D01*
X148895515Y-78778153D01*
X148570665Y-78643596D01*
X148225807Y-78575000D01*
X147874193Y-78575000D01*
X147529335Y-78643596D01*
X147204485Y-78778153D01*
X146912129Y-78973500D01*
X146663500Y-79222129D01*
X146468153Y-79514485D01*
X146333596Y-79839335D01*
X146265000Y-80184193D01*
X121136387Y-80184193D01*
X121070150Y-79851198D01*
X120897827Y-79435173D01*
X120647652Y-79060760D01*
X120329240Y-78742348D01*
X119954827Y-78492173D01*
X119538802Y-78319850D01*
X119097151Y-78232000D01*
X118646849Y-78232000D01*
X118205198Y-78319850D01*
X117789173Y-78492173D01*
X117414760Y-78742348D01*
X117096348Y-79060760D01*
X116846173Y-79435173D01*
X116673850Y-79851198D01*
X116586000Y-80292849D01*
X114198000Y-80292849D01*
X114198000Y-77752895D01*
X114242388Y-77587235D01*
X114326555Y-77406740D01*
X114440780Y-77243610D01*
X114581610Y-77102780D01*
X114744740Y-76988555D01*
X114925235Y-76904388D01*
X115090895Y-76860000D01*
X152879105Y-76860000D01*
X153044765Y-76904388D01*
M02*
